<?xml version="1.0" encoding="utf-8"?>
<!-- Generator: Adobe Illustrator 16.0.0, SVG Export Plug-In . SVG Version: 6.00 Build 0)  -->
<!DOCTYPE svg PUBLIC "-//W3C//DTD SVG 1.1//EN" "http://www.w3.org/Graphics/SVG/1.1/DTD/svg11.dtd">
<svg version="1.1" id="Layer_1" xmlns="http://www.w3.org/2000/svg" xmlns:xlink="http://www.w3.org/1999/xlink" x="0px" y="0px"
	 width="188.843px" height="66px" viewBox="0 0 188.843 66" enable-background="new 0 0 188.843 66" xml:space="preserve">
<g>
	<g>
		<path d="M164.788,34.851c-4.997,0.832-10.574,0.091-15.582-0.338c-5.764-0.493-11.53-0.98-17.301-1.39
			c-13.315-0.944-26.742-0.135-40.081-0.283c-13.498-0.15-26.769-1.455-39.722-5.384c-6.335-1.921-12.5-4.386-18.583-6.983
			c-5.429-2.317-10.671-5.399-16.211-7.4c-1.734-0.627-5.613,2.144-3.38,3.592c4.612,2.992,10.16,4.838,15.245,6.865
			c5.968,2.379,12.031,4.602,18.163,6.52c13.659,4.274,27.509,5.706,41.776,5.869c14.864,0.169,29.709-1.168,44.565-0.37
			c10.189,0.548,21.275,2.339,31.275-0.411C165.226,35.062,164.977,34.819,164.788,34.851L164.788,34.851z"/>
	</g>
</g>
</svg>
