<?xml version="1.0" encoding="utf-8"?>
<!-- Generator: Adobe Illustrator 16.0.0, SVG Export Plug-In . SVG Version: 6.00 Build 0)  -->
<!DOCTYPE svg PUBLIC "-//W3C//DTD SVG 1.1//EN" "http://www.w3.org/Graphics/SVG/1.1/DTD/svg11.dtd">
<svg version="1.1" id="Layer_1" xmlns="http://www.w3.org/2000/svg" xmlns:xlink="http://www.w3.org/1999/xlink" x="0px" y="0px"
	 width="209.637px" height="32.496px" viewBox="0 0 209.637 32.496" enable-background="new 0 0 209.637 32.496"
	 xml:space="preserve">
<g>
	<g>
		<path d="M31.395,17.661c12.375-3.545,25.238-2.85,37.96-2.514c14.112,0.372,28.241-0.263,42.349-0.549
			c13.702-0.278,27.423-0.12,41.121,0.287c7.012,0.209,14.02,0.551,21.025,0.896c3.997,0.197,8.594,2.099,12.545,1.254
			c3.152-0.674,1.814-5.494-1.33-4.821c-1.801,0.385-4.49-0.703-6.292-1.021c-2.241-0.394-4.544-0.394-6.811-0.506
			c-7.017-0.346-14.034-0.651-21.057-0.86c-14.384-0.428-28.783-0.46-43.17-0.147C94.353,9.972,80.972,10.453,67.584,10.1
			c-12.597-0.332-25.28-0.767-37.519,2.74C26.971,13.726,28.288,18.551,31.395,17.661L31.395,17.661z"/>
	</g>
</g>
</svg>
