<?xml version="1.0" encoding="utf-8"?>
<!-- Generator: Adobe Illustrator 16.0.0, SVG Export Plug-In . SVG Version: 6.00 Build 0)  -->
<!DOCTYPE svg PUBLIC "-//W3C//DTD SVG 1.1//EN" "http://www.w3.org/Graphics/SVG/1.1/DTD/svg11.dtd">
<svg version="1.1" id="Layer_1" xmlns="http://www.w3.org/2000/svg" xmlns:xlink="http://www.w3.org/1999/xlink" x="0px" y="0px"
	 width="188.52px" height="63.976px" viewBox="0 0 188.52 63.976" enable-background="new 0 0 188.52 63.976" xml:space="preserve">
<g>
	<g>
		<path d="M17.381,40.179c-1.402-0.025-1.962-0.447-1.68-1.267c-0.398,0.362-0.796,0.724-1.195,1.086
			c11.29-3.199,22.342-7.128,33.713-10.118c12.043-3.167,24.588-3.581,36.953-2.83c12.74,0.773,24.752,5.215,36.833,8.972
			c5.842,1.817,11.521,2.997,17.601,3.69c3.403,0.388,6.801,0.77,10.049,1.917c0.79,0.279,1.681,0.4,2.5,0.543
			c0.341,0.05,0.681,0.099,1.022,0.148c1.39,0.501,1.436,0.182,0.137-0.957c-0.112,0.406-0.099,0.916,0.351,1.135
			c0.175,0.085,0.35,0.17,0.524,0.255c1.838,0.895,5.724-0.874,4.722-3.369c-1.107-2.759-6.177-1.749-8.57-2.226
			c-7.375-1.467-14.86-1.796-22.111-3.869c-13.194-3.772-26.005-9.226-39.899-9.789c-12.42-0.504-24.906,1.534-37.048,3.979
			c-12.782,2.573-25.763,5.042-37.66,10.663c-0.453,0.214-0.938,0.676-0.806,1.229c0.043,0.181,0.086,0.362,0.13,0.543
			c0.118,0.491,0.701,0.677,1.148,0.654c1.107-0.056,2.201-0.172,3.306-0.242C17.537,40.32,17.492,40.19,17.381,40.179
			L17.381,40.179z"/>
	</g>
</g>
</svg>
