<?xml version="1.0" encoding="utf-8"?>
<!-- Generator: Adobe Illustrator 16.0.0, SVG Export Plug-In . SVG Version: 6.00 Build 0)  -->
<!DOCTYPE svg PUBLIC "-//W3C//DTD SVG 1.1//EN" "http://www.w3.org/Graphics/SVG/1.1/DTD/svg11.dtd">
<svg version="1.1" id="Layer_1" xmlns="http://www.w3.org/2000/svg" xmlns:xlink="http://www.w3.org/1999/xlink" x="0px" y="0px"
	 width="188.843px" height="68.693px" viewBox="0 0 188.843 68.693" enable-background="new 0 0 188.843 68.693"
	 xml:space="preserve">
<g>
	<g>
		<path d="M23.513,16.221c20.181,14.549,47.85,13.463,71.55,13.662c12.97,0.109,26.028,0.052,38.876,2.056
			c7.367,1.148,14.18,3.372,20.966,6.445c7.426,3.362,13.813,8.588,21.552,11.43c2.572,0.945,6.378-3.915,3.416-5.379
			c-6.626-3.274-13.571-6.071-20.52-8.581c-6.589-2.38-12.565-5.335-19.554-6.516c-12.477-2.107-25.015-2.491-37.65-2.389
			c-25.938,0.211-54.665,2.395-77.976-11.17C23.853,15.594,23.035,15.876,23.513,16.221L23.513,16.221z"/>
	</g>
</g>
</svg>
