<?xml version="1.0" encoding="utf-8"?>
<!-- Generator: Adobe Illustrator 16.0.0, SVG Export Plug-In . SVG Version: 6.00 Build 0)  -->
<!DOCTYPE svg PUBLIC "-//W3C//DTD SVG 1.1//EN" "http://www.w3.org/Graphics/SVG/1.1/DTD/svg11.dtd">
<svg version="1.1" id="Layer_1" xmlns="http://www.w3.org/2000/svg" xmlns:xlink="http://www.w3.org/1999/xlink" x="0px" y="0px"
	 width="188.52px" height="44.307px" viewBox="0 0 188.52 44.307" enable-background="new 0 0 188.52 44.307" xml:space="preserve">
<g>
	<g>
		<path d="M10.045,17.432c25.23-4.991,50.763-2.047,76.12,0.23c11.728,1.054,23.378,1.481,35.138,1.816
			c6.21,0.177,12.402,0.78,18.566,1.531c3.488,0.425,6.96,0.966,10.426,1.54c3.669,0.608,8.469,0.99,11.688,2.977
			c3.8,2.346,7.154-5.455,2.101-4.72c-6.704,0.977-14.653-1.547-21.388-2.271c-6.772-0.729-13.573-1.07-20.379-1.244
			c-13.652-0.349-27.195-0.76-40.82-1.855c-23.631-1.9-48.374-4.505-71.588,1.757C9.685,17.252,9.885,17.463,10.045,17.432
			L10.045,17.432z"/>
	</g>
</g>
</svg>
