<?xml version="1.0" encoding="utf-8"?>
<!-- Generator: Adobe Illustrator 16.0.0, SVG Export Plug-In . SVG Version: 6.00 Build 0)  -->
<!DOCTYPE svg PUBLIC "-//W3C//DTD SVG 1.1//EN" "http://www.w3.org/Graphics/SVG/1.1/DTD/svg11.dtd">
<svg version="1.1" id="Layer_1" xmlns="http://www.w3.org/2000/svg" xmlns:xlink="http://www.w3.org/1999/xlink" x="0px" y="0px"
	 width="188.52px" height="68.693px" viewBox="0 0 188.52 68.693" enable-background="new 0 0 188.52 68.693" xml:space="preserve">
<g>
	<g>
		<path d="M-0.007,29.151c12.762,0.11,21.775,14.074,32.157,19.923c11.138,6.273,26.221,5.375,38.37,3.661
			c15.102-2.129,29.662-7.012,44.577-10.054c7.863-1.604,15.74-3.126,23.593-4.782c8.006-1.688,16.716-4.152,24.914-4.023
			c3.18,0.05,3.335-4.82,0.208-3.649c-7.504,2.809-15.699,4.047-23.502,5.869c-7.823,1.827-15.739,3.354-23.625,4.884
			c-14.997,2.907-29.564,7.67-44.639,10.219c-15.49,2.618-32.119,2.363-45.204-7.252C19.09,38.25,10.495,28.002-0.055,28.851
			C-0.321,28.872-0.238,29.149-0.007,29.151L-0.007,29.151z"/>
	</g>
</g>
</svg>
