<?xml version="1.0" encoding="utf-8"?>
<!-- Generator: Adobe Illustrator 16.0.0, SVG Export Plug-In . SVG Version: 6.00 Build 0)  -->
<!DOCTYPE svg PUBLIC "-//W3C//DTD SVG 1.1//EN" "http://www.w3.org/Graphics/SVG/1.1/DTD/svg11.dtd">
<svg version="1.1" id="Layer_1" xmlns="http://www.w3.org/2000/svg" xmlns:xlink="http://www.w3.org/1999/xlink" x="0px" y="0px"
	 width="209.637px" height="55.055px" viewBox="0 0 209.637 55.055" enable-background="new 0 0 209.637 55.055"
	 xml:space="preserve">
<g>
	<g>
		<path d="M31.998,25.051c13.509-3.011,27.531-0.67,41.229-1.087c14.514-0.442,28.979-1.94,43.448-3.093
			c12.708-1.012,25.469-1.521,38.22-1.401c6.159,0.058,12.291,0.532,18.384,1.43c7.116,1.049,12.788,4.241,19.172,7.17
			c-0.028-1.242-0.056-2.483-0.084-3.724c-0.609,0.753-1.369,1.378-1.99,2.129c-0.988,1.198,0.622,1.901,1.583,1.831
			c0.595,0.118,1.194,0.149,1.8,0.093c2.675-0.047,5.387-4.075,2.139-5.418c-5.493-2.272-12.405-2.762-18.307-3.501
			c-6.295-0.788-12.587-1.173-18.928-1.31c-13.363-0.288-26.831,0.461-40.138,1.601c-15.096,1.292-30.152,2.99-45.293,3.688
			c-13.726,0.633-27.757-1.632-41.271,1.545C31.912,25.016,31.964,25.059,31.998,25.051L31.998,25.051z"/>
	</g>
</g>
</svg>
