<?xml version="1.0" encoding="iso-8859-1"?>
<!-- Generator: Adobe Illustrator 16.0.0, SVG Export Plug-In . SVG Version: 6.00 Build 0)  -->
<!DOCTYPE svg PUBLIC "-//W3C//DTD SVG 1.1//EN" "http://www.w3.org/Graphics/SVG/1.1/DTD/svg11.dtd">
<svg version="1.1" id="Layer_1" xmlns="http://www.w3.org/2000/svg" xmlns:xlink="http://www.w3.org/1999/xlink" x="0px" y="0px"
	 width="71.653px" height="83.331px" viewBox="0 0 71.653 83.331" style="enable-background:new 0 0 71.653 83.331;"
	 xml:space="preserve">
<g>
	<g>
		<path d="M40.967,20.664c-9.592,2.36-14.104,14.88-17.142,23.033c-3.332,8.939-5.523,18.19-7.208,27.563
			c-0.092,0.506,0.084,1.072,0.495,1.397c-0.005-0.275-0.021-0.297-0.046-0.066c0.689-0.428,1.379-0.856,2.068-1.285
			c0.717,0.643,0.929,0.664,0.636,0.064c-0.374-1.122-2.363-0.707-2.601,0.32c-0.103,0.441-0.184,0.782-0.123,1.229
			c0.134,0.97,1.645,0.702,2.202,0.478c2.871-1.151,2.651-5.803,3.019-8.271c0.614-4.127,1.241-8.159,2.268-12.204
			c1.437-5.665,3.119-11.264,5.328-16.679c2.236-5.479,5.61-12.629,11.783-14.387C42.909,21.498,41.962,20.419,40.967,20.664
			L40.967,20.664z"/>
	</g>
</g>
<g>
	<g>
		<path d="M14.639,20.393c-1.326,3.314,1.087,7.149,2.682,9.925c3.527,6.144,8.562,11.512,13.325,16.707
			c9.489,10.351,19.884,19.921,30.898,28.63c3.221,2.546,8.162-3.186,4.606-5.297c-10.423-6.189-19.581-15.1-28.474-23.252
			c-5.179-4.748-10.21-9.695-14.763-15.053c-2.192-2.581-7.614-7.622-6.906-11.5C16.136,19.851,14.855,19.85,14.639,20.393
			L14.639,20.393z"/>
	</g>
</g>
</svg>
