<?xml version="1.0" encoding="iso-8859-1"?>
<!-- Generator: Adobe Illustrator 16.0.0, SVG Export Plug-In . SVG Version: 6.00 Build 0)  -->
<!DOCTYPE svg PUBLIC "-//W3C//DTD SVG 1.1//EN" "http://www.w3.org/Graphics/SVG/1.1/DTD/svg11.dtd">
<svg version="1.1" id="Layer_1" xmlns="http://www.w3.org/2000/svg" xmlns:xlink="http://www.w3.org/1999/xlink" x="0px" y="0px"
	 width="67.717px" height="62.992px" viewBox="0 0 67.717 62.992" style="enable-background:new 0 0 67.717 62.992;"
	 xml:space="preserve">
<g>
	<g>
		<path d="M51.521,25.142c-1.033-4.058-2.879-8.021-7.583-8.001c-4.562,0.018-8.902,4.471-11.451,7.775
			c-5.443,7.059-12.316,21.8-3.569,28.976c4.851,3.979,13.104,2.545,18.241,0.136c5.938-2.785,8.806-8.815,8.897-15.116
			c0.099-6.723-2.942-13.552-6.831-18.873c-2.881-3.941-8.31-8.854-13.521-6.103c-2.575,1.359-4.337,3.691-4.755,6.624
			c-0.326,2.288,2.73,1.806,3.758,0.7c2.432-2.618,6.826,1.672,8.332,3.256c3.211,3.378,5.39,7.902,6.519,12.392
			c0.997,3.966,0.64,8.847-2.659,11.621c-3.45,2.9-10.151,3.644-13.961,1.074c-6.499-4.384-1.112-16.348,1.711-21.243
			c1.931-3.346,4.558-6.996,8.126-8.745c4.113-2.015,6.839,2.349,8.066,5.636C50.942,25.523,51.606,25.478,51.521,25.142
			L51.521,25.142z"/>
	</g>
</g>
</svg>
