<?xml version="1.0" encoding="iso-8859-1"?>
<!-- Generator: Adobe Illustrator 16.0.0, SVG Export Plug-In . SVG Version: 6.00 Build 0)  -->
<!DOCTYPE svg PUBLIC "-//W3C//DTD SVG 1.1//EN" "http://www.w3.org/Graphics/SVG/1.1/DTD/svg11.dtd">
<svg version="1.1" id="Layer_1" xmlns="http://www.w3.org/2000/svg" xmlns:xlink="http://www.w3.org/1999/xlink" x="0px" y="0px"
	 width="46.897px" height="63.976px" viewBox="0 0 46.897 63.976" style="enable-background:new 0 0 46.897 63.976;"
	 xml:space="preserve">
<g>
	<g>
		<path d="M14.263,15.977c4.334,6.356,8.791,12.648,12.915,19.143c2.001,3.151,3.81,6.408,5.464,9.752
			c1.346,2.722,1.886,6.313,4.306,8.226c0.88,0.696,2.743-0.055,2.85-1.175c0.546-5.757-5.59-12.562-8.792-16.949
			c-4.946-6.776-10.592-12.963-16.197-19.187C14.647,15.609,14.064,15.686,14.263,15.977L14.263,15.977z"/>
	</g>
</g>
<g>
	<g>
		<path d="M34.313,15.675c-3.94,5.874-7.831,11.789-12.061,17.46c-2.762,3.702-5.816,7.22-9.242,10.323
			c-2.996,2.714-6.607,4.542-9.628,7.194c-0.881,0.773-0.375,1.758,0.775,1.691c7.409-0.432,13.487-8.324,17.736-13.647
			c5.535-6.935,9.685-14.794,13.808-22.608C36.109,15.315,34.672,15.142,34.313,15.675L34.313,15.675z"/>
	</g>
</g>
</svg>
