<?xml version="1.0" encoding="iso-8859-1"?>
<!-- Generator: Adobe Illustrator 16.0.0, SVG Export Plug-In . SVG Version: 6.00 Build 0)  -->
<!DOCTYPE svg PUBLIC "-//W3C//DTD SVG 1.1//EN" "http://www.w3.org/Graphics/SVG/1.1/DTD/svg11.dtd">
<svg version="1.1" id="Layer_1" xmlns="http://www.w3.org/2000/svg" xmlns:xlink="http://www.w3.org/1999/xlink" x="0px" y="0px"
	 width="71.653px" height="62.992px" viewBox="0 0 71.653 62.992" style="enable-background:new 0 0 71.653 62.992;"
	 xml:space="preserve">
<g>
	<g>
		<path d="M31.04,27.286C21.155,34.563,39.916,42.011,45.361,43c4.77,0.866,9.269-0.468,12.158-4.521
			c3.312-4.648,1.118-11.287-1.277-15.79c-3.272-6.154-7.688-11.81-13.115-16.208c-4.433-3.591-10.995-8.208-16.778-4.294
			c-8.99,6.084-12.013,28.372,1.537,29.387c1.266,0.095,2.854-1.177,2.428-2.516c-2.071-6.516-5.953-13.687-2.234-20.408
			c4.729-8.546,17.673,5.164,20.802,8.873c4.322,5.125,13.742,22.56,0.535,23.818c-5.175,0.493-25.196-6.206-17.372-13.6
			C32.516,27.296,31.367,27.046,31.04,27.286L31.04,27.286z"/>
	</g>
</g>
</svg>
