<?xml version="1.0" encoding="iso-8859-1"?>
<!-- Generator: Adobe Illustrator 16.0.0, SVG Export Plug-In . SVG Version: 6.00 Build 0)  -->
<!DOCTYPE svg PUBLIC "-//W3C//DTD SVG 1.1//EN" "http://www.w3.org/Graphics/SVG/1.1/DTD/svg11.dtd">
<svg version="1.1" id="Layer_1" xmlns="http://www.w3.org/2000/svg" xmlns:xlink="http://www.w3.org/1999/xlink" x="0px" y="0px"
	 width="71.653px" height="55.055px" viewBox="0 0 71.653 55.055" style="enable-background:new 0 0 71.653 55.055;"
	 xml:space="preserve">
<g>
	<g>
		<path d="M32.191,22.565c4.337,1.802,7.945,6.134,11.265,9.304c4.065,3.881,8.428,10.155,13.895,12.016
			c0.625,0.213,2.104-0.033,1.691-1.003c-2.413-5.668-9.811-10.47-14.332-14.441c-2.908-2.555-7.67-7.635-11.971-7.137
			C32.168,21.37,31.32,22.204,32.191,22.565L32.191,22.565z"/>
	</g>
</g>
<g>
	<g>
		<path d="M52.453,19.77c-9.641,6.16-19.75,16.673-22.188,28.154c-0.201,0.947,1.583,0.915,1.912,0.266
			c5.185-10.244,12.445-20.555,21.984-27.141C55.656,20.017,53.533,19.08,52.453,19.77L52.453,19.77z"/>
	</g>
</g>
</svg>
