<?xml version="1.0" encoding="iso-8859-1"?>
<!-- Generator: Adobe Illustrator 16.0.0, SVG Export Plug-In . SVG Version: 6.00 Build 0)  -->
<!DOCTYPE svg PUBLIC "-//W3C//DTD SVG 1.1//EN" "http://www.w3.org/Graphics/SVG/1.1/DTD/svg11.dtd">
<svg version="1.1" id="Layer_1" xmlns="http://www.w3.org/2000/svg" xmlns:xlink="http://www.w3.org/1999/xlink" x="0px" y="0px"
	 width="46.897px" height="56.496px" viewBox="0 0 46.897 56.496" style="enable-background:new 0 0 46.897 56.496;"
	 xml:space="preserve">
<g>
	<g>
		<path d="M20.395,9.98c-4.996,2.978-3.246,9.53-2.134,14.473c1.941,8.632,6.24,16.514,8.4,25.034c0.49-0.85,0.98-1.699,1.471-2.549
			c-1.128,0.549-2.782,0.134-4.023-0.017c-0.537-0.066-2.134,0.307-1.784,1.197c1.655,4.211,3.624,4.398,7.812,2.188
			c1.049-0.554,1.864-1.897,1.286-3.045c-2.999-5.954-5.751-12.086-8.2-18.296C21.657,25,16.713,14.108,20.57,10.085
			C20.657,9.995,20.458,9.942,20.395,9.98L20.395,9.98z"/>
	</g>
</g>
<g>
	<g>
		<path d="M14.624,44.6c-2.294-4.204,5.672-14.014,7.686-17.135c2.181-3.378,4.483-6.677,6.787-9.971
			c1.442-2.061,3.815-4.43,4.255-6.972c0.298-1.725-2.552-0.964-3.17-0.456c-2.206,1.815-3.664,5.086-5.213,7.449
			c-2.568,3.92-5.08,7.875-7.431,11.93c-1.559,2.69-8.543,13.31-3.6,15.508C14.124,45.036,14.812,44.945,14.624,44.6L14.624,44.6z"
			/>
	</g>
</g>
</svg>
