<?xml version="1.0" encoding="iso-8859-1"?>
<!-- Generator: Adobe Illustrator 16.0.0, SVG Export Plug-In . SVG Version: 6.00 Build 0)  -->
<!DOCTYPE svg PUBLIC "-//W3C//DTD SVG 1.1//EN" "http://www.w3.org/Graphics/SVG/1.1/DTD/svg11.dtd">
<svg version="1.1" id="Layer_1" xmlns="http://www.w3.org/2000/svg" xmlns:xlink="http://www.w3.org/1999/xlink" x="0px" y="0px"
	 width="71.653px" height="61.307px" viewBox="0 0 71.653 61.307" style="enable-background:new 0 0 71.653 61.307;"
	 xml:space="preserve">
<g>
	<g>
		<path d="M31.148,22.735c-11.522-0.963-9.28,12.908-4.699,19.107c7.303,9.883,19.872,4.137,24.764-5.066
			c8.235-15.491-30.831-17.95-28.045-5.151c0.38,1.744,1.871,3.153,3.142,4.282c0.587,0.521,2.507,0.026,1.942-0.933
			c-1.026-1.741-2.551-4.795-0.779-6.573c1.688-1.693,4.978-1.753,7.181-1.806c4.324-0.104,13.164,1.064,13.896,6.634
			c0.462,3.517-2.955,6.657-5.292,8.719c-4.042,3.564-8.497,3.607-12.633,0.27c-5.393-4.352-10.371-18.923,0.53-19.432
			C31.199,22.783,31.187,22.739,31.148,22.735L31.148,22.735z"/>
	</g>
</g>
</svg>
