<?xml version="1.0" encoding="iso-8859-1"?>
<!-- Generator: Adobe Illustrator 16.0.0, SVG Export Plug-In . SVG Version: 6.00 Build 0)  -->
<!DOCTYPE svg PUBLIC "-//W3C//DTD SVG 1.1//EN" "http://www.w3.org/Graphics/SVG/1.1/DTD/svg11.dtd">
<svg version="1.1" id="Layer_1" xmlns="http://www.w3.org/2000/svg" xmlns:xlink="http://www.w3.org/1999/xlink" x="0px" y="0px"
	 width="73.229px" height="57.433px" viewBox="0 0 73.229 57.433" style="enable-background:new 0 0 73.229 57.433;"
	 xml:space="preserve">
<g>
	<g>
		<path d="M32.254,8.676c5.476,3.67,9.84,6.993,12.413,13.296c2.057,5.035,2.098,10.77,0.93,16.012
			c-1.085,4.871-3.863,9.507-8.165,12.137C31.907,53.499,25,50.271,20.319,46.97c-10.198-7.193-10.681-20.016-3.358-29.428
			c2.835-3.644,6.985-6.729,11.695-7.125c5.162-0.434,9.232,4.375,11.907,8.178c0.557,0.791,2.687,0.38,2.431-0.748
			c-3.43-15.135-19.182-12.536-27.95-3.716C4.732,24.502,4.381,41.439,17.096,49.929c11.711,7.82,25.912,5.408,30.734-8.752
			c4.191-12.311-1.944-29.292-15.534-32.539C32.275,8.633,32.218,8.652,32.254,8.676L32.254,8.676z"/>
	</g>
</g>
</svg>
