<?xml version="1.0" encoding="iso-8859-1"?>
<!-- Generator: Adobe Illustrator 16.0.0, SVG Export Plug-In . SVG Version: 6.00 Build 0)  -->
<!DOCTYPE svg PUBLIC "-//W3C//DTD SVG 1.1//EN" "http://www.w3.org/Graphics/SVG/1.1/DTD/svg11.dtd">
<svg version="1.1" id="Layer_1" xmlns="http://www.w3.org/2000/svg" xmlns:xlink="http://www.w3.org/1999/xlink" x="0px" y="0px"
	 width="73.229px" height="67.717px" viewBox="0 0 73.229 67.717" style="enable-background:new 0 0 73.229 67.717;"
	 xml:space="preserve">
<g>
	<g>
		<path d="M31.05,24.563c0.6,0.311-0.326,5.897-0.406,6.572c-0.486,4.096-1.396,8.139-2.254,12.169
			c-1.559,7.325-3.608,14.605-4.832,21.996c1.196-1.05,2.393-2.101,3.589-3.151c-0.392-0.369-0.784-0.738-1.176-1.107
			c-0.482-0.86-2.382-0.39-2.502,0.547c-0.187,1.45,0.025,2.293,0.089,3.711c0.163,3.636,5.296,1.507,5.578-1.198
			c0.987-9.464,3.332-18.775,4.425-28.242c0.386-3.346,1.054-7.236-0.026-10.521c-0.164-0.497-2.119-1.758-2.5-0.806
			C31.029,24.547,31.038,24.558,31.05,24.563L31.05,24.563z"/>
	</g>
</g>
<g>
	<g>
		<path d="M6.519,26.987c1.209,1.042,2.766,1.167,4.245,1.734c2.427,0.929,4.706,1.955,6.966,3.233
			c5.09,2.877,9.74,6.711,14.226,10.434c7.218,5.99,14.382,14.558,23.12,18.303c2.806,1.203,7.455-3.466,4.594-5.711
			c-4.864-3.816-10.285-7.019-15.269-10.714c-4.4-3.264-8.795-6.529-13.378-9.536c-5.757-3.777-17.271-11.035-24.494-7.921
			C6.442,26.846,6.46,26.938,6.519,26.987L6.519,26.987z"/>
	</g>
</g>
</svg>
