<?xml version="1.0" encoding="iso-8859-1"?>
<!-- Generator: Adobe Illustrator 16.0.0, SVG Export Plug-In . SVG Version: 6.00 Build 0)  -->
<!DOCTYPE svg PUBLIC "-//W3C//DTD SVG 1.1//EN" "http://www.w3.org/Graphics/SVG/1.1/DTD/svg11.dtd">
<svg version="1.1" id="Layer_1" xmlns="http://www.w3.org/2000/svg" xmlns:xlink="http://www.w3.org/1999/xlink" x="0px" y="0px"
	 width="46.897px" height="68.693px" viewBox="0 0 46.897 68.693" style="enable-background:new 0 0 46.897 68.693;"
	 xml:space="preserve">
<g>
	<g>
		<path d="M18.333,26.079c-9.974,4.328-11.146,15.302-3.269,22.6c8.326,7.714,23.06,2.996,25.917-7.884
			c5.35-20.369-33.212-33.31-38.13-11.457c-0.458,2.033,2.293,1.816,3.339,1.08c5.653-3.98,10.08-6.629,17.1-4.221
			c5.608,1.924,11.159,6.842,11.715,13.022c0.706,7.852-9.737,9.806-15.063,7.088c-8.467-4.321-9.311-14.951-1.558-20.188
			C18.426,26.092,18.359,26.067,18.333,26.079L18.333,26.079z"/>
	</g>
</g>
</svg>
