<?xml version="1.0" encoding="iso-8859-1"?>
<!-- Generator: Adobe Illustrator 16.0.0, SVG Export Plug-In . SVG Version: 6.00 Build 0)  -->
<!DOCTYPE svg PUBLIC "-//W3C//DTD SVG 1.1//EN" "http://www.w3.org/Graphics/SVG/1.1/DTD/svg11.dtd">
<svg version="1.1" id="Layer_1" xmlns="http://www.w3.org/2000/svg" xmlns:xlink="http://www.w3.org/1999/xlink" x="0px" y="0px"
	 width="66.33px" height="56.496px" viewBox="0 0 66.33 56.496" style="enable-background:new 0 0 66.33 56.496;"
	 xml:space="preserve">
<g>
	<g>
		<path d="M7.681,49.562c7.264-7.382,11.396-17.208,18.585-24.704c7.427-7.745,17.345-11.971,26.132-17.843
			c2.776-1.855,0.702-5.32-2.058-3.398c-8.872,6.179-18.444,10.798-26.152,18.539c-7.505,7.537-11.85,18.207-17.366,27.176
			C6.586,49.716,7.482,49.764,7.681,49.562L7.681,49.562z"/>
	</g>
</g>
<g>
	<g>
		<path d="M8.86,12.434c9.254-0.472,18.03,9.745,23.785,15.739c3.474,3.618,6.713,7.462,9.867,11.358
			c2.404,2.97,4.604,6.944,7.667,9.264c0.816,0.618,3.287-0.146,2.763-1.43c-1.576-3.868-5.434-7.353-8.138-10.463
			c-3.647-4.194-7.485-8.212-11.508-12.047C27.008,18.862,18.144,11.417,8.84,12.37C8.773,12.376,8.808,12.437,8.86,12.434
			L8.86,12.434z"/>
	</g>
</g>
</svg>
