<?xml version="1.0" encoding="iso-8859-1"?>
<!-- Generator: Adobe Illustrator 16.0.0, SVG Export Plug-In . SVG Version: 6.00 Build 0)  -->
<!DOCTYPE svg PUBLIC "-//W3C//DTD SVG 1.1//EN" "http://www.w3.org/Graphics/SVG/1.1/DTD/svg11.dtd">
<svg version="1.1" id="Layer_1" xmlns="http://www.w3.org/2000/svg" xmlns:xlink="http://www.w3.org/1999/xlink" x="0px" y="0px"
	 width="71.654px" height="68.693px" viewBox="0 0 71.654 68.693" style="enable-background:new 0 0 71.654 68.693;"
	 xml:space="preserve">
<g>
	<g>
		<path d="M20.873,33.189c1.348,4.538,4.188,8.507,5.771,12.968c0.586,1.651,1.853,5.589-0.708,6.136
			c-3.588,0.766-8.492-0.64-11.569-2.484c-5.194-3.113-4.364-10.167-2.031-14.748c3.469-6.811,9.772-8.32,16.237-4.359
			c0.68,0.417,2.937-0.023,2.167-1.148C20.362,14.371-1.65,38.129,8.968,50.641c3.717,4.38,18.083,8.009,21.161,1.262
			c1.265-2.772-1.237-6.57-2.604-8.814c-2.053-3.369-4.775-6.391-6.575-9.904C20.936,33.157,20.862,33.151,20.873,33.189
			L20.873,33.189z"/>
	</g>
</g>
</svg>
