<?xml version="1.0" encoding="iso-8859-1"?>
<!-- Generator: Adobe Illustrator 16.0.0, SVG Export Plug-In . SVG Version: 6.00 Build 0)  -->
<!DOCTYPE svg PUBLIC "-//W3C//DTD SVG 1.1//EN" "http://www.w3.org/Graphics/SVG/1.1/DTD/svg11.dtd">
<svg version="1.1" id="Layer_1" xmlns="http://www.w3.org/2000/svg" xmlns:xlink="http://www.w3.org/1999/xlink" x="0px" y="0px"
	 width="71.653px" height="56.496px" viewBox="0 0 71.653 56.496" style="enable-background:new 0 0 71.653 56.496;"
	 xml:space="preserve">
<g>
	<g>
		<path d="M39.425,19.316c3.225,0,3.225-5,0-5S36.2,19.316,39.425,19.316L39.425,19.316z"/>
	</g>
</g>
<g>
	<g>
		<path d="M9.421,10.064c5.805,3.007,10.694,8.358,15.391,12.801c3.4,3.217,6.652,7.567,10.935,9.584
			c0.403,0.19,1.548-0.009,1.065-0.637c-3.354-4.363-8.251-7.796-12.479-11.327c-4.662-3.894-9.497-7.586-14.855-10.47
			C9.438,9.993,9.363,10.034,9.421,10.064L9.421,10.064z"/>
	</g>
</g>
<g>
	<g>
		<path d="M25.339,19.897c-3.748-0.479-5.899,2.6-7.128,5.729c-1.286,3.275-2.921,8.973-0.875,12.191
			c0.301,0.472,1.419,0.473,1.575-0.146c1.046-4.147-0.445-16.975,6.3-17.008C25.794,20.66,26.001,19.981,25.339,19.897
			L25.339,19.897z"/>
	</g>
</g>
</svg>
