<?xml version="1.0" encoding="iso-8859-1"?>
<!-- Generator: Adobe Illustrator 16.0.0, SVG Export Plug-In . SVG Version: 6.00 Build 0)  -->
<!DOCTYPE svg PUBLIC "-//W3C//DTD SVG 1.1//EN" "http://www.w3.org/Graphics/SVG/1.1/DTD/svg11.dtd">
<svg version="1.1" id="Layer_1" xmlns="http://www.w3.org/2000/svg" xmlns:xlink="http://www.w3.org/1999/xlink" x="0px" y="0px"
	 width="73.229px" height="68.693px" viewBox="0 0 73.229 68.693" style="enable-background:new 0 0 73.229 68.693;"
	 xml:space="preserve">
<g>
	<g>
		<path d="M29.412,33.959c-4.351-3.867-10.263-7.322-16.267-7.12c-6.862,0.23-7.874,6.975-6.32,12.284
			c5.355,18.311,28.711,19.477,40.937,7.492c4.897-4.8,7.995-13.258,6.379-20.043c-1.345-5.647-6.419-9.078-11.734-10.502
			c-6.317-1.691-13.218-1.089-19.37,0.982c-5.239,1.764-15.875,6.881-14.931,13.74c0.281,2.049,2.274,0.742,3.281,0.867
			c1.55,0.192,4.929-3.747,6.269-4.746c2.211-1.65,4.924-2.771,7.561-3.531c4.105-1.184,8.385-1.416,12.598-0.769
			c9.976,1.533,11.985,10.128,7.154,18.159c-6.537,10.871-24.828,9.039-30.743-1.086c-1.68-2.875-5.207-8.709-0.091-9.666
			c5.013-0.938,11.019,1.486,15.228,3.972C29.385,34.008,29.445,33.988,29.412,33.959L29.412,33.959z"/>
	</g>
</g>
</svg>
