<?xml version="1.0" encoding="iso-8859-1"?>
<!-- Generator: Adobe Illustrator 16.0.0, SVG Export Plug-In . SVG Version: 6.00 Build 0)  -->
<!DOCTYPE svg PUBLIC "-//W3C//DTD SVG 1.1//EN" "http://www.w3.org/Graphics/SVG/1.1/DTD/svg11.dtd">
<svg version="1.1" id="Layer_1" xmlns="http://www.w3.org/2000/svg" xmlns:xlink="http://www.w3.org/1999/xlink" x="0px" y="0px"
	 width="71.654px" height="61.307px" viewBox="0 0 71.654 61.307" style="enable-background:new 0 0 71.654 61.307;"
	 xml:space="preserve">
<g>
	<g>
		<path d="M32.623,12.479c-6.987,5.054-11.588,12.767-9.395,21.538c1.621,6.481,7.506,10.489,14.058,9.739
			c10.253-1.174,23.665-18.163,16.297-28.172C48.008,8.01,35.829,7.093,27.34,8.531c-6.689,1.135-16.309,6.707-9.539,13.998
			c1.12,1.205,2.458,2.19,3.811,3.113c0.695,0.475,2.651-0.122,1.746-1.039c-2.076-2.104-4.948-5.356-3.886-8.584
			c0.813-2.473,4.228-3.366,6.434-3.891c6.863-1.629,15.25-0.906,21.271,2.937c9.539,6.089,1.396,18.434-4.651,23.628
			c-6.094,5.234-13.452,1.993-16.637-4.524c-3.85-7.878,0.875-16.504,6.932-21.599C32.917,12.487,32.693,12.428,32.623,12.479
			L32.623,12.479z"/>
	</g>
</g>
</svg>
