<?xml version="1.0" encoding="iso-8859-1"?>
<!-- Generator: Adobe Illustrator 16.0.0, SVG Export Plug-In . SVG Version: 6.00 Build 0)  -->
<!DOCTYPE svg PUBLIC "-//W3C//DTD SVG 1.1//EN" "http://www.w3.org/Graphics/SVG/1.1/DTD/svg11.dtd">
<svg version="1.1" id="Layer_1" xmlns="http://www.w3.org/2000/svg" xmlns:xlink="http://www.w3.org/1999/xlink" x="0px" y="0px"
	 width="59.213px" height="62.992px" viewBox="0 0 59.213 62.992" style="enable-background:new 0 0 59.213 62.992;"
	 xml:space="preserve">
<g>
	<g>
		<path d="M5.683,16.456c-4.12,11.545-5.558,23.024,6.139,30.446c7.92,5.025,19.704,3.759,23.351-5.857
			c3.486-9.191-0.513-18.164-8.571-23.235c-8.084-5.088-18.32-3.935-23.425,4.45c-3.391,5.57,3.935,8.623,6.624,2.938
			c2.192-4.633,8.012-3.773,11.949-1.971c6.215,2.845,9.551,8.992,8.436,15.69c-1.563,9.389-12.729,5.288-17.603,1.545
			c-7.95-6.105-4.271-16.022-3.328-24.21C9.468,14.384,6.125,15.217,5.683,16.456L5.683,16.456z"/>
	</g>
</g>
</svg>
