<?xml version="1.0" encoding="iso-8859-1"?>
<!-- Generator: Adobe Illustrator 16.0.0, SVG Export Plug-In . SVG Version: 6.00 Build 0)  -->
<!DOCTYPE svg PUBLIC "-//W3C//DTD SVG 1.1//EN" "http://www.w3.org/Graphics/SVG/1.1/DTD/svg11.dtd">
<svg version="1.1" id="Layer_1" xmlns="http://www.w3.org/2000/svg" xmlns:xlink="http://www.w3.org/1999/xlink" x="0px" y="0px"
	 width="71.653px" height="66px" viewBox="0 0 71.653 66" style="enable-background:new 0 0 71.653 66;" xml:space="preserve">
<g>
	<g>
		<path d="M24.68,25.938c-3.522-1.889-4.714,7.045-4.971,8.639c-1.023,6.37,1.662,12.776,6.958,16.478
			c9.199,6.429,22.94-3.101,23.819-13.188c1.437-16.476-33.275-22.085-30.021-1.516c0.137,0.863,2.023,0.705,2.077-0.12
			c0.42-6.467,3.85-10.479,10.533-9.606c5.099,0.667,10.389,3.838,12.567,8.602c3.357,7.344-5.883,15.562-12.664,15.164
			c-5.476-0.322-8.961-5.79-10.379-10.462c-0.246-0.81-0.973-14.783,2.045-13.947C24.676,25.989,24.722,25.961,24.68,25.938
			L24.68,25.938z"/>
	</g>
</g>
</svg>
