<?xml version="1.0" encoding="iso-8859-1"?>
<!-- Generator: Adobe Illustrator 16.0.0, SVG Export Plug-In . SVG Version: 6.00 Build 0)  -->
<!DOCTYPE svg PUBLIC "-//W3C//DTD SVG 1.1//EN" "http://www.w3.org/Graphics/SVG/1.1/DTD/svg11.dtd">
<svg version="1.1" id="Layer_1" xmlns="http://www.w3.org/2000/svg" xmlns:xlink="http://www.w3.org/1999/xlink" x="0px" y="0px"
	 width="67.717px" height="67.717px" viewBox="0 0 67.717 67.717" style="enable-background:new 0 0 67.717 67.717;"
	 xml:space="preserve">
<g>
	<g>
		<path d="M13.773,22.989c1.642-1.015,7.823,3.663,9.152,4.517c5.243,3.372,10.452,6.726,15.514,10.374
			c8.331,6.004,17.252,12.026,24.503,19.353c0.5-1.368,0.999-2.735,1.499-4.102c-1.38,0.704-2.827,1.175-4.343,1.415
			c-0.771,0.162-1.433,1.125-0.328,1.397c1.224,0.3,2.112,0.607,3.172,1.291c2.238,1.442,6.224-1.825,3.975-3.961
			c-8.974-8.521-20.172-15.326-30.624-21.829c-1.389-0.864-22.442-13.244-22.584-8.478C13.708,22.993,13.755,23,13.773,22.989
			L13.773,22.989z"/>
	</g>
</g>
<g>
	<g>
		<path d="M46.133,23.398c-6.089-1.683-12.26,5.834-15.453,9.921c-5.041,6.45-8.771,13.83-13.227,20.672
			c2.048,0.72,4.096,1.44,6.144,2.161C29.815,38.592,38.841,22.17,49.46,6.905c2.999-4.312-2.249-8.463-5.281-4.094
			C32.72,19.33,23.202,36.951,16.499,55.928c-1.412,4,4.217,5.128,6.144,2.161c3.812-5.871,6.508-12.359,9.899-18.475
			c3.48-6.275,7.325-10.627,13.464-14.118C46.806,25.041,47.379,23.743,46.133,23.398L46.133,23.398z"/>
	</g>
</g>
</svg>
