<?xml version="1.0" encoding="iso-8859-1"?>
<!-- Generator: Adobe Illustrator 16.0.0, SVG Export Plug-In . SVG Version: 6.00 Build 0)  -->
<!DOCTYPE svg PUBLIC "-//W3C//DTD SVG 1.1//EN" "http://www.w3.org/Graphics/SVG/1.1/DTD/svg11.dtd">
<svg version="1.1" id="Layer_1" xmlns="http://www.w3.org/2000/svg" xmlns:xlink="http://www.w3.org/1999/xlink" x="0px" y="0px"
	 width="71.654px" height="67.717px" viewBox="0 0 71.654 67.717" style="enable-background:new 0 0 71.654 67.717;"
	 xml:space="preserve">
<g>
	<g>
		<path d="M-60.056,27.705c9.715,3.639,19.234,7.388,28.473,12.159c9.164,4.732,18.987,10.194,25.83,18.078
			c2.434,2.804,7.914-2.466,5.213-5.037c-7.864-7.484-18.35-12.481-28.109-16.945c-9.302-4.255-19.847-9.042-30.161-9.935
			C-59.637,25.954-61.554,27.144-60.056,27.705L-60.056,27.705z"/>
	</g>
</g>
<g>
	<g>
		<path d="M27.973,21.863c-0.307-0.443-0.614-0.887-0.921-1.331c-0.774,0.149-1.548,0.299-2.323,0.449
			c2.2,2.706,5.633,4.892,8.227,7.209c3.597,3.215,7.144,6.49,10.693,9.756c6.786,6.245,14.579,11.093,20.658,18.094
			c2.319,2.671,6.889-2.097,4.374-3.567c-1.051-0.707-2.117-1.39-3.199-2.049c-0.794-0.491-3.113-0.001-2.658,1.311
			c0.437,1.257,0.79,2.533,1.256,3.779c1.666-0.875,3.331-1.75,4.997-2.625c-5.984-6.447-13.977-10.524-20.621-16.19
			c-3.723-3.174-7.468-6.315-11.276-9.387c-2.881-2.324-7.329-7.418-11.166-7.63c-0.859-0.047-2.028,1.024-0.906,1.604
			c0.567,0.345,1.088,0.75,1.563,1.216C27.134,22.895,28.551,22.552,27.973,21.863L27.973,21.863z"/>
	</g>
</g>
<g>
	<g>
		<path d="M45.837,23.467c-0.604-0.635-1.208-1.27-1.811-1.904c-0.421-1.667-4.023-0.473-3.486,1.236
			c3.232,10.299,7.303,20.191,9.675,30.767c0.588,2.625,4.61,0.806,4.609-1.353C54.822,38.45,50.84,22.092,41.019,11.95
			c-1.68-1.735-5.794,1.61-3.77,3.141c0.324,0.245,0.209,1.375,0.204,1.679c-0.011,0.716,1.457,0.609,1.698,0.116
			c0.326-0.799,0.793-1.512,1.401-2.138c-1.101,0.114-2.202,0.229-3.303,0.342c9.117,9.756,12.645,25.462,12.966,38.476
			c1.537-0.451,3.073-0.902,4.609-1.353c-2.662-10.419-6.276-20.887-10.798-30.651c-0.436,0.617-0.871,1.233-1.306,1.85
			c0.81,0.229,1.62,0.458,2.43,0.688C45.544,24.284,46.391,23.843,45.837,23.467L45.837,23.467z"/>
	</g>
</g>
</svg>
