<?xml version="1.0" encoding="iso-8859-1"?>
<!-- Generator: Adobe Illustrator 16.0.0, SVG Export Plug-In . SVG Version: 6.00 Build 0)  -->
<!DOCTYPE svg PUBLIC "-//W3C//DTD SVG 1.1//EN" "http://www.w3.org/Graphics/SVG/1.1/DTD/svg11.dtd">
<svg version="1.1" id="Layer_1" xmlns="http://www.w3.org/2000/svg" xmlns:xlink="http://www.w3.org/1999/xlink" x="0px" y="0px"
	 width="71.654px" height="63.976px" viewBox="0 0 71.654 63.976" style="enable-background:new 0 0 71.654 63.976;"
	 xml:space="preserve">
<g>
	<g>
		<path d="M32.987,56.023c-3.596-8.58-4.686-17.592-4.947-26.824c-0.133-4.7,0.038-9.408,0.219-14.104
			c0.157-4.058,0.81-9.103-0.779-12.916c-0.313-0.751-1.724-0.346-1.939,0.273c-1.44,4.129-1.187,9.054-1.182,13.384
			c0.006,5.091,0.133,10.176,0.516,15.253c0.661,8.759,2.438,17.856,7.823,24.993C32.756,56.16,33.044,56.16,32.987,56.023
			L32.987,56.023z"/>
	</g>
</g>
<g>
	<g>
		<path d="M17.759,26.182c2.336,2.018,5.595,3.38,8.171,5.124c3.407,2.305,6.688,4.799,10.032,7.194
			c4.543,3.253,11.581,9.42,17.611,7.811c0.388-0.104,0.737-0.483,0.414-0.849c-1.648-1.863-4.401-2.248-6.597-3.257
			c-3.644-1.675-7.068-3.874-10.458-6c-5.397-3.384-12.438-9.759-19.05-10.187C17.786,26.011,17.653,26.09,17.759,26.182
			L17.759,26.182z"/>
	</g>
</g>
</svg>
