<?xml version="1.0" encoding="utf-8"?>
<!-- Generator: Adobe Illustrator 16.0.0, SVG Export Plug-In . SVG Version: 6.00 Build 0)  -->
<!DOCTYPE svg PUBLIC "-//W3C//DTD SVG 1.1//EN" "http://www.w3.org/Graphics/SVG/1.1/DTD/svg11.dtd">
<svg version="1.1" id="Layer_2" xmlns="http://www.w3.org/2000/svg" xmlns:xlink="http://www.w3.org/1999/xlink" x="0px" y="0px"
	 width="71.654px" height="201.858px" viewBox="0 0 71.654 201.858" enable-background="new 0 0 71.654 201.858"
	 xml:space="preserve">
<g>
	<g>
		<path d="M37.906,24.029c4.017,8.285,4.88,17.098,4.944,26.209c0.09,12.76-1.402,25.553-2.857,38.21
			c-1.245,10.828-2.753,21.647-3.444,32.53c-0.446,7.02-0.38,14.056-0.873,21.08c-0.67,9.557-2.61,18.793-3.984,28.237
			c-0.452,3.104,4.306,1.561,4.883-0.59c4.188-15.625,2.885-32.285,3.41-48.266c0.378-11.516,1.911-23.005,3.029-34.464
			c1.238-12.689,2.31-25.445,1.882-38.206c-0.262-7.817-0.588-18.922-6.557-24.836C38.247,23.842,37.803,23.817,37.906,24.029
			L37.906,24.029z"/>
	</g>
</g>
</svg>
