<?xml version="1.0" encoding="utf-8"?>
<!-- Generator: Adobe Illustrator 16.0.0, SVG Export Plug-In . SVG Version: 6.00 Build 0)  -->
<!DOCTYPE svg PUBLIC "-//W3C//DTD SVG 1.1//EN" "http://www.w3.org/Graphics/SVG/1.1/DTD/svg11.dtd">
<svg version="1.1" id="Layer_2" xmlns="http://www.w3.org/2000/svg" xmlns:xlink="http://www.w3.org/1999/xlink" x="0px" y="0px"
	 width="71.654px" height="238px" viewBox="0 0 71.654 238" enable-background="new 0 0 71.654 238" xml:space="preserve">
<g>
	<g>
		<path d="M42.821,10.991c0.312,19.145-5.42,37.604-7.573,56.501c-2.164,18.987-2.284,38.438-3.4,57.522
			c-1.055,18.035-1.619,35.559,0.201,53.558c1.78,17.605,4.449,35.815,0.449,53.311c-0.477,2.085,2.968,1.593,3.35-0.102
			c3.732-16.578,1.565-33.718-0.238-50.402c-0.959-8.878-1.868-17.758-1.985-26.692c-0.131-9.95,0.706-19.974,1.243-29.905
			c1.063-19.68,1.407-39.55,3.102-59.176c1.581-18.301,6.535-36.091,5.479-54.597C43.43,10.732,42.817,10.716,42.821,10.991
			L42.821,10.991z"/>
	</g>
</g>
</svg>
