<?xml version="1.0" encoding="utf-8"?>
<!-- Generator: Adobe Illustrator 16.0.0, SVG Export Plug-In . SVG Version: 6.00 Build 0)  -->
<!DOCTYPE svg PUBLIC "-//W3C//DTD SVG 1.1//EN" "http://www.w3.org/Graphics/SVG/1.1/DTD/svg11.dtd">
<svg version="1.1" id="Layer_2" xmlns="http://www.w3.org/2000/svg" xmlns:xlink="http://www.w3.org/1999/xlink" x="0px" y="0px"
	 width="33.333px" height="188.142px" viewBox="0 0 33.333 188.142" enable-background="new 0 0 33.333 188.142"
	 xml:space="preserve">
<g>
	<g>
		<path d="M12.585,184.121c3.265-28.465,0.169-57.68-2.553-86.068C7.097,67.447,3.465,36.838,3.454,6.049
			c0-1.521-2.915-1.116-2.908,0.187c0.135,29.656,3.583,59.149,6.598,88.614c3.048,29.793,4.812,59.364,4.271,89.314
			C11.405,184.694,12.526,184.635,12.585,184.121L12.585,184.121z"/>
	</g>
</g>
<g>
	<g>
		<path d="M17.739,416.941c-14.666-46.463-3.96-94.287-6.64-141.787c-1.247-22.095-4.976-44.123-4.784-66.277
			c0.022-2.582,0.44-28.746-5.739-23.993c-0.491,0.378,0.229,0.719,0.593,0.626c2.787-0.705,2.591,26.954,2.58,29.652
			c-0.102,23.672,4.946,47.188,5.021,70.892c0.138,43.478-7.889,89.4,7.491,131.29C16.49,417.967,17.973,417.681,17.739,416.941
			L17.739,416.941z"/>
	</g>
</g>
</svg>
