<?xml version="1.0" encoding="utf-8"?>
<!-- Generator: Adobe Illustrator 16.0.0, SVG Export Plug-In . SVG Version: 6.00 Build 0)  -->
<!DOCTYPE svg PUBLIC "-//W3C//DTD SVG 1.1//EN" "http://www.w3.org/Graphics/SVG/1.1/DTD/svg11.dtd">
<svg version="1.1" id="Layer_2" xmlns="http://www.w3.org/2000/svg" xmlns:xlink="http://www.w3.org/1999/xlink" x="0px" y="0px"
	 width="56.88px" height="188.142px" viewBox="0 0 56.88 188.142" enable-background="new 0 0 56.88 188.142" xml:space="preserve">
<g>
	<g>
		<path d="M32.901,183.154c3.645-14.786-0.271-31.033-0.171-46.07c0.129-19.415,2.717-38.729,3.225-58.132
			c0.183-6.992,0.264-14.047-1.062-20.936c-1.199-6.231-3.221-12.311-5.105-18.359c-3.422-10.984-9.18-25.015-5.009-36.494
			c0.37-1.019-1.885-0.964-2.223-0.039c-3.809,10.429,0.621,22.776,3.663,32.834c1.886,6.238,3.913,12.431,5.5,18.755
			c2.012,8.014,2.016,16.01,1.861,24.24c-0.344,18.248-2.45,36.409-2.905,54.653c-0.413,16.561,2.246,32.953,1.759,49.525
			C32.427,183.346,32.854,183.347,32.901,183.154L32.901,183.154z"/>
	</g>
</g>
</svg>
