<?xml version="1.0" encoding="utf-8"?>
<!-- Generator: Adobe Illustrator 16.0.0, SVG Export Plug-In . SVG Version: 6.00 Build 0)  -->
<!DOCTYPE svg PUBLIC "-//W3C//DTD SVG 1.1//EN" "http://www.w3.org/Graphics/SVG/1.1/DTD/svg11.dtd">
<svg version="1.1" id="Layer_2" xmlns="http://www.w3.org/2000/svg" xmlns:xlink="http://www.w3.org/1999/xlink" x="0px" y="0px"
	 width="67.717px" height="188.142px" viewBox="0 0 67.717 188.142" enable-background="new 0 0 67.717 188.142"
	 xml:space="preserve">
<g>
	<g>
		<path d="M37.354-9.76c3.283,8.942,0.607,19.56-1.342,28.538c-2.267,10.443-3.544,20.803-4.519,31.448
			c-2.048,22.382-3.452,45.431-2.519,67.909c0.555,13.324,2.706,26.584,3.694,39.882c0.54,7.273,0.854,14.586,0.454,21.875
			c-0.282,5.159-0.956,10.562-4.072,14.854c-1.468,2.021,2.175,2.292,3.282,1.178c3.463-3.486,4.029-9.216,4.53-13.868
			c0.753-6.997,0.412-14.128-0.006-21.134c-0.854-14.3-3.115-28.479-3.972-42.772c-1.392-23.25,0.56-47.268,2.39-70.448
			c0.824-10.434,2.151-20.509,4.246-30.753c1.848-9.033,3.42-18.475-1.191-26.903C38.135-10.313,37.178-10.243,37.354-9.76
			L37.354-9.76z"/>
	</g>
</g>
</svg>
