<?xml version="1.0" encoding="utf-8"?>
<!-- Generator: Adobe Illustrator 16.0.0, SVG Export Plug-In . SVG Version: 6.00 Build 0)  -->
<!DOCTYPE svg PUBLIC "-//W3C//DTD SVG 1.1//EN" "http://www.w3.org/Graphics/SVG/1.1/DTD/svg11.dtd">
<svg version="1.1" id="Layer_2" xmlns="http://www.w3.org/2000/svg" xmlns:xlink="http://www.w3.org/1999/xlink" x="0px" y="0px"
	 width="71.654px" height="201.858px" viewBox="0 0 71.654 201.858" enable-background="new 0 0 71.654 201.858"
	 xml:space="preserve">
<g>
	<g>
		<path d="M39.374,194.051c8.162-30.587,8.898-63.107,7.043-94.545c-0.961-16.286-4.045-32.051-6.1-48.172
			c-1.099-8.62-0.684-17.275,0.322-25.878c0.935-7.985,1.428-16.529,3.186-24.351c0.506-2.252-3.655-1.562-3.424,0.135
			c1.06,7.766-0.96,16.419-1.865,24.15c-0.888,7.579-1.174,15.135-0.563,22.748c0.65,8.101,2.662,16.066,3.862,24.098
			c1.203,8.052,2.03,16.158,2.659,24.273c2.499,32.205,1.903,65.922-5.578,97.48C38.874,194.168,39.329,194.221,39.374,194.051
			L39.374,194.051z"/>
	</g>
</g>
</svg>
