<?xml version="1.0" encoding="utf-8"?>
<!-- Generator: Adobe Illustrator 16.0.0, SVG Export Plug-In . SVG Version: 6.00 Build 0)  -->
<!DOCTYPE svg PUBLIC "-//W3C//DTD SVG 1.1//EN" "http://www.w3.org/Graphics/SVG/1.1/DTD/svg11.dtd">
<svg version="1.1" id="Layer_2" xmlns="http://www.w3.org/2000/svg" xmlns:xlink="http://www.w3.org/1999/xlink" x="0px" y="0px"
	 width="66.33px" height="201.858px" viewBox="0 0 66.33 201.858" enable-background="new 0 0 66.33 201.858" xml:space="preserve">
<g>
	<g>
		<path d="M31.91,39c0.204-1.369,0.462-2.714,0.464-4.101c0.001-0.748-1.682-0.641-1.774,0.038
			c-1.489,10.995,0.517,21.944,2.012,32.828c1.776,12.924,2.273,26.082,3.014,39.098c1.463,25.718,0.853,51.998,4.963,77.466
			c0.375,2.325,4.562,0.667,3.715-1.027c-5.538-11.076-3.948-24.405-4.856-36.429c-0.963-12.744-1.085-25.593-1.78-38.358
			c-0.681-12.525-1.311-25.126-2.749-37.591c-1.376-11.931-4.163-23.801-2.56-35.86c-0.591,0.012-1.183,0.025-1.774,0.038
			c0.001,1.318,0.263,2.6,0.464,3.899C31.109,39.381,31.853,39.385,31.91,39L31.91,39z"/>
	</g>
</g>
</svg>
