<?xml version="1.0" encoding="utf-8"?>
<!-- Generator: Adobe Illustrator 16.0.0, SVG Export Plug-In . SVG Version: 6.00 Build 0)  -->
<!DOCTYPE svg PUBLIC "-//W3C//DTD SVG 1.1//EN" "http://www.w3.org/Graphics/SVG/1.1/DTD/svg11.dtd">
<svg version="1.1" id="Layer_2" xmlns="http://www.w3.org/2000/svg" xmlns:xlink="http://www.w3.org/1999/xlink" x="0px" y="0px"
	 width="71.653px" height="188.142px" viewBox="0 0 71.653 188.142" enable-background="new 0 0 71.653 188.142"
	 xml:space="preserve">
<g>
	<g>
		<path d="M34.819,6.269c4.339,13.706,3.504,28.323,1.698,42.396c-1.869,14.565-3.92,28.86-4.506,43.569
			c-0.609,15.281,0.137,30.504,0.314,45.778c0.176,15.174,1.498,30.313-2.03,45.239c-0.343,1.451,2.672,1.099,2.983-0.219
			c3.519-14.89,2.301-30.091,2.03-45.238c-0.284-15.878-0.921-31.713-0.366-47.597c0.531-15.212,2.898-30.014,4.636-45.091
			c1.52-13.185,1.577-26.61-2.881-39.261C36.447,5.133,34.578,5.508,34.819,6.269L34.819,6.269z"/>
	</g>
</g>
</svg>
