<?xml version="1.0" encoding="utf-8"?>
<!-- Generator: Adobe Illustrator 16.0.0, SVG Export Plug-In . SVG Version: 6.00 Build 0)  -->
<!DOCTYPE svg PUBLIC "-//W3C//DTD SVG 1.1//EN" "http://www.w3.org/Graphics/SVG/1.1/DTD/svg11.dtd">
<svg version="1.1" id="Layer_2" xmlns="http://www.w3.org/2000/svg" xmlns:xlink="http://www.w3.org/1999/xlink" x="0px" y="0px"
	 width="56.88px" height="238px" viewBox="0 0 56.88 238" enable-background="new 0 0 56.88 238" xml:space="preserve">
<g>
	<g>
		<path d="M29.364,8.045c5.254,17.33,3.311,36.211,2.027,53.975c-1.297,17.95-0.438,35.792-0.023,53.765
			c0.471,20.381,1.34,40.705,2.322,61.063c0.947,19.617,0.731,39.066,3.471,58.571c0.196,1.396,3.404,0.627,3.011-0.838
			c-4.877-18.166-3.551-37.72-4.287-56.362c-0.801-20.29-1.898-40.534-2.351-60.844c-0.425-19.037-1.097-37.895-0.011-56.919
			c0.998-17.477,2.517-35.725-3.554-52.501C29.882,7.712,29.275,7.753,29.364,8.045L29.364,8.045z"/>
	</g>
</g>
</svg>
