<?xml version="1.0" encoding="utf-8"?>
<!-- Generator: Adobe Illustrator 16.0.0, SVG Export Plug-In . SVG Version: 6.00 Build 0)  -->
<!DOCTYPE svg PUBLIC "-//W3C//DTD SVG 1.1//EN" "http://www.w3.org/Graphics/SVG/1.1/DTD/svg11.dtd">
<svg version="1.1" id="Layer_2" xmlns="http://www.w3.org/2000/svg" xmlns:xlink="http://www.w3.org/1999/xlink" x="0px" y="0px"
	 width="66.33px" height="238px" viewBox="0 0 66.33 238" enable-background="new 0 0 66.33 238" xml:space="preserve">
<g>
	<g>
		<path d="M31.702,11.065c2.452,21.855,2.648,43.482,1.867,65.444c-0.759,21.364-1.988,42.724-0.644,64.092
			c1.138,18.091,4.869,35.189,10.624,52.293c4.767,14.167,8.825,29.494,2.751,43.896c-0.547,1.298,1.587,1.301,2.201,0.636
			c10.016-10.835,3.401-27.738-0.622-39.858c-2.414-7.27-5.301-14.386-7.367-21.77c-2.724-9.738-3.931-19.997-4.78-30.046
			c-3.777-44.661,7.178-90.637-2.473-134.817C33.109,10.253,31.622,10.354,31.702,11.065L31.702,11.065z"/>
	</g>
</g>
</svg>
