<?xml version="1.0" encoding="utf-8"?>
<!-- Generator: Adobe Illustrator 16.0.0, SVG Export Plug-In . SVG Version: 6.00 Build 0)  -->
<!DOCTYPE svg PUBLIC "-//W3C//DTD SVG 1.1//EN" "http://www.w3.org/Graphics/SVG/1.1/DTD/svg11.dtd">
<svg version="1.1" id="Layer_2" xmlns="http://www.w3.org/2000/svg" xmlns:xlink="http://www.w3.org/1999/xlink" x="0px" y="0px"
	 width="71.653px" height="238px" viewBox="0 0 71.653 238" enable-background="new 0 0 71.653 238" xml:space="preserve">
<g>
	<g>
		<path d="M35.819,6.127c0.807,10.698,1.108,21.462,0.645,32.183c-0.496,11.475-2.185,22.802-2.312,34.305
			c-0.246,22.376,2.906,44.639,3.633,66.981c0.265,8.13,0.36,16.074,1.431,24.155c1.094,8.255,2.686,16.445,4.288,24.612
			c1.668,8.508,3.45,16.997,4.871,25.551c0.953,5.737,0.889,11.725,2.116,17.369c0.262,1.209,2.348,0.616,2.601-0.319
			c1.41-5.229,0.011-11.19-0.799-16.445c-1.199-7.773-2.796-15.484-4.324-23.197c-3.475-17.538-5.956-34.511-6.41-52.378
			c-0.567-22.333-3.789-44.507-3.809-66.867c-0.011-11.45,1.718-22.744,2.079-34.17c0.34-10.754-0.31-21.424-2.071-32.033
			C37.609,4.989,35.751,5.236,35.819,6.127L35.819,6.127z"/>
	</g>
</g>
</svg>
