<?xml version="1.0" encoding="utf-8"?>
<!-- Generator: Adobe Illustrator 16.0.0, SVG Export Plug-In . SVG Version: 6.00 Build 0)  -->
<!DOCTYPE svg PUBLIC "-//W3C//DTD SVG 1.1//EN" "http://www.w3.org/Graphics/SVG/1.1/DTD/svg11.dtd">
<svg version="1.1" id="Layer_1" xmlns="http://www.w3.org/2000/svg" xmlns:xlink="http://www.w3.org/1999/xlink" x="0px" y="0px"
	 width="188.843px" height="83.331px" viewBox="0 0 188.843 83.331" enable-background="new 0 0 188.843 83.331"
	 xml:space="preserve">
<g>
	<g>
		<path d="M167.192,20.375c-4.938-0.448-10.063,0.042-15.025,0.111c-6.324,0.088-12.648-0.027-18.973,0.062
			c-12.447,0.175-24.697,2.162-36.99,3.952c-11.272,1.642-22.202,4.363-33.31,6.788c-9.195,2.008-19.572,3.944-27.596,9.132
			c-2.826,1.827-2.322,7.601,1.669,5.7c8.519-4.059,17.041-6.945,26.192-9.282c10.868-2.774,21.569-5.738,32.625-7.744
			c12.152-2.205,24.227-4.348,36.586-4.881c11.229-0.484,23.575,0.862,34.514-2.149C167.708,21.836,168.583,20.5,167.192,20.375
			L167.192,20.375z"/>
	</g>
</g>
</svg>
