<?xml version="1.0" encoding="utf-8"?>
<!-- Generator: Adobe Illustrator 16.0.0, SVG Export Plug-In . SVG Version: 6.00 Build 0)  -->
<!DOCTYPE svg PUBLIC "-//W3C//DTD SVG 1.1//EN" "http://www.w3.org/Graphics/SVG/1.1/DTD/svg11.dtd">
<svg version="1.1" id="Layer_1" xmlns="http://www.w3.org/2000/svg" xmlns:xlink="http://www.w3.org/1999/xlink" x="0px" y="0px"
	 width="188.843px" height="67.717px" viewBox="0 0 188.843 67.717" enable-background="new 0 0 188.843 67.717"
	 xml:space="preserve">
<g>
	<g>
		<path d="M26.663,23.234c4.572,5.839,14.284,6.909,21.041,7.885c9.153,1.322,18.463,1.685,27.696,1.979
			c14.718,0.469,29.348,1.886,43.976,3.522c8.178,0.915,16.381,1.646,24.55,2.611c7.676,0.906,16.747,2.13,23.558,6.016
			c7.034,4.014,8.887-11.904,1.592-8.58c-8.32,3.792-21.898-0.083-31.224-0.68c-7.767-0.497-15.532-1.587-23.275-2.371
			c-12.64-1.279-25.288-2.219-37.989-2.559c-8.641-0.231-17.27-0.34-25.881-1.173c-7.055-0.682-17.795-1.394-22.684-7.334
			C27.587,22.021,26.103,22.518,26.663,23.234L26.663,23.234z"/>
	</g>
</g>
<g>
	<g>
		<path d="M-170.165,38.117c-2.034,0.193-3.952-0.314-5.753-1.522c-0.463,0.508-0.926,1.016-1.39,1.524
			c16.79-0.752,33.528-2.512,50.335-3.206c16.468-0.68,32.946-1.1,49.413-1.807c13.474-0.579,26.579-2.149,39.897-4.231
			c13.414-2.097,29.116-5.565,42.549-2.045c2.184,0.572,4.472-3.139,1.912-3.377c-27.433-2.55-54.071,5.268-81.393,6.614
			c-17.117,0.844-34.249,1.367-51.37,2.133c-17.07,0.765-34.535,1.165-51.409,4.014c-0.825,0.139-1.76,1.388-0.584,1.803
			c2.691,0.949,4.999,0.372,7.807,0.149C-170.096,38.163-170.125,38.117-170.165,38.117L-170.165,38.117z"/>
	</g>
</g>
</svg>
