<?xml version="1.0" encoding="utf-8"?>
<!-- Generator: Adobe Illustrator 16.0.0, SVG Export Plug-In . SVG Version: 6.00 Build 0)  -->
<!DOCTYPE svg PUBLIC "-//W3C//DTD SVG 1.1//EN" "http://www.w3.org/Graphics/SVG/1.1/DTD/svg11.dtd">
<svg version="1.1" id="Layer_1" xmlns="http://www.w3.org/2000/svg" xmlns:xlink="http://www.w3.org/1999/xlink" x="0px" y="0px"
	 width="188.843px" height="62.992px" viewBox="0 0 188.843 62.992" enable-background="new 0 0 188.843 62.992"
	 xml:space="preserve">
<g>
	<g>
		<path d="M28.081,42.688c9.379-3.74,19.585-4.574,29.572-5.042c12.196-0.572,24.446,0.088,36.604,1.065
			c10.725,0.862,21.373,2.445,32.088,3.345c7.513,0.631,15.076,0.622,22.607,0.848c7.216,0.217,16.886-0.293,23.552,2.816
			c2.331,1.088,4.734-2.567,1.825-2.804c-6.999-0.568-13.826-2.01-20.896-2.309c-8.121-0.343-16.251-0.282-24.368-0.746
			c-11.751-0.671-23.449-2.481-35.195-3.346C81.478,35.606,69.016,35.172,56.6,35.83c-9.771,0.518-20.314,1.783-29.09,6.38
			C27.032,42.46,27.781,42.809,28.081,42.688L28.081,42.688z"/>
	</g>
</g>
</svg>
