<?xml version="1.0" encoding="utf-8"?>
<!-- Generator: Adobe Illustrator 16.0.0, SVG Export Plug-In . SVG Version: 6.00 Build 0)  -->
<!DOCTYPE svg PUBLIC "-//W3C//DTD SVG 1.1//EN" "http://www.w3.org/Graphics/SVG/1.1/DTD/svg11.dtd">
<svg version="1.1" id="Layer_1" xmlns="http://www.w3.org/2000/svg" xmlns:xlink="http://www.w3.org/1999/xlink" x="0px" y="0px"
	 width="209.637px" height="83.331px" viewBox="0 0 209.637 83.331" enable-background="new 0 0 209.637 83.331"
	 xml:space="preserve">
<g>
	<g>
		<path d="M193.413,46.769c-13.577,3.87-27.999,1.542-41.781,0.181c-13.193-1.302-26.004,0.257-39.062,2.128
			c-13.749,1.969-27.899,4.193-41.743,1.915c-12.417-2.043-25.3-4.29-37.519-0.072c-2.563,0.885-2.884,5.54,0.395,4.569
			c14.512-4.298,27.817-0.056,42.364,0.646c14.476,0.699,28.881-2.227,43.12-4.375c13.358-2.015,26.007-1.853,39.437-1.059
			c11.945,0.706,24.135,1.136,35.675-2.525C195.796,47.701,194.597,46.431,193.413,46.769L193.413,46.769z"/>
	</g>
</g>
</svg>
