<?xml version="1.0" encoding="iso-8859-1"?>
<!-- Generator: Adobe Illustrator 16.0.0, SVG Export Plug-In . SVG Version: 6.00 Build 0)  -->
<!DOCTYPE svg PUBLIC "-//W3C//DTD SVG 1.1//EN" "http://www.w3.org/Graphics/SVG/1.1/DTD/svg11.dtd">
<svg version="1.1" id="Layer_1" xmlns="http://www.w3.org/2000/svg" xmlns:xlink="http://www.w3.org/1999/xlink" x="0px" y="0px"
	 width="71.653px" height="62.992px" viewBox="0 0 71.653 62.992" style="enable-background:new 0 0 71.653 62.992;"
	 xml:space="preserve">
<g>
	<g>
		<path d="M30.023,17.456c-7.301,0.512-7.408,9.192-6.14,14.615c1.694,7.248,6.877,16.584,15.275,16.978
			C49.213,49.52,57.576,37.29,55.502,28.062c-2.591-11.53-19.218-17.438-28.988-11.724c-3.531,2.066-3.338,9.244,1.779,7.755
			c7.559-2.199,16.722-1.539,20.455,6.655c2.534,5.56-3.865,13.909-9.877,12.17c-4.597-1.33-7.831-6.869-9.615-10.914
			c-1.447-3.279-4.13-11.958,1.194-13.299C31.576,18.422,30.939,17.392,30.023,17.456L30.023,17.456z"/>
	</g>
</g>
</svg>
