<?xml version="1.0" encoding="iso-8859-1"?>
<!-- Generator: Adobe Illustrator 16.0.0, SVG Export Plug-In . SVG Version: 6.00 Build 0)  -->
<!DOCTYPE svg PUBLIC "-//W3C//DTD SVG 1.1//EN" "http://www.w3.org/Graphics/SVG/1.1/DTD/svg11.dtd">
<svg version="1.1" id="Layer_1" xmlns="http://www.w3.org/2000/svg" xmlns:xlink="http://www.w3.org/1999/xlink" x="0px" y="0px"
	 width="66.33px" height="68.693px" viewBox="0 0 66.33 68.693" style="enable-background:new 0 0 66.33 68.693;"
	 xml:space="preserve">
<g>
	<g>
		<path d="M26.971,22.687c-10.994,4.249-9.639,19.647,1.156,23.56c8.671,3.143,22.169-4.457,20.429-14.704
			c-1.401-8.245-12.427-11.872-19.609-11.585c-9.779,0.39-17.647,8.662-13.767,18.622c0.623,1.598,3.646,0.558,3.649-0.974
			c0.014-6.511,0.706-12.441,8.215-13.343c5.422-0.65,12.427,1.653,15.788,6.118c5.361,7.119-5.311,15.1-12.015,13.532
			c-4.228-0.988-7.501-4.886-8.829-8.837c-1.722-5.125,1.196-9.44,5.555-11.911C28.021,22.895,27.265,22.572,26.971,22.687
			L26.971,22.687z"/>
	</g>
</g>
</svg>
