<?xml version="1.0" encoding="iso-8859-1"?>
<!-- Generator: Adobe Illustrator 16.0.0, SVG Export Plug-In . SVG Version: 6.00 Build 0)  -->
<!DOCTYPE svg PUBLIC "-//W3C//DTD SVG 1.1//EN" "http://www.w3.org/Graphics/SVG/1.1/DTD/svg11.dtd">
<svg version="1.1" id="Layer_1" xmlns="http://www.w3.org/2000/svg" xmlns:xlink="http://www.w3.org/1999/xlink" x="0px" y="0px"
	 width="59.213px" height="63.976px" viewBox="0 0 59.213 63.976" style="enable-background:new 0 0 59.213 63.976;"
	 xml:space="preserve">
<g>
	<g>
		<path d="M45.535,20.457c-10.013,0.532-18.182,32.964-27.839,25.796c-0.385-0.285-1.417,0.033-1.012,0.591
			c9.239,12.738,22.395-24.266,29.018-26.101C45.988,20.664,45.708,20.448,45.535,20.457L45.535,20.457z"/>
	</g>
</g>
<g>
	<g>
		<path d="M11.771,27.69c-0.131-0.929-1.931-3.776-0.421-3.172c0.81,0.324,1.625,0.613,2.448,0.905
			c1.918,0.682,3.789,1.503,5.649,2.328c4.951,2.197,9.793,4.656,14.543,7.256c4.278,2.341,8.477,4.859,12.447,7.696
			c2.267,1.62,4.013,4.051,6.486,5.115c0.341,0.147,1.07,0.197,1.272-0.23c2.532-5.334-13.396-12.081-16.854-13.89
			c-4.725-2.473-9.557-4.769-14.485-6.805c-3.46-1.429-8.084-3.926-11.935-3.574c-0.27,0.024-0.775,0.218-0.604,0.587
			c0.58,1.256,1.03,2.452,1.377,3.79C11.702,27.727,11.776,27.727,11.771,27.69L11.771,27.69z"/>
	</g>
</g>
</svg>
