<?xml version="1.0" encoding="iso-8859-1"?>
<!-- Generator: Adobe Illustrator 16.0.0, SVG Export Plug-In . SVG Version: 6.00 Build 0)  -->
<!DOCTYPE svg PUBLIC "-//W3C//DTD SVG 1.1//EN" "http://www.w3.org/Graphics/SVG/1.1/DTD/svg11.dtd">
<svg version="1.1" id="Layer_1" xmlns="http://www.w3.org/2000/svg" xmlns:xlink="http://www.w3.org/1999/xlink" x="0px" y="0px"
	 width="71.654px" height="66px" viewBox="0 0 71.654 66" style="enable-background:new 0 0 71.654 66;" xml:space="preserve">
<g>
	<g>
		<path d="M19.276,30.48c-5.747,8.774-1.654,19.264,8.241,22.481c9.854,3.204,17.844-5.756,17.884-15.138
			c0.037-8.779-9.712-10.792-16.532-8.991C19.19,31.391,12.955,40.82,14.771,50.611c0.194,1.048,2.363,0.717,2.453-0.256
			c0.678-7.334,3.412-14.193,10.324-17.564c4.609-2.248,11.407-2.013,13.624,3.336c1.401,3.381-0.008,7.743-1.726,10.709
			c-2.493,4.306-7.398,5.188-11.862,3.708c-8.49-2.815-11.343-12.277-6.992-19.659C21.01,30.175,19.612,29.968,19.276,30.48
			L19.276,30.48z"/>
	</g>
</g>
</svg>
