<?xml version="1.0" encoding="iso-8859-1"?>
<!-- Generator: Adobe Illustrator 16.0.0, SVG Export Plug-In . SVG Version: 6.00 Build 0)  -->
<!DOCTYPE svg PUBLIC "-//W3C//DTD SVG 1.1//EN" "http://www.w3.org/Graphics/SVG/1.1/DTD/svg11.dtd">
<svg version="1.1" id="Layer_1" xmlns="http://www.w3.org/2000/svg" xmlns:xlink="http://www.w3.org/1999/xlink" x="0px" y="0px"
	 width="71.653px" height="68.693px" viewBox="0 0 71.653 68.693" style="enable-background:new 0 0 71.653 68.693;"
	 xml:space="preserve">
<g>
	<g>
		<path d="M31.804,35.056c-3.592-2.768-8.141-5.912-12.934-5.018c-3.352,0.625-4.94,3.889-5.348,6.953
			c-1.009,7.607,4.795,17.476,12.817,18.248c4.219,0.405,9.387-0.504,12.131-4.042c2.412-3.111,1.772-7.147,0.404-10.548
			c-2.284-5.677-10.309-14.784-17.25-11.174c-2.931,1.523-3.861,4.637-3.896,7.726c-0.017,1.525,2.554,1.04,2.834-0.156
			c0.572-2.442,1.355-5.206,4.276-4.227c2.666,0.893,4.849,3.092,6.618,5.187c3.136,3.713,7.274,11.908,0.213,13.647
			c-7.689,1.895-12.797-4.494-14.396-11.316c-0.56-2.387-0.752-5.689,0.913-7.698c2.768-3.339,9.689,1.804,11.923,3.402
			C30.809,36.54,32.726,35.766,31.804,35.056L31.804,35.056z"/>
	</g>
</g>
</svg>
