<?xml version="1.0" encoding="iso-8859-1"?>
<!-- Generator: Adobe Illustrator 16.0.0, SVG Export Plug-In . SVG Version: 6.00 Build 0)  -->
<!DOCTYPE svg PUBLIC "-//W3C//DTD SVG 1.1//EN" "http://www.w3.org/Graphics/SVG/1.1/DTD/svg11.dtd">
<svg version="1.1" id="Layer_1" xmlns="http://www.w3.org/2000/svg" xmlns:xlink="http://www.w3.org/1999/xlink" x="0px" y="0px"
	 width="59.213px" height="68.693px" viewBox="0 0 59.213 68.693" style="enable-background:new 0 0 59.213 68.693;"
	 xml:space="preserve">
<g>
	<g>
		<path d="M23.46,33.172c-2.267-1.527-4.859-2.055-6.8,0.277c-2.284,2.743-1.122,7.428-0.155,10.453
			c2.659,8.326,10.336,17.016,19.47,11.546c5.457-3.269,8.74-10.634,10.515-16.444c1.211-3.961,1.314-8.712-1.467-12.051
			c-5.309-6.375-16.099-4.86-22.932-2.375c-5.095,1.854-11.002,5.389-12.647,10.92c-2.113,7.101,4.447,11.169,10.105,13.384
			c0.72,0.281,2.728-0.463,1.682-1.339c-2.982-2.5-7.488-6.678-7.207-11.009c0.222-3.424,3.734-5.714,6.448-7.155
			c5.706-3.03,17.567-5.553,21.456,1.547c2.525,4.609-0.483,10.806-2.559,14.935c-2.39,4.756-6.438,10.381-12.098,6.866
			c-3.954-2.455-6.354-7.499-7.618-11.796c-1.111-3.78-1.853-9.279,3.765-7.721C23.439,33.215,23.495,33.195,23.46,33.172
			L23.46,33.172z"/>
	</g>
</g>
</svg>
