<?xml version="1.0" encoding="iso-8859-1"?>
<!-- Generator: Adobe Illustrator 16.0.0, SVG Export Plug-In . SVG Version: 6.00 Build 0)  -->
<!DOCTYPE svg PUBLIC "-//W3C//DTD SVG 1.1//EN" "http://www.w3.org/Graphics/SVG/1.1/DTD/svg11.dtd">
<svg version="1.1" id="Layer_1" xmlns="http://www.w3.org/2000/svg" xmlns:xlink="http://www.w3.org/1999/xlink" x="0px" y="0px"
	 width="71.654px" height="63.976px" viewBox="0 0 71.654 63.976" style="enable-background:new 0 0 71.654 63.976;"
	 xml:space="preserve">
<g>
	<g>
		<path d="M33.979,16.449c-2.276,4.219-5.291,8.172-8.136,12.016c-0.929,1.256-10.37,13.009-11.275,12.147
			c-0.454-0.432-1.977-0.225-1.826,0.607c1.323,7.288,10.496-4.061,11.905-5.874c4.377-5.636,8.996-11.902,11.473-18.658
			C36.487,15.687,34.355,15.751,33.979,16.449L33.979,16.449z"/>
	</g>
</g>
<g>
	<g>
		<path d="M14.311,12.082c8.455,5.7,14.942,14.207,22.127,21.349C40.27,37.24,48.42,46.706,54.441,43.925
			c0.195-0.09,0.456-0.354,0.396-0.598c-0.586-2.346-5.04-3.202-6.971-4.37c-4.021-2.434-7.589-5.654-11.074-8.78
			c-7.074-6.342-13.745-13.567-22.031-18.37C14.552,11.687,13.988,11.865,14.311,12.082L14.311,12.082z"/>
	</g>
</g>
</svg>
