<?xml version="1.0" encoding="iso-8859-1"?>
<!-- Generator: Adobe Illustrator 16.0.0, SVG Export Plug-In . SVG Version: 6.00 Build 0)  -->
<!DOCTYPE svg PUBLIC "-//W3C//DTD SVG 1.1//EN" "http://www.w3.org/Graphics/SVG/1.1/DTD/svg11.dtd">
<svg version="1.1" id="Layer_1" xmlns="http://www.w3.org/2000/svg" xmlns:xlink="http://www.w3.org/1999/xlink" x="0px" y="0px"
	 width="71.654px" height="56.496px" viewBox="0 0 71.654 56.496" style="enable-background:new 0 0 71.654 56.496;"
	 xml:space="preserve">
<g>
	<g>
		<path d="M38.017,36.04C47.66,26.243,53.76,13.51,62.695,3.075c0.258-0.301-0.408-0.423-0.603-0.244
			c-10.075,9.311-14.702,23.225-24.14,33.177C37.923,36.039,37.995,36.062,38.017,36.04L38.017,36.04z"/>
	</g>
</g>
<g>
	<g>
		<path d="M20.634,11.64c8.105,4.769,14.955,11.165,21.735,17.609c6.868,6.528,13.86,12.647,21.145,18.689
			c2.593,2.151,7.104-3.65,4.061-4.931C58.623,39.241,50.791,32.645,43.1,26.836c-7.229-5.458-14.577-10.689-22.41-15.247
			C20.65,11.567,20.577,11.606,20.634,11.64L20.634,11.64z"/>
	</g>
</g>
</svg>
