<?xml version="1.0" encoding="iso-8859-1"?>
<!-- Generator: Adobe Illustrator 16.0.0, SVG Export Plug-In . SVG Version: 6.00 Build 0)  -->
<!DOCTYPE svg PUBLIC "-//W3C//DTD SVG 1.1//EN" "http://www.w3.org/Graphics/SVG/1.1/DTD/svg11.dtd">
<svg version="1.1" id="Layer_1" xmlns="http://www.w3.org/2000/svg" xmlns:xlink="http://www.w3.org/1999/xlink" x="0px" y="0px"
	 width="71.654px" height="83.331px" viewBox="0 0 71.654 83.331" style="enable-background:new 0 0 71.654 83.331;"
	 xml:space="preserve">
<g>
	<g>
		<path d="M12.152,20.71c5.565,8.326,11.19,16.612,17.025,24.752c5.689,7.938,11.476,17.196,19.242,23.301
			c0.746,0.586,2.092,0.334,2.839-0.081c0.415-0.231,0.831-0.461,1.248-0.689c0.484-0.266,0.921-0.822,0.928-1.393
			c0.036-3.141-3.897-4.971-6.014-6.99c-4.204-4.013-8.044-8.421-11.851-12.806c-7.546-8.69-14.781-17.655-21.9-26.696
			C13.284,19.618,11.717,20.059,12.152,20.71L12.152,20.71z"/>
	</g>
</g>
<g>
	<g>
		<path d="M23.366,66.193c1.263-4.038,1.808-8.285,3.15-12.336c1.942-5.864,4.502-11.506,7.292-17.01
			c3.083-6.083,6.763-11.904,11.183-17.103c3.792-4.461,7.233-6.389,12.891-7.277c3.667-0.576,5.448-7.315,0.86-7.717
			c-5.44-0.477-10.956,4.456-14.486,8.041c-5.084,5.165-8.967,11.508-12.29,17.904c-3.53,6.795-6.423,13.905-8.634,21.236
			c-1.165,3.863-3.697,10.542-1.833,14.508C21.819,67.12,23.167,66.829,23.366,66.193L23.366,66.193z"/>
	</g>
</g>
</svg>
