<?xml version="1.0" encoding="iso-8859-1"?>
<!-- Generator: Adobe Illustrator 16.0.0, SVG Export Plug-In . SVG Version: 6.00 Build 0)  -->
<!DOCTYPE svg PUBLIC "-//W3C//DTD SVG 1.1//EN" "http://www.w3.org/Graphics/SVG/1.1/DTD/svg11.dtd">
<svg version="1.1" id="Layer_1" xmlns="http://www.w3.org/2000/svg" xmlns:xlink="http://www.w3.org/1999/xlink" x="0px" y="0px"
	 width="46.897px" height="62.992px" viewBox="0 0 46.897 62.992" style="enable-background:new 0 0 46.897 62.992;"
	 xml:space="preserve">
<g>
	<g>
		<path d="M26.892,19.476c0.428-0.032,0.854-0.063,1.281-0.096C27.886,19.035,27.141,19.143,26.892,19.476
			c-3.607,4.831-4.927,12.471-6.188,18.205c-1.211,5.5-3.661,17.854,4.104,19.984c4.241,1.164,9.025-1.069,12.492-3.323
			c5.169-3.36,6.427-9.776,5.514-15.452c-0.94-5.845-4.474-11.713-8.774-15.703c-4-3.71-10.352-8.552-16.013-5.893
			c-2.175,1.022-1.128,2.172-0.587,3.443c0.645,1.512,3.911,2.879,5.173,3.871c1.889,1.484,3.482,3.255,5,5.106
			c2.765,3.374,5.503,7.177,6.795,11.403c1.398,4.576-0.03,8.416-4.693,10.359c-2.23,0.93-3.509,0.081-4.281-2.037
			c-1.894-5.195-0.503-11.946,0.389-17.225c0.604-3.575,0.954-9.092,2.455-12.459C28.567,19.101,27.182,19.088,26.892,19.476
			L26.892,19.476z"/>
	</g>
</g>
</svg>
