<?xml version="1.0" encoding="iso-8859-1"?>
<!-- Generator: Adobe Illustrator 16.0.0, SVG Export Plug-In . SVG Version: 6.00 Build 0)  -->
<!DOCTYPE svg PUBLIC "-//W3C//DTD SVG 1.1//EN" "http://www.w3.org/Graphics/SVG/1.1/DTD/svg11.dtd">
<svg version="1.1" id="Layer_1" xmlns="http://www.w3.org/2000/svg" xmlns:xlink="http://www.w3.org/1999/xlink" x="0px" y="0px"
	 width="71.654px" height="66px" viewBox="0 0 71.654 66" style="enable-background:new 0 0 71.654 66;" xml:space="preserve">
<g>
	<g>
		<path d="M45.355,15.712C29.884-0.373,10.687,32.729,26.768,42.407c11.682,7.031,21.061-9.791,17.491-19.646
			c-2.228-6.151-9.312-9.156-15.276-7.397c-6.838,2.016-10.813,9.432-10.539,16.206c0.031,0.747,1.687,0.644,1.772-0.037
			c0.61-4.855,2.971-9.155,7.085-11.921c5.789-3.891,12.65,1.079,13.673,7.277c0.728,4.403-1.246,9.395-4.289,12.517
			c-3.35,3.438-8.428,0.871-10.75-2.332c-3.776-5.208-1.567-13.562,1.298-18.581c4.222-7.393,11.763-8.265,18.059-2.757
			C45.311,15.754,45.382,15.74,45.355,15.712L45.355,15.712z"/>
	</g>
</g>
</svg>
