<?xml version="1.0" encoding="iso-8859-1"?>
<!-- Generator: Adobe Illustrator 16.0.0, SVG Export Plug-In . SVG Version: 6.00 Build 0)  -->
<!DOCTYPE svg PUBLIC "-//W3C//DTD SVG 1.1//EN" "http://www.w3.org/Graphics/SVG/1.1/DTD/svg11.dtd">
<svg version="1.1" id="Layer_1" xmlns="http://www.w3.org/2000/svg" xmlns:xlink="http://www.w3.org/1999/xlink" x="0px" y="0px"
	 width="59.213px" height="61.307px" viewBox="0 0 59.213 61.307" style="enable-background:new 0 0 59.213 61.307;"
	 xml:space="preserve">
<g>
	<g>
		<path d="M13.369,18.101c-1.471-0.063-2.938-0.117-4.405-0.241c-0.76-0.064-1.634,0.213-1.856,1.021
			C4.145,29.702,17.615,37.014,26.577,37.093c12.648,0.111,15.401-14.331,10.165-23.567c-5.118-9.028-17.822-7.336-25.388-3.003
			c-3.501,2.005-6.761,5.39-7.611,9.433c-1.115,5.301,2.532,8.332,7.031,10.107c0.778,0.308,3.15-0.566,2.192-1.654
			c-4.582-5.201-5.6-10.381,0.738-14.338c5.521-3.446,13.647-3.561,17.915,1.831c4.78,6.04,4.219,17.331-4.97,17.545
			c-8.593,0.2-16.289-6.496-16.826-14.938c-0.5,0.434-1,0.867-1.501,1.3c1.566-0.124,3.129-0.192,4.698-0.26
			C14.118,19.5,14.799,18.162,13.369,18.101L13.369,18.101z"/>
	</g>
</g>
</svg>
