<?xml version="1.0" encoding="iso-8859-1"?>
<!-- Generator: Adobe Illustrator 16.0.0, SVG Export Plug-In . SVG Version: 6.00 Build 0)  -->
<!DOCTYPE svg PUBLIC "-//W3C//DTD SVG 1.1//EN" "http://www.w3.org/Graphics/SVG/1.1/DTD/svg11.dtd">
<svg version="1.1" id="Layer_1" xmlns="http://www.w3.org/2000/svg" xmlns:xlink="http://www.w3.org/1999/xlink" x="0px" y="0px"
	 width="71.654px" height="57.433px" viewBox="0 0 71.654 57.433" style="enable-background:new 0 0 71.654 57.433;"
	 xml:space="preserve">
<g>
	<g>
		<path d="M32.266,18.874c-3.683,1.161-4.432,0.631-4.511,4.56c-0.054,2.625,0.957,5.337,2.188,7.603
			c2.278,4.194,6.605,7.119,11.119,8.388c9.276,2.608,15.939-3.971,13.518-13.157C51.664,15.206,34.966,2.682,23.449,8.915
			c-14.478,7.834-0.938,27.51,8.338,33.205c0.42,0.258,1.721-0.192,1.118-0.685c-6.845-5.588-15.36-19.627-9.876-28.282
			c3.796-5.99,13.984-0.736,18.159,1.856c4.562,2.832,7.589,6.625,9.573,11.552c3.052,7.578-1.372,12.391-9.078,10.781
			c-6.361-1.329-19.177-14.064-9.374-18.425C32.35,18.899,32.292,18.866,32.266,18.874L32.266,18.874z"/>
	</g>
</g>
</svg>
