<?xml version="1.0" encoding="iso-8859-1"?>
<!-- Generator: Adobe Illustrator 16.0.0, SVG Export Plug-In . SVG Version: 6.00 Build 0)  -->
<!DOCTYPE svg PUBLIC "-//W3C//DTD SVG 1.1//EN" "http://www.w3.org/Graphics/SVG/1.1/DTD/svg11.dtd">
<svg version="1.1" id="Layer_1" xmlns="http://www.w3.org/2000/svg" xmlns:xlink="http://www.w3.org/1999/xlink" x="0px" y="0px"
	 width="71.653px" height="55.055px" viewBox="0 0 71.653 55.055" style="enable-background:new 0 0 71.653 55.055;"
	 xml:space="preserve">
<g>
	<g>
		<path d="M20.01,9.376C20.005,9.383,20,9.39,19.994,9.397c-0.004,0.006-0.002,0.016,0.002,0.021
			c0.249,0.281,0.644,0.362,0.536,0.887c-0.034,0.17,0.007,0.367,0.155,0.477c7.988,5.868,16.848,10.736,25.347,15.826
			c2.954,1.769,5.767,3.754,8.71,5.551c2.233,1.363,4.479,2.706,6.68,4.121c0.726,0.465,1.437,0.951,2.132,1.46
			c2.219,1.625,1.164-1.214,1.457-1.369c-0.372,0.196-0.551,0.604-0.37,0.984c0.059,0.108,0.118,0.217,0.178,0.326
			c0.303,0.555,1.21,0.463,1.698,0.361c5.122-1.068-2.942-5.807-3.958-6.375c-4.209-2.353-8.373-4.866-12.609-7.142
			C47.08,22.983,20.709,8.262,20.084,9.396C20.103,9.362,20.027,9.352,20.01,9.376L20.01,9.376z"/>
	</g>
</g>
<g>
	<g>
		<path d="M56.107,3.759C48.038,8.679,39.104,15.182,34.143,23.41c-1.67,2.768-3.279,5.57-4.979,8.32
			c-1.431,2.316-3.792,4.509-4.777,7.005c0.574-0.395,1.148-0.791,1.723-1.186c0.766,0.315,0.951,0.232,0.556-0.25
			c-0.476-0.849-2.051-0.354-2.295,0.434c-0.398,1.286-0.126,1.956,1.11,2.513c1.255,0.565,2.639-0.308,3.443-1.2
			c3.644-4.036,5.998-9.486,8.563-14.236c4.31-7.978,12.104-15.085,18.979-20.849C56.653,3.804,56.233,3.683,56.107,3.759
			L56.107,3.759z"/>
	</g>
</g>
</svg>
