<?xml version="1.0" encoding="iso-8859-1"?>
<!-- Generator: Adobe Illustrator 16.0.0, SVG Export Plug-In . SVG Version: 6.00 Build 0)  -->
<!DOCTYPE svg PUBLIC "-//W3C//DTD SVG 1.1//EN" "http://www.w3.org/Graphics/SVG/1.1/DTD/svg11.dtd">
<svg version="1.1" id="Layer_1" xmlns="http://www.w3.org/2000/svg" xmlns:xlink="http://www.w3.org/1999/xlink" x="0px" y="0px"
	 width="71.654px" height="62.992px" viewBox="0 0 71.654 62.992" style="enable-background:new 0 0 71.654 62.992;"
	 xml:space="preserve">
<g>
	<g>
		<path d="M41.064,11.954c6.655,1.372,11.702,5.422,11.94,12.516c0.176,5.248-2.923,10.843-7.509,13.365
			c-5.933,3.263-13.528-2.278-15.034-8.119c-1.285-4.985,3.513-8.701,7.252-10.551c3.077-1.522,6.761-1.031,10.042-1.782
			c2.198-0.503,5.226-3.448,3.072-5.74c-9.971-10.61-24.989,3.774-26.408,14.487c-1.24,9.362,10.166,16.788,18.525,15.125
			c6.887-1.37,11.46-8.025,12.028-14.727c0.722-8.519-6.027-13.679-13.769-14.861C40.965,11.631,40.753,11.89,41.064,11.954
			L41.064,11.954z"/>
	</g>
</g>
</svg>
