<?xml version="1.0" encoding="iso-8859-1"?>
<!-- Generator: Adobe Illustrator 16.0.0, SVG Export Plug-In . SVG Version: 6.00 Build 0)  -->
<!DOCTYPE svg PUBLIC "-//W3C//DTD SVG 1.1//EN" "http://www.w3.org/Graphics/SVG/1.1/DTD/svg11.dtd">
<svg version="1.1" id="Layer_1" xmlns="http://www.w3.org/2000/svg" xmlns:xlink="http://www.w3.org/1999/xlink" x="0px" y="0px"
	 width="66.33px" height="62.992px" viewBox="0 0 66.33 62.992" style="enable-background:new 0 0 66.33 62.992;"
	 xml:space="preserve">
<g>
	<g>
		<path d="M17.692,14.766C2.438,8.314,0.402,31.728,6.856,40.491c4.138,5.618,11.387,6.178,17.829,6.967
			c6.592,0.809,15.899,2.551,22.259-0.146c14.418-6.113,3.745-23.073-2.724-30.781C38.815,10.09,32.013,5.191,23.8,3.163
			c-3.156-0.78-6.607-0.783-9.778-0.112c-5.97,1.262-8.587,6.216-10.14,11.685c-0.79,2.781,1.607,4.593,4.148,3.54
			c4.977-2.062,9.689-3.4,14.819-2.258c5.595,1.246,11.036,4.23,15.673,7.532c4.752,3.384,16.174,15.732,7.427,20.644
			c-3.756,2.109-11.286,0.667-15.336,0.371c-5.277-0.386-12.145-0.684-16.875-3.333c-8.673-4.858-10.273-29.5,3.674-26.052
			C17.696,15.25,18.08,14.929,17.692,14.766L17.692,14.766z"/>
	</g>
</g>
</svg>
