<?xml version="1.0" encoding="iso-8859-1"?>
<!-- Generator: Adobe Illustrator 16.0.0, SVG Export Plug-In . SVG Version: 6.00 Build 0)  -->
<!DOCTYPE svg PUBLIC "-//W3C//DTD SVG 1.1//EN" "http://www.w3.org/Graphics/SVG/1.1/DTD/svg11.dtd">
<svg version="1.1" id="Layer_1" xmlns="http://www.w3.org/2000/svg" xmlns:xlink="http://www.w3.org/1999/xlink" x="0px" y="0px"
	 width="67.717px" height="83.331px" viewBox="0 0 67.717 83.331" style="enable-background:new 0 0 67.717 83.331;"
	 xml:space="preserve">
<g>
	<g>
		<path d="M24.029,74.792c-0.936-1.115-2.034-4.53-2.209-6.035c-0.353-3.036,1.015-6.178,2.331-8.822
			c3.496-7.026,9.184-13.141,14.472-18.844c5.729-6.177,11.95-11.907,18.194-17.556c1.858-1.681,15.362-11.678,8.962-14.174
			c-0.852-0.332-1.816-0.199-2.628,0.175c-0.102,0.046-2.878,1.853-1.225,0.757c-0.887,0.587-1.674,1.629-2.448,2.38
			c-2.139,2.075-4.297,4.129-6.435,6.205c-6.001,5.829-11.839,11.822-17.42,18.054c-5.416,6.048-10.474,12.436-14.378,19.574
			c-2.39,4.369-5.053,10.72-2.264,15.516c1.382,2.377,2.778,2.1,4.985,2.81C23.988,74.839,24.059,74.827,24.029,74.792
			L24.029,74.792z"/>
	</g>
</g>
<g>
	<g>
		<path d="M5.421,18.106c-0.358,3.833,6.387,9.097,8.938,11.558c4.321,4.17,8.89,8.077,13.212,12.248
			c9.871,9.526,17.844,20.971,18.605,35.103c0.228,4.221,7.623,1.165,6.758-2.849c-0.371-1.726-0.979-2.937-2.719-3.478
			c-1.673-0.52-3.689,0.556-3.735,2.412c-0.086,1.022-0.2,2.041-0.343,3.057c2.266-0.664,4.531-1.328,6.797-1.991
			c-2.725-13.554-8.706-23.731-18.946-32.986c-5.047-4.561-10.632-8.512-15.937-12.76c-2.393-1.916-4.758-3.861-7.029-5.92
			c-1.789-1.622-3.236-3.588-5.549-4.413C5.457,18.082,5.423,18.085,5.421,18.106L5.421,18.106z"/>
	</g>
</g>
</svg>
