<?xml version="1.0" encoding="iso-8859-1"?>
<!-- Generator: Adobe Illustrator 16.0.0, SVG Export Plug-In . SVG Version: 6.00 Build 0)  -->
<!DOCTYPE svg PUBLIC "-//W3C//DTD SVG 1.1//EN" "http://www.w3.org/Graphics/SVG/1.1/DTD/svg11.dtd">
<svg version="1.1" id="Layer_1" xmlns="http://www.w3.org/2000/svg" xmlns:xlink="http://www.w3.org/1999/xlink" x="0px" y="0px"
	 width="71.653px" height="63.976px" viewBox="0 0 71.653 63.976" style="enable-background:new 0 0 71.653 63.976;"
	 xml:space="preserve">
<g>
	<g>
		<path d="M28.505,15.663c6.922,1.669,13.512,6.145,19.433,9.93c5.572,3.562,10.666,7.864,15.801,11.824
			c0.284,0.219,1.407,0.308,1.292-0.32c-1.033-5.658-10.622-9.999-15.157-12.758c-6.277-3.82-13.303-8.245-20.585-9.812
			C28.485,14.352,27.347,15.384,28.505,15.663L28.505,15.663z"/>
	</g>
</g>
<g>
	<g>
		<path d="M52.388,8.735c-9.164,10.392-14.834,23.3-24.04,33.734c-0.453,0.513,0.69,0.676,1.004,0.457
			c11.509-8.062,15.057-23.225,23.298-34.07C52.754,8.719,52.471,8.642,52.388,8.735L52.388,8.735z"/>
	</g>
</g>
</svg>
