<?xml version="1.0" encoding="iso-8859-1"?>
<!-- Generator: Adobe Illustrator 16.0.0, SVG Export Plug-In . SVG Version: 6.00 Build 0)  -->
<!DOCTYPE svg PUBLIC "-//W3C//DTD SVG 1.1//EN" "http://www.w3.org/Graphics/SVG/1.1/DTD/svg11.dtd">
<svg version="1.1" id="Layer_1" xmlns="http://www.w3.org/2000/svg" xmlns:xlink="http://www.w3.org/1999/xlink" x="0px" y="0px"
	 width="67.717px" height="57.433px" viewBox="0 0 67.717 57.433" style="enable-background:new 0 0 67.717 57.433;"
	 xml:space="preserve">
<g>
	<g>
		<path d="M18.938,19.688C18.307,7.023,41.523,18.562,45.93,21.31c4.657,2.904,9.49,6.829,11.546,12.079
			c2.365,6.042-3.356,9.788-8.114,11.93c-13.548,6.099-31.303,3.738-36.128-12.068C9.819,22.067,15.377,9.401,28.726,12.017
			c0.531,0.113,1.058,0.244,1.579,0.393c0.635,0.169,2.006-0.638,1.009-1.122c-5.171-2.508-10.435-3.709-15.583-0.463
			c-4.083,2.574-6.477,6.817-7.557,11.434c-2.502,10.699,2.864,22.236,12.396,27.444c11.382,6.22,31.239,2.306,39.46-7.701
			c7.603-9.253-4.228-18.743-11.557-22.939c-4.988-2.855-31.388-13.675-29.612,0.626C18.864,19.716,18.938,19.719,18.938,19.688
			L18.938,19.688z"/>
	</g>
</g>
</svg>
