<?xml version="1.0" encoding="iso-8859-1"?>
<!-- Generator: Adobe Illustrator 16.0.0, SVG Export Plug-In . SVG Version: 6.00 Build 0)  -->
<!DOCTYPE svg PUBLIC "-//W3C//DTD SVG 1.1//EN" "http://www.w3.org/Graphics/SVG/1.1/DTD/svg11.dtd">
<svg version="1.1" id="Layer_1" xmlns="http://www.w3.org/2000/svg" xmlns:xlink="http://www.w3.org/1999/xlink" x="0px" y="0px"
	 width="66.33px" height="66px" viewBox="0 0 66.33 66" style="enable-background:new 0 0 66.33 66;" xml:space="preserve">
<g>
	<g>
		<path d="M12.211,25.961c1.472,6.234,2.688,15.792,7.773,20.26c4.025,3.537,9.641,5.534,15.015,4.628
			c10.559-1.781,14.755-14.289,7.802-22.329c-5.313-6.146-15.558-7.719-22.92-5.021c-10.16,3.722-8.168,13.704-2.997,20.845
			c0.445,0.615,2.198,0.312,1.754-0.551c-2.949-5.735-5.345-14.569,2.273-17.664c5.457-2.216,12.315-0.654,16.989,2.614
			c7.155,5.003,6.565,17.44-2.493,19.925C20.956,52.63,16.895,35.357,12.287,25.955C12.274,25.929,12.202,25.922,12.211,25.961
			L12.211,25.961z"/>
	</g>
</g>
</svg>
