<?xml version="1.0" encoding="iso-8859-1"?>
<!-- Generator: Adobe Illustrator 16.0.0, SVG Export Plug-In . SVG Version: 6.00 Build 0)  -->
<!DOCTYPE svg PUBLIC "-//W3C//DTD SVG 1.1//EN" "http://www.w3.org/Graphics/SVG/1.1/DTD/svg11.dtd">
<svg version="1.1" id="Layer_1" xmlns="http://www.w3.org/2000/svg" xmlns:xlink="http://www.w3.org/1999/xlink" x="0px" y="0px"
	 width="71.654px" height="83.331px" viewBox="0 0 71.654 83.331" style="enable-background:new 0 0 71.654 83.331;"
	 xml:space="preserve">
<g>
	<g>
		<path d="M44.021,54.747c5.98-6.924,9.917-15.291,15.574-22.465c1.943-2.464-2.032-3.086-3.43-1.167
			c-5.309,7.289-9.248,15.474-14.199,22.999C41.263,55.182,43.466,55.39,44.021,54.747L44.021,54.747z"/>
	</g>
</g>
<g>
	<g>
		<path d="M57.081,36.242c5.142,0,6.298-9.492,0.326-9.492C52.266,26.75,51.109,36.242,57.081,36.242L57.081,36.242z"/>
	</g>
</g>
<g>
	<g>
		<path d="M30.904,27.254c9.706,3.52,14.68,12.187,18.73,21.114c1.848,4.072,3.55,8.208,5.45,12.257
			c1.422,3.032,3.267,8.185,6.409,9.771c1.059,0.535,3.398-0.148,2.964-1.684c-1.117-3.947-4.763-7.953-6.668-11.715
			c-2.232-4.407-4.292-8.889-6.654-13.231c-4.328-7.953-10.29-15.441-19.52-17.477C30.942,26.142,29.903,26.891,30.904,27.254
			L30.904,27.254z"/>
	</g>
</g>
</svg>
