<?xml version="1.0" encoding="iso-8859-1"?>
<!-- Generator: Adobe Illustrator 16.0.0, SVG Export Plug-In . SVG Version: 6.00 Build 0)  -->
<!DOCTYPE svg PUBLIC "-//W3C//DTD SVG 1.1//EN" "http://www.w3.org/Graphics/SVG/1.1/DTD/svg11.dtd">
<svg version="1.1" id="Layer_1" xmlns="http://www.w3.org/2000/svg" xmlns:xlink="http://www.w3.org/1999/xlink" x="0px" y="0px"
	 width="46.897px" height="61.307px" viewBox="0 0 46.897 61.307" style="enable-background:new 0 0 46.897 61.307;"
	 xml:space="preserve">
<g>
	<g>
		<path d="M20.542,21.718c5.469,1.95,13.02,3.293,14.644,9.779c1.981,7.916-7.229,15.747-14.437,16.083
			c-7.079,0.331-10.583-10.052-10.157-15.509c0.239-3.077,2.999-4.333,5.407-5.562c1.489-0.761,3.05-1.415,4.637-1.942
			c0.69-0.25,1.402-0.401,2.137-0.454c0.589-0.015,1.786,0.386,0.453-0.094c5.283,1.901,8.865-6.551,4.829-9.794
			c-3.469-2.787-8.508,0.099-11.909,1.648C11.288,18.087,7.223,21,4.337,25.497c-5.96,9.29-0.465,25.025,9.183,29.51
			c11.999,5.577,24.436-6.892,28.194-17.306c1.95-5.403,0.489-11.643-4.049-15.098c-4.134-3.146-10.798-2.928-15.703-3.47
			C20.566,18.979,18.57,21.016,20.542,21.718L20.542,21.718z"/>
	</g>
</g>
</svg>
