<?xml version="1.0" encoding="iso-8859-1"?>
<!-- Generator: Adobe Illustrator 16.0.0, SVG Export Plug-In . SVG Version: 6.00 Build 0)  -->
<!DOCTYPE svg PUBLIC "-//W3C//DTD SVG 1.1//EN" "http://www.w3.org/Graphics/SVG/1.1/DTD/svg11.dtd">
<svg version="1.1" id="Layer_1" xmlns="http://www.w3.org/2000/svg" xmlns:xlink="http://www.w3.org/1999/xlink" x="0px" y="0px"
	 width="66.33px" height="63.976px" viewBox="0 0 66.33 63.976" style="enable-background:new 0 0 66.33 63.976;"
	 xml:space="preserve">
<g>
	<g>
		<path d="M19.789,17.402c-0.432-1.913,0.063-0.552,1.043,0.412c1.346,1.324,2.543,2.81,3.743,4.263
			c1.761,2.133,3.514,4.584,5.566,6.451c4.403,4.003,8.95,7.842,13.645,11.499c3.122,2.431,6.935,6.361,11.202,5.696
			c0.345-0.054,1.084-0.377,0.937-0.864c-0.692-2.285-3.202-3.104-5.084-4.27c-3.147-1.949-6.142-4.151-9.111-6.356
			c-4.648-3.451-8.967-6.977-12.928-11.177c-2.105-2.233-5.155-6.322-8.187-7.245c-1.69-0.515-2.25,0.044-1.507,1.701
			C19.226,17.773,19.866,17.745,19.789,17.402L19.789,17.402z"/>
	</g>
</g>
<g>
	<g>
		<path d="M42.123,10.255c-4.96,3.423-8.753,8.471-12.112,13.405c-2.841,4.173-5.402,8.538-7.883,12.931
			c-2.132,3.776-5.535,8.348-6.145,12.69c-0.28,1.997,2.933,0.799,3.531,0.093c1.916-2.263,2.863-5.48,4.121-8.147
			c2.11-4.474,4.382-8.869,6.79-13.19c3.451-6.195,7.207-12.369,12.057-17.581C42.65,10.275,42.249,10.168,42.123,10.255
			L42.123,10.255z"/>
	</g>
</g>
</svg>
