<?xml version="1.0" encoding="iso-8859-1"?>
<!-- Generator: Adobe Illustrator 16.0.0, SVG Export Plug-In . SVG Version: 6.00 Build 0)  -->
<!DOCTYPE svg PUBLIC "-//W3C//DTD SVG 1.1//EN" "http://www.w3.org/Graphics/SVG/1.1/DTD/svg11.dtd">
<svg version="1.1" id="Layer_1" xmlns="http://www.w3.org/2000/svg" xmlns:xlink="http://www.w3.org/1999/xlink" x="0px" y="0px"
	 width="66.33px" height="67.717px" viewBox="0 0 66.33 67.717" style="enable-background:new 0 0 66.33 67.717;"
	 xml:space="preserve">
<g>
	<g>
		<path d="M21.407,21.993c7.767,2.621,13.51,8.589,18.807,14.586c2.276,2.577,4.455,5.242,6.672,7.87
			c2.537,3.007,5.886,5.793,8.045,9.064c0.86-1.198,1.721-2.397,2.581-3.596c-2.304,0.333-3.733,0.068-5.852-0.88
			c-0.732-0.328-2.558,0.373-1.641,1.278c1.784,1.762,3.27,3.216,5.752,3.866c2.267,0.593,5.901-2.731,2.943-4.158
			c-3.234-1.56-6.011-5.253-8.466-7.795c-3.026-3.132-5.995-6.314-9.113-9.356c-5.431-5.297-11.52-10.016-18.922-12.076
			C21.367,20.56,20.23,21.596,21.407,21.993L21.407,21.993z"/>
	</g>
</g>
<g>
	<g>
		<path d="M34.025,16.858c-5.61-1.82-3.96,8.771-3.643,11.086c1.125,8.196,3.61,16.188,4.582,24.396
			c0.334,2.821,5.134,0.719,5.225-1.473c0.555-13.397,0.829-27.743-1.448-40.988c-0.513-2.984-4.998-0.555-5.485,1.263
			c-0.34,1.271-0.708,2.524-1.081,3.785c-0.49,1.655,1.981,1.46,2.718,0.612c0.964-1.111,2.038-2.036,3.082-3.076
			c-1.582-0.009-3.165-0.018-4.747-0.027c2.297,13.243-0.157,26.705,1.736,39.904c1.73-0.684,3.459-1.366,5.189-2.05
			c-0.908-5.521-2.7-10.936-4.02-16.368c-0.284-1.168-2.792-15.836-2.686-15.831C34.232,18.127,35.108,17.209,34.025,16.858
			L34.025,16.858z"/>
	</g>
</g>
</svg>
