<?xml version="1.0" encoding="utf-8"?>
<!-- Generator: Adobe Illustrator 16.0.0, SVG Export Plug-In . SVG Version: 6.00 Build 0)  -->
<!DOCTYPE svg PUBLIC "-//W3C//DTD SVG 1.1//EN" "http://www.w3.org/Graphics/SVG/1.1/DTD/svg11.dtd">
<svg version="1.1" id="Layer_2" xmlns="http://www.w3.org/2000/svg" xmlns:xlink="http://www.w3.org/1999/xlink" x="0px" y="0px"
	 width="67.717px" height="238px" viewBox="0 0 67.717 238" enable-background="new 0 0 67.717 238" xml:space="preserve">
<g>
	<g>
		<path d="M37.354-197.902c3.283,8.942,0.607,19.56-1.342,28.538c-2.267,10.443-3.544,20.803-4.519,31.448
			c-2.048,22.382-3.452,45.431-2.519,67.909c0.555,13.324,2.706,26.584,3.694,39.882c0.54,7.273,0.854,14.586,0.454,21.875
			c-0.282,5.159-0.956,10.562-4.072,14.854c-1.468,2.021,2.175,2.292,3.282,1.178c3.463-3.486,4.029-9.216,4.53-13.868
			c0.753-6.997,0.412-14.128-0.006-21.134c-0.854-14.3-3.115-28.479-3.972-42.772c-1.392-23.25,0.56-47.268,2.39-70.448
			c0.824-10.434,2.151-20.509,4.246-30.753c1.848-9.033,3.42-18.475-1.191-26.903C38.135-198.455,37.178-198.385,37.354-197.902
			L37.354-197.902z"/>
	</g>
</g>
<g>
	<g>
		<path d="M33.39,232.985c2.822-39.085-1.393-78.362-0.835-117.497c0.497-34.794-4.119-71.596,6.078-105.424
			c-1.195,0.202-2.391,0.403-3.586,0.605c1.055,3.188,1.545,6.562,2.852,9.647c0.305,0.719,1.759,0.381,1.939-0.273
			c1.055-3.805,0.009-7.051-1.199-10.714c-0.512-1.553-3.225-0.592-3.586,0.605c-9.603,31.767-6.278,66.221-6.052,98.923
			c0.287,41.425,2.177,82.747,3.295,124.156C32.31,233.508,33.354,233.471,33.39,232.985L33.39,232.985z"/>
	</g>
</g>
</svg>
