<?xml version="1.0" encoding="utf-8"?>
<!-- Generator: Adobe Illustrator 16.0.0, SVG Export Plug-In . SVG Version: 6.00 Build 0)  -->
<!DOCTYPE svg PUBLIC "-//W3C//DTD SVG 1.1//EN" "http://www.w3.org/Graphics/SVG/1.1/DTD/svg11.dtd">
<svg version="1.1" id="Layer_2" xmlns="http://www.w3.org/2000/svg" xmlns:xlink="http://www.w3.org/1999/xlink" x="0px" y="0px"
	 width="71.654px" height="188.142px" viewBox="0 0 71.654 188.142" enable-background="new 0 0 71.654 188.142"
	 xml:space="preserve">
<g>
	<g>
		<path d="M30.191,20.163c2.357-1.795,5.142-2.898,7.651-4.451c-0.61-0.123-1.221-0.246-1.832-0.369
			c6.641,30.033,5.997,60.249,6.477,90.816c0.217,13.824,1.223,27.594,2.074,41.388c0.401,6.502,0.835,13.003,1.366,19.497
			c0.421,5.142,0.126,11.645,2.346,16.375c0.273,0.583,1.708,0.458,1.795-0.218c0.637-4.948-0.731-10.405-1.147-15.361
			c-0.619-7.364-1.037-14.744-1.457-22.121c-0.824-14.482-1.693-28.921-1.826-43.431c-0.263-28.746,1.606-59.607-7.348-87.345
			c-0.252-0.779-1.564-0.785-2.042-0.208c-1.744,2.113-4.191,3.477-6.139,5.387C30.069,20.161,30.162,20.185,30.191,20.163
			L30.191,20.163z"/>
	</g>
</g>
</svg>
