<?xml version="1.0" encoding="utf-8"?>
<!-- Generator: Adobe Illustrator 16.0.0, SVG Export Plug-In . SVG Version: 6.00 Build 0)  -->
<!DOCTYPE svg PUBLIC "-//W3C//DTD SVG 1.1//EN" "http://www.w3.org/Graphics/SVG/1.1/DTD/svg11.dtd">
<svg version="1.1" id="Layer_2" xmlns="http://www.w3.org/2000/svg" xmlns:xlink="http://www.w3.org/1999/xlink" x="0px" y="0px"
	 width="71.654px" height="238px" viewBox="0 0 71.654 238" enable-background="new 0 0 71.654 238" xml:space="preserve">
<g>
	<g>
		<path d="M48.582,12.918c-7.412,14.756-8.576,31.9-9.042,48.19c-0.52,18.16,0.732,36.32,0.895,54.477
			c0.172,19.192-0.565,38.332-0.061,57.539c0.519,19.693,1.178,39.409,0.063,59.095c0.74-0.503,1.48-1.007,2.221-1.511
			c-1.811-0.11-3.456-0.575-5.166-1.162c-0.363-0.124-1.543,0.264-0.963,0.751c1.588,1.332,2.683,2.516,4.715,2.923
			c0.969,0.194,2.547-0.218,2.619-1.438c1.127-19.138,0.781-38.284,0.406-57.439c-0.368-18.77,0.163-37.465,0.269-56.225
			c0.099-17.559-1.057-35.1-0.921-52.661c0.138-17.828,2.958-34.902,6.102-52.374C49.825,12.489,48.796,12.491,48.582,12.918
			L48.582,12.918z"/>
	</g>
</g>
</svg>
