<?xml version="1.0" encoding="utf-8"?>
<!-- Generator: Adobe Illustrator 16.0.0, SVG Export Plug-In . SVG Version: 6.00 Build 0)  -->
<!DOCTYPE svg PUBLIC "-//W3C//DTD SVG 1.1//EN" "http://www.w3.org/Graphics/SVG/1.1/DTD/svg11.dtd">
<svg version="1.1" id="Layer_2" xmlns="http://www.w3.org/2000/svg" xmlns:xlink="http://www.w3.org/1999/xlink" x="0px" y="0px"
	 width="56.126px" height="188.142px" viewBox="0 0 56.126 188.142" enable-background="new 0 0 56.126 188.142"
	 xml:space="preserve">
<g>
	<g>
		<path d="M43.749,1.206c0.959,4.437,2.303,8.693,2.604,13.345c0.445,6.854-0.198,13.773-0.868,20.59
			c-1.326,13.505-3.812,26.852-5.259,40.336c-1.003,9.354-0.873,18.908-1.254,28.306c-0.491,12.148-1.014,24.295-1.67,36.436
			c-0.558,10.29-1.825,20.614-1.182,30.914c0.297,4.75,0.691,9.484,0.767,14.244c0.073,4.65-1.637,9.374-1.328,13.908
			c0.099,1.439,2.202,1.175,2.874,0.303c4.656-6.051,3.197-16.414,2.74-23.539c-0.738-11.528-0.093-22.704,0.539-34.232
			c0.646-11.791,1.164-23.59,1.602-35.391c0.393-10.589,0.18-21.36,1.254-31.903c1.413-13.873,4.053-27.593,5.139-41.508
			c0.539-6.911,0.728-13.938-0.083-20.833c-0.503-4.278-1.227-9.146-5.299-11.257C44.12,0.817,43.686,0.915,43.749,1.206
			L43.749,1.206z"/>
	</g>
</g>
</svg>
