<?xml version="1.0" encoding="utf-8"?>
<!-- Generator: Adobe Illustrator 16.0.0, SVG Export Plug-In . SVG Version: 6.00 Build 0)  -->
<!DOCTYPE svg PUBLIC "-//W3C//DTD SVG 1.1//EN" "http://www.w3.org/Graphics/SVG/1.1/DTD/svg11.dtd">
<svg version="1.1" id="Layer_1" xmlns="http://www.w3.org/2000/svg" xmlns:xlink="http://www.w3.org/1999/xlink" x="0px" y="0px"
	 width="209.637px" height="66px" viewBox="0 0 209.637 66" enable-background="new 0 0 209.637 66" xml:space="preserve">
<g>
	<g>
		<path d="M37.884,28.711c-2.201-1.716,8.053-3.493,9.009-3.668c5.894-1.079,11.667-2.359,17.666-2.779
			c13.781-0.965,27.54,1.865,40.585,6.083c11.896,3.847,23.13,9.083,35.233,12.352c11.981,3.236,23.329,6.277,34.083,12.521
			c2.477,1.438,6.79-2.623,4.037-4.439c-11.594-7.648-26.747-9.872-39.922-13.407c-15.141-4.062-29.2-11.033-44.59-14.429
			c-15.133-3.339-29.246-2.349-44.25,0.806c-2.286,0.48-19.145,3.361-12.661,7.539C37.485,29.552,38.458,29.158,37.884,28.711
			L37.884,28.711z"/>
	</g>
</g>
</svg>
