<?xml version="1.0" encoding="utf-8"?>
<!-- Generator: Adobe Illustrator 16.0.0, SVG Export Plug-In . SVG Version: 6.00 Build 0)  -->
<!DOCTYPE svg PUBLIC "-//W3C//DTD SVG 1.1//EN" "http://www.w3.org/Graphics/SVG/1.1/DTD/svg11.dtd">
<svg version="1.1" id="Layer_1" xmlns="http://www.w3.org/2000/svg" xmlns:xlink="http://www.w3.org/1999/xlink" x="0px" y="0px"
	 width="188.843px" height="32.496px" viewBox="0 0 188.843 32.496" enable-background="new 0 0 188.843 32.496"
	 xml:space="preserve">
<g>
	<g>
		<path d="M26.053,7.661c9.957,3.743,21.188,1.984,31.506,1.14c13.406-1.098,26.984-0.575,40.38,0.414
			c13.007,0.961,25.897,3.095,38.943,3.395c12.199,0.28,25.012-0.377,36.671,3.802c3.043,1.09,4.342-3.742,1.33-4.821
			c-10.524-3.771-22.073-3.712-33.111-3.895c-13.49-0.223-26.713-2.008-40.139-3.182C88.461,3.361,75.179,2.882,61.965,3.498
			c-11.31,0.526-23.643,3.455-34.582-0.658C24.358,1.703,23.064,6.537,26.053,7.661L26.053,7.661z"/>
	</g>
</g>
</svg>
