<?xml version="1.0" encoding="utf-8"?>
<!-- Generator: Adobe Illustrator 16.0.0, SVG Export Plug-In . SVG Version: 6.00 Build 0)  -->
<!DOCTYPE svg PUBLIC "-//W3C//DTD SVG 1.1//EN" "http://www.w3.org/Graphics/SVG/1.1/DTD/svg11.dtd">
<svg version="1.1" id="Layer_1" xmlns="http://www.w3.org/2000/svg" xmlns:xlink="http://www.w3.org/1999/xlink" x="0px" y="0px"
	 width="209.637px" height="57.433px" viewBox="0 0 209.637 57.433" enable-background="new 0 0 209.637 57.433"
	 xml:space="preserve">
<g>
	<g>
		<path d="M32.894,33.508c2.875-10.097,15.9-8.049,23.811-6.44c10.928,2.223,21.214,5.459,32.428,6.52
			c14.113,1.336,28.357,0.73,42.507,0.633c6.573-0.046,13.152-0.073,19.726,0.01c3.456,0.043,6.901,0.219,10.346,0.507
			c4.058,0.341,7.422,1.796,11.297,2.76c2.752,0.684,5.931-3.47,2.374-4.252c-3.479-0.766-7.281-0.428-10.877-0.714
			c-3.671-0.291-7.376-0.278-11.055-0.244c-7.779,0.072-15.564,0.326-23.344,0.456c-15.999,0.27-31.998,0.938-47.927-1.005
			c-11.19-1.365-21.902-5.93-33.178-6.581c-6.828-0.395-14.857,0.541-16.936,8.201C31.955,33.765,32.796,33.852,32.894,33.508
			L32.894,33.508z"/>
	</g>
</g>
</svg>
