<?xml version="1.0" encoding="utf-8"?>
<!-- Generator: Adobe Illustrator 16.0.0, SVG Export Plug-In . SVG Version: 6.00 Build 0)  -->
<!DOCTYPE svg PUBLIC "-//W3C//DTD SVG 1.1//EN" "http://www.w3.org/Graphics/SVG/1.1/DTD/svg11.dtd">
<svg version="1.1" id="Layer_1" xmlns="http://www.w3.org/2000/svg" xmlns:xlink="http://www.w3.org/1999/xlink" x="0px" y="0px"
	 width="188.843px" height="55.055px" viewBox="0 0 188.843 55.055" enable-background="new 0 0 188.843 55.055"
	 xml:space="preserve">
<g>
	<g>
		<path d="M169.709,27.831c-12.786-1.735-26.204-1.028-39.096-1.51c-13.947-0.522-27.885-1.075-41.838-1.423
			c-11.5-0.287-22.92-0.955-34.405-1.544c-9.69-0.498-21.503-1.09-30.087,4.267c-1.77,1.104-0.681,3.399,1.294,2.809
			c10.409-3.114,20.763-2.942,31.546-2.296c11.16,0.668,22.266,1.067,33.444,1.336c13.504,0.325,27.004,0.526,40.511,0.659
			c12.493,0.123,25.567,1.157,37.987-0.385C170.116,29.614,171.428,28.064,169.709,27.831L169.709,27.831z"/>
	</g>
</g>
</svg>
