<?xml version="1.0" encoding="utf-8"?>
<!-- Generator: Adobe Illustrator 16.0.0, SVG Export Plug-In . SVG Version: 6.00 Build 0)  -->
<!DOCTYPE svg PUBLIC "-//W3C//DTD SVG 1.1//EN" "http://www.w3.org/Graphics/SVG/1.1/DTD/svg11.dtd">
<svg version="1.1" id="Layer_1" xmlns="http://www.w3.org/2000/svg" xmlns:xlink="http://www.w3.org/1999/xlink" x="0px" y="0px"
	 width="188.52px" height="67.717px" viewBox="0 0 188.52 67.717" enable-background="new 0 0 188.52 67.717" xml:space="preserve">
<g>
	<g>
		<path d="M15.325,34.866c15.337,0.212,30.717-0.764,46.074-0.692c14.891,0.069,29.782,0.614,44.667,0.983
			c11.567,0.287,23.133,0.344,34.701,0.516c4.159,0.062,8.317,0.221,12.467,0.506c2.232,0.153,4.391,0.51,6.576,0.979
			c2.207,0.473,3.829,2.565,5.873,3.519c4.456,2.078,9.006-5.349,5.358-8.489c-3.078-2.65-6.659-0.954-10.25-1.166
			c-4.576-0.27-9.143-0.611-13.727-0.751c-11.211-0.342-22.441-0.137-33.656-0.331c-16.121-0.278-32.23-0.67-48.356-0.506
			c-16.383,0.167-33.604,0.48-49.66,4C14.416,33.649,14.071,34.848,15.325,34.866L15.325,34.866z"/>
	</g>
</g>
</svg>
