<?xml version="1.0" encoding="utf-8"?>
<!-- Generator: Adobe Illustrator 16.0.0, SVG Export Plug-In . SVG Version: 6.00 Build 0)  -->
<!DOCTYPE svg PUBLIC "-//W3C//DTD SVG 1.1//EN" "http://www.w3.org/Graphics/SVG/1.1/DTD/svg11.dtd">
<svg version="1.1" id="Layer_1" xmlns="http://www.w3.org/2000/svg" xmlns:xlink="http://www.w3.org/1999/xlink" x="0px" y="0px"
	 width="188.52px" height="62.992px" viewBox="0 0 188.52 62.992" enable-background="new 0 0 188.52 62.992" xml:space="preserve">
<g>
	<g>
		<path d="M19.003,28.393c-2.59-0.438-2.348-1.354-4.311,0.908c-0.184,0.212,0.14,0.342,0.303,0.358
			c24.252,2.37,48.719,1.509,73.051,1.937c12.888,0.227,25.769,0.791,38.602,2.037c11.98,1.164,26.641,1.915,37.365,7.774
			c3.521,1.924,6.471-4.234,2.848-4.341c-6.256-0.185-12.424-1.732-18.579-2.825c-6.83-1.213-13.726-2.041-20.627-2.711
			c-13.057-1.269-26.194-1.676-39.305-1.87c-13.582-0.2-27.183-0.214-40.766-0.113c-6.327,0.047-12.655,0.017-18.98-0.093
			c-3.43-0.06-6.859-0.142-10.29-0.191c-3.281-0.047-0.78-1.019,0.683-0.804C19.058,28.466,19.063,28.403,19.003,28.393
			L19.003,28.393z"/>
	</g>
</g>
</svg>
