<?xml version="1.0" encoding="utf-8"?>
<!-- Generator: Adobe Illustrator 16.0.0, SVG Export Plug-In . SVG Version: 6.00 Build 0)  -->
<!DOCTYPE svg PUBLIC "-//W3C//DTD SVG 1.1//EN" "http://www.w3.org/Graphics/SVG/1.1/DTD/svg11.dtd">
<svg version="1.1" id="Layer_1" xmlns="http://www.w3.org/2000/svg" xmlns:xlink="http://www.w3.org/1999/xlink" x="0px" y="0px"
	 width="188.843px" height="44.307px" viewBox="0 0 188.843 44.307" enable-background="new 0 0 188.843 44.307"
	 xml:space="preserve">
<g>
	<g>
		<path d="M163.86,23.33c3.613-1.149,6.465-2.57,9.632-4.679c0.344-0.229,0.215-0.637-0.085-0.815
			c-9.509-5.679-20.998-4.407-31.447-2.625c-6.001,1.023-11.905,2.58-17.854,3.863c-7.313,1.578-14.775,2.242-22.201,3.063
			c-16.694,1.844-33.464,3.325-50.271,3.294c-10.536-0.021-20.282-2.261-30.687-3.228c-3.314-0.309-8.469-1.584-10.673,1.708
			c-0.629,0.939-1.498,2.733-0.776,3.875c0.792,1.255,3.248,0.94,4.024-0.201c0.015-0.021,1.713-0.646,2.041-0.954
			c-0.647,0.608,0.982-0.002,1.326-0.038c2.168-0.228,4.535,0.255,6.678,0.538c4.707,0.622,9.355,1.632,14.075,2.161
			c14.398,1.615,29.746-0.069,44.103-1.383c14.611-1.337,29.576-2.729,43.89-6.031c7.917-1.826,15.759-4.01,23.795-5.271
			c4.646-0.729,9.35-0.931,14.025-0.371c2.582,0.31,5.187,1.034,7.593,1.977c-0.118,1.737-0.914,2.838-2.387,3.3
			c-1.482,0.777-3.241,1.241-4.836,1.771C163.776,23.3,163.826,23.341,163.86,23.33L163.86,23.33z"/>
	</g>
</g>
</svg>
