<?xml version="1.0" encoding="utf-8"?>
<!-- Generator: Adobe Illustrator 16.0.0, SVG Export Plug-In . SVG Version: 6.00 Build 0)  -->
<!DOCTYPE svg PUBLIC "-//W3C//DTD SVG 1.1//EN" "http://www.w3.org/Graphics/SVG/1.1/DTD/svg11.dtd">
<svg version="1.1" id="Layer_1" xmlns="http://www.w3.org/2000/svg" xmlns:xlink="http://www.w3.org/1999/xlink" x="0px" y="0px"
	 width="209.637px" height="63.976px" viewBox="0 0 209.637 63.976" enable-background="new 0 0 209.637 63.976"
	 xml:space="preserve">
<g>
	<g>
		<path d="M17.604,33.661c28.752-2.195,57.131-0.436,85.729,2.858c13.926,1.604,27.812,3.533,41.737,5.132
			c6.853,0.787,13.682,1.696,20.505,2.696c7.594,1.112,16.037,1.525,23.137,4.614c7.874,3.426,8.793-13.889,0.525-9.649
			c-6.415,3.29-15.632,2.456-22.644,2.518c-7.085,0.062-14.168-0.357-21.218-1.046c-14.599-1.428-29.145-3.303-43.706-5.061
			c-27.764-3.352-56.298-6.22-84.179-2.614C17.01,33.169,17.176,33.693,17.604,33.661L17.604,33.661z"/>
	</g>
</g>
</svg>
