<?xml version="1.0" encoding="utf-8"?>
<!-- Generator: Adobe Illustrator 16.0.0, SVG Export Plug-In . SVG Version: 6.00 Build 0)  -->
<!DOCTYPE svg PUBLIC "-//W3C//DTD SVG 1.1//EN" "http://www.w3.org/Graphics/SVG/1.1/DTD/svg11.dtd">
<svg version="1.1" id="Layer_1" xmlns="http://www.w3.org/2000/svg" xmlns:xlink="http://www.w3.org/1999/xlink" x="0px" y="0px"
	 width="209.637px" height="67.717px" viewBox="0 0 209.637 67.717" enable-background="new 0 0 209.637 67.717"
	 xml:space="preserve">
<g>
	<g>
		<path d="M39.472,38.117c-2.034,0.193-3.952-0.314-5.753-1.522c-0.463,0.508-0.926,1.016-1.39,1.524
			c16.79-0.752,33.528-2.512,50.335-3.206c16.468-0.68,32.946-1.1,49.413-1.807c13.474-0.579,26.579-2.149,39.897-4.231
			c13.414-2.097,29.116-5.565,42.549-2.045c2.184,0.572,4.472-3.139,1.912-3.377c-27.433-2.55-54.071,5.268-81.393,6.614
			c-17.117,0.844-34.249,1.367-51.37,2.133c-17.07,0.765-34.535,1.165-51.409,4.014c-0.825,0.139-1.76,1.388-0.584,1.803
			c2.691,0.949,4.999,0.372,7.807,0.149C39.541,38.163,39.512,38.117,39.472,38.117L39.472,38.117z"/>
	</g>
</g>
</svg>
