<?xml version="1.0" encoding="utf-8"?>
<!-- Generator: Adobe Illustrator 16.0.0, SVG Export Plug-In . SVG Version: 6.00 Build 0)  -->
<!DOCTYPE svg PUBLIC "-//W3C//DTD SVG 1.1//EN" "http://www.w3.org/Graphics/SVG/1.1/DTD/svg11.dtd">
<svg version="1.1" id="Layer_1" xmlns="http://www.w3.org/2000/svg" xmlns:xlink="http://www.w3.org/1999/xlink" x="0px" y="0px"
	 width="188.52px" height="55.055px" viewBox="0 0 188.52 55.055" enable-background="new 0 0 188.52 55.055" xml:space="preserve">
<g>
	<g>
		<path d="M7.358,23.182c25.828,6.071,52.473-1.449,78.592-0.529c10.543,0.371,21.192,1.215,31.71,2.073
			c10.965,0.895,25.219,1.581,34.57,8.069c3.387,2.35,7.6-5.199,3.353-5.774c-5.02-0.68-9.898-2.19-14.974-2.771
			c-5.723-0.654-11.508-1.017-17.26-1.301c-11.108-0.549-22.207-0.569-33.3-1.445c-27.657-2.185-54.945,5.39-82.671,1.616
			C7.33,23.114,7.303,23.169,7.358,23.182L7.358,23.182z"/>
	</g>
</g>
</svg>
