<?xml version="1.0" encoding="utf-8"?>
<!-- Generator: Adobe Illustrator 16.0.0, SVG Export Plug-In . SVG Version: 6.00 Build 0)  -->
<!DOCTYPE svg PUBLIC "-//W3C//DTD SVG 1.1//EN" "http://www.w3.org/Graphics/SVG/1.1/DTD/svg11.dtd">
<svg version="1.1" id="Layer_1" xmlns="http://www.w3.org/2000/svg" xmlns:xlink="http://www.w3.org/1999/xlink" x="0px" y="0px"
	 width="188.843px" height="63.976px" viewBox="0 0 188.843 63.976" enable-background="new 0 0 188.843 63.976"
	 xml:space="preserve">
<g>
	<g>
		<path d="M29.218,39.629c8.138,0.398,16.208,1.459,24.314,2.214c8.21,0.765,16.251,0.483,24.455-0.131
			c15.836-1.184,31.889-2.386,47.62,0.473c7.559,1.374,15.104,2.822,22.616,4.432c4.254,0.912,8.495,1.892,12.694,3.031
			c1.487,0.404,2.962,0.853,4.422,1.348c0.518,0.176,1.032,0.366,1.532,0.587c1.545,0.682,0.483,0.902,0.471-0.704
			c0.025,3.223,5.025,3.226,5,0c-0.041-5.211-12.171-6.627-15.597-7.455c-9.134-2.208-18.382-3.96-27.62-5.66
			c-15.121-2.782-30.175-2.536-45.459-1.47c-8.854,0.618-17.572,1.386-26.454,0.84c-9.355-0.575-18.626-2.048-27.995-2.506
			C25.993,34.471,26.009,39.472,29.218,39.629L29.218,39.629z"/>
	</g>
</g>
</svg>
