<?xml version="1.0" encoding="iso-8859-1"?>
<!-- Generator: Adobe Illustrator 16.0.0, SVG Export Plug-In . SVG Version: 6.00 Build 0)  -->
<!DOCTYPE svg PUBLIC "-//W3C//DTD SVG 1.1//EN" "http://www.w3.org/Graphics/SVG/1.1/DTD/svg11.dtd">
<svg version="1.1" id="Layer_1" xmlns="http://www.w3.org/2000/svg" xmlns:xlink="http://www.w3.org/1999/xlink" x="0px" y="0px"
	 width="59.213px" height="56.496px" viewBox="0 0 59.213 56.496" style="enable-background:new 0 0 59.213 56.496;"
	 xml:space="preserve">
<g>
	<g>
		<path d="M10.583,20.414c3.224,0,3.224-5,0-5S7.359,20.414,10.583,20.414L10.583,20.414z"/>
	</g>
</g>
<g>
	<g>
		<path d="M5.194,14.025c14.656,2.726,26.981,11.591,38.773,20.22c2.606,1.908,5.097-2.434,2.523-4.317
			C34.362,21.052,21.593,12.007,6.523,9.204C3.372,8.618,2.026,13.437,5.194,14.025L5.194,14.025z"/>
	</g>
</g>
<g>
	<g>
		<path d="M19.041,41.223c6.02-10.654,11.029-21.981,22.725-27.449c2.919-1.365,0.378-5.674-2.523-4.317
			C26.748,15.297,21.17,27.289,14.723,38.699C13.135,41.51,17.455,44.029,19.041,41.223L19.041,41.223z"/>
	</g>
</g>
</svg>
