<?xml version="1.0" encoding="iso-8859-1"?>
<!-- Generator: Adobe Illustrator 16.0.0, SVG Export Plug-In . SVG Version: 6.00 Build 0)  -->
<!DOCTYPE svg PUBLIC "-//W3C//DTD SVG 1.1//EN" "http://www.w3.org/Graphics/SVG/1.1/DTD/svg11.dtd">
<svg version="1.1" id="Layer_1" xmlns="http://www.w3.org/2000/svg" xmlns:xlink="http://www.w3.org/1999/xlink" x="0px" y="0px"
	 width="67.717px" height="61.307px" viewBox="0 0 67.717 61.307" style="enable-background:new 0 0 67.717 61.307;"
	 xml:space="preserve">
<g>
	<g>
		<path d="M20.961,20.318c-2.637-3.767-7.153-2.082-8.909,1.611c-2.32,4.879-0.217,12.054,1.719,16.686
			c5.061,12.104,21.724,18.059,32.349,9.552c11.141-8.92,10.331-27.362-2.244-34.219c-5.229-2.851-12.163-3.357-17.807-1.621
			c-7.322,2.253-12.802,7.208-13.601,14.922c-0.318,3.08,3.448,1.479,4.614,0.748c6.718-4.208,12.436-8.539,20.816-5.556
			c7.763,2.764,9.728,10.288,6.756,17.576c-3.933,9.645-16.816,5.11-22.205-0.261c-2.722-2.713-4.069-6.213-5.045-9.858
			c-1.116-4.175-2.232-9.04,3.384-9.326C20.92,20.565,21.05,20.445,20.961,20.318L20.961,20.318z"/>
	</g>
</g>
</svg>
