<?xml version="1.0" encoding="iso-8859-1"?>
<!-- Generator: Adobe Illustrator 16.0.0, SVG Export Plug-In . SVG Version: 6.00 Build 0)  -->
<!DOCTYPE svg PUBLIC "-//W3C//DTD SVG 1.1//EN" "http://www.w3.org/Graphics/SVG/1.1/DTD/svg11.dtd">
<svg version="1.1" id="Layer_1" xmlns="http://www.w3.org/2000/svg" xmlns:xlink="http://www.w3.org/1999/xlink" x="0px" y="0px"
	 width="67.717px" height="63.976px" viewBox="0 0 67.717 63.976" style="enable-background:new 0 0 67.717 63.976;"
	 xml:space="preserve">
<g>
	<g>
		<path d="M10.222,15.158c3.608,7.56,11.119,11.931,18.089,16.005c8.3,4.852,20.538,10.113,22.32,20.709
			c0.16,0.95,1.084,1.334,1.962,1.26c1.058-0.09,1.477-0.406,2.202-1.177c0.296-0.314,0.635-1.035,0.494-1.486
			c-6.064-19.5-34.449-18.841-44.313-35.438C10.818,14.765,10.056,14.811,10.222,15.158L10.222,15.158z"/>
	</g>
</g>
<g>
	<g>
		<path d="M45.236,13.495c-7.743,0.341-13.32,7.624-17.566,13.25c-3.479,4.609-6.444,9.583-9.35,14.566
			c-2.129,3.65-4.757,7.354-6.477,11.208c-1.154,2.585,2.789,2.461,3.809,0.742c0.65-1.095,1.005-2.165,1.563-3.304
			c0.606-1.239-1.475-1.14-2.056-0.632c-0.898,0.786-1.648,1.67-2.597,2.409c0.929,0.648,1.856,1.296,2.784,1.944
			c3.9-4.735,6.232-11.329,9.197-16.676c4.037-7.282,10.795-21.722,20.717-23.458C45.309,13.535,45.266,13.493,45.236,13.495
			L45.236,13.495z"/>
	</g>
</g>
</svg>
