<?xml version="1.0" encoding="iso-8859-1"?>
<!-- Generator: Adobe Illustrator 16.0.0, SVG Export Plug-In . SVG Version: 6.00 Build 0)  -->
<!DOCTYPE svg PUBLIC "-//W3C//DTD SVG 1.1//EN" "http://www.w3.org/Graphics/SVG/1.1/DTD/svg11.dtd">
<svg version="1.1" id="Layer_1" xmlns="http://www.w3.org/2000/svg" xmlns:xlink="http://www.w3.org/1999/xlink" x="0px" y="0px"
	 width="71.653px" height="61.307px" viewBox="0 0 71.653 61.307" style="enable-background:new 0 0 71.653 61.307;"
	 xml:space="preserve">
<g>
	<g>
		<path d="M34.916,26.678c-7.017-3.634-20.823-7.371-21.872,4.606c-0.756,8.618,7.542,16.355,16.023,14.593
			c12.438-2.585,17.975-22.805,5.221-29.035c-5.225-2.553-12.943-2.307-16.096,3.338c-3.342,5.986-0.159,12.644,4.044,17.246
			c0.51,0.559,2.343,0.022,1.824-0.831c-2.327-3.831-3.111-8.061-2.593-12.495c0.745-6.358,8.002-5.197,11.778-1.862
			c6.733,5.944,3.368,21.054-6.715,20.182c-5.193-0.449-9.052-5.898-9.638-10.729c-1.274-10.498,12.369-7.112,17.979-4.973
			C34.903,26.729,34.964,26.702,34.916,26.678L34.916,26.678z"/>
	</g>
</g>
</svg>
