<?xml version="1.0" encoding="iso-8859-1"?>
<!-- Generator: Adobe Illustrator 16.0.0, SVG Export Plug-In . SVG Version: 6.00 Build 0)  -->
<!DOCTYPE svg PUBLIC "-//W3C//DTD SVG 1.1//EN" "http://www.w3.org/Graphics/SVG/1.1/DTD/svg11.dtd">
<svg version="1.1" id="Layer_1" xmlns="http://www.w3.org/2000/svg" xmlns:xlink="http://www.w3.org/1999/xlink" x="0px" y="0px"
	 width="71.653px" height="57.433px" viewBox="0 0 71.653 57.433" style="enable-background:new 0 0 71.653 57.433;"
	 xml:space="preserve">
<g>
	<g>
		<path d="M37.8,16.931c-6.303,1.502-12.546,1.645-16.228,7.674c-3.401,5.568-4.592,13.008-0.326,18.374
			c8.037,10.109,28.04,6.635,34.537-3.579c9.181-14.434-26.408-30.366-26.891-14.204c-0.012,0.396,0.788,0.362,0.859,0.002
			c2.663-13.366,26.006,0.804,23.241,11.569c-0.964,3.752-5.342,5.53-8.604,6.636c-5.73,1.942-12.551,1.662-17.505-2.022
			c-5.556-4.132-4.042-11.76-1.202-17.016c2.5-4.626,8.107-5.182,12.633-6.699C39.027,17.427,38.295,16.812,37.8,16.931L37.8,16.931
			z"/>
	</g>
</g>
</svg>
