<?xml version="1.0" encoding="iso-8859-1"?>
<!-- Generator: Adobe Illustrator 16.0.0, SVG Export Plug-In . SVG Version: 6.00 Build 0)  -->
<!DOCTYPE svg PUBLIC "-//W3C//DTD SVG 1.1//EN" "http://www.w3.org/Graphics/SVG/1.1/DTD/svg11.dtd">
<svg version="1.1" id="Layer_1" xmlns="http://www.w3.org/2000/svg" xmlns:xlink="http://www.w3.org/1999/xlink" x="0px" y="0px"
	 width="67.717px" height="55.055px" viewBox="0 0 67.717 55.055" style="enable-background:new 0 0 67.717 55.055;"
	 xml:space="preserve">
<g>
	<g>
		<path d="M18.688,40.533c6.277-0.989,11.51-6.097,16.111-10.152c6.415-5.655,12.361-11.812,18.416-17.843
			c-1.159,0.192-2.319,0.384-3.479,0.576c0.047,0.057,0.093,0.113,0.139,0.17c-0.057-0.572-0.114-1.144-0.171-1.716
			c-0.531,0.95-1.098,1.625-1.339,2.705c-0.332,1.492,2.433,1.048,2.947,0.284c0.521-0.507,1.061-0.993,1.619-1.457
			c0.799-0.679,1.299-1.631,0.558-2.544c-0.046-0.057-0.092-0.114-0.138-0.17c-0.875-1.078-2.759-0.155-3.479,0.576
			c-5.264,5.334-10.323,10.863-15.675,16.11c-4.369,4.284-9.958,10.535-15.94,12.587C17.353,39.967,17.966,40.646,18.688,40.533
			L18.688,40.533z"/>
	</g>
</g>
<g>
	<g>
		<path d="M21.635,12.754c4.76,6.591,10.37,12.186,16.3,17.703c4.049,3.767,8.126,7.497,12.053,11.392
			c3.441,3.415,6.601,8.888,10.998,10.922c0.696,0.322,2.374-0.156,2.127-1.169c-0.953-3.905-4.69-6.725-7.492-9.461
			c-3.632-3.545-7.514-6.835-11.366-10.135c-7.332-6.278-14.811-12.515-21.165-19.812C22.704,11.753,21.199,12.15,21.635,12.754
			L21.635,12.754z"/>
	</g>
</g>
</svg>
