<?xml version="1.0" encoding="iso-8859-1"?>
<!-- Generator: Adobe Illustrator 16.0.0, SVG Export Plug-In . SVG Version: 6.00 Build 0)  -->
<!DOCTYPE svg PUBLIC "-//W3C//DTD SVG 1.1//EN" "http://www.w3.org/Graphics/SVG/1.1/DTD/svg11.dtd">
<svg version="1.1" id="Layer_1" xmlns="http://www.w3.org/2000/svg" xmlns:xlink="http://www.w3.org/1999/xlink" x="0px" y="0px"
	 width="73.229px" height="63.976px" viewBox="0 0 73.229 63.976" style="enable-background:new 0 0 73.229 63.976;"
	 xml:space="preserve">
<g>
	<g>
		<path d="M17.804,9.75c2.35,8.472,9.551,15.218,15.29,21.547c2.997,3.306,5.855,6.686,8.635,10.175
			c1.412,1.774,2.931,3.477,4.157,5.391c0.509,0.793,1.661,3.788,2.168,3.227c-0.528,0.584-0.122,1.357,0.631,1.418
			c2.244,0.182,4.67-2.304,3.142-4.578c-2.501-3.719-5.921-6.9-8.894-10.242c-7.934-8.92-18.604-16.205-23.791-27.273
			C18.887,8.871,17.617,9.078,17.804,9.75L17.804,9.75z"/>
	</g>
</g>
<g>
	<g>
		<path d="M49.809,9.467c-5.905,3.53-10.229,8.607-14.455,13.939c-4.79,6.042-9.636,11.727-15.236,17.049
			c-4.792,4.554-9.69,8.944-13.931,14.034c-0.826,0.993-0.512,3.165,0.756,3.661c1.998,0.782,3.067-0.309,4.7-1.407
			c0.978-0.657,0.428-1.683-0.535-1.854c-0.768-0.136,0.425-0.468,1.26-1.486c1.826-2.225,3.858-4.285,5.866-6.343
			c4.146-4.249,8.359-8.375,12.164-12.941c6.696-8.035,11.318-17.971,19.77-24.449C50.357,9.523,49.937,9.391,49.809,9.467
			L49.809,9.467z"/>
	</g>
</g>
</svg>
