<?xml version="1.0" encoding="iso-8859-1"?>
<!-- Generator: Adobe Illustrator 16.0.0, SVG Export Plug-In . SVG Version: 6.00 Build 0)  -->
<!DOCTYPE svg PUBLIC "-//W3C//DTD SVG 1.1//EN" "http://www.w3.org/Graphics/SVG/1.1/DTD/svg11.dtd">
<svg version="1.1" id="Layer_1" xmlns="http://www.w3.org/2000/svg" xmlns:xlink="http://www.w3.org/1999/xlink" x="0px" y="0px"
	 width="71.654px" height="67.717px" viewBox="0 0 71.654 67.717" style="enable-background:new 0 0 71.654 67.717;"
	 xml:space="preserve">
<g>
	<g>
		<path d="M19.909,47.419c3.949,4.622,16.052-4.128,19.539-6.251c9.227-5.617,19.956-14.674,31.183-15.209
			c-0.377-1.652-0.753-3.305-1.129-4.957c-0.927,0.699-1.918,1.299-2.972,1.801c-0.842,0.398-1.343,1.801-0.127,2.098
			c0.948,0.207,1.882,0.464,2.803,0.772c4.252,2.341,7.291-6.208,2.622-5.696c-9.779,1.073-18.588,7.449-26.429,12.924
			C37.74,38.249,29.49,45.601,20.012,47.278C19.952,47.289,19.844,47.343,19.909,47.419L19.909,47.419z"/>
	</g>
</g>
<g>
	<g>
		<path d="M23.955,19.834c0.991,0.715,2.295,0.714,3.444,1.049c2.111,0.615,4.156,1.594,6.077,2.64
			c4.564,2.486,8.604,5.914,12.468,9.353c7.553,6.721,14.02,14.441,21.119,21.598c1.535-1.729,3.07-3.458,4.605-5.187
			c-14.424-9.478-25.884-25.05-43.106-29.723c-1.514-0.411-3.25,0.64-3.946,1.961c-0.718,1.362-1.106,2.656-0.676,4.166
			c0.725,2.543,4.677,1.02,5.165-0.946c0.138-0.649,0.32-1.285,0.548-1.908c-1.315,0.653-2.631,1.307-3.946,1.961
			c16.601,5.08,27.896,20.703,41.933,30.119c2.535,1.701,6.902-2.896,4.605-5.187c-7.961-7.942-16.511-15.562-25.722-22.021
			c-4.321-3.031-8.862-5.754-13.83-7.581c-2.16-0.794-6.837-2.264-8.741-0.325C23.942,19.813,23.944,19.826,23.955,19.834
			L23.955,19.834z"/>
	</g>
</g>
</svg>
