<?xml version="1.0" encoding="iso-8859-1"?>
<!-- Generator: Adobe Illustrator 16.0.0, SVG Export Plug-In . SVG Version: 6.00 Build 0)  -->
<!DOCTYPE svg PUBLIC "-//W3C//DTD SVG 1.1//EN" "http://www.w3.org/Graphics/SVG/1.1/DTD/svg11.dtd">
<svg version="1.1" id="Layer_1" xmlns="http://www.w3.org/2000/svg" xmlns:xlink="http://www.w3.org/1999/xlink" x="0px" y="0px"
	 width="71.654px" height="61.307px" viewBox="0 0 71.654 61.307" style="enable-background:new 0 0 71.654 61.307;"
	 xml:space="preserve">
<g>
	<g>
		<path d="M39.565,20.329c-11.821,2.679-2.476,31.434,11.109,17.646c7.129-7.235,5.857-21.003-1.973-27.244
			c-3.727-2.97-8.566-2.355-12.778-1.01c-2.225,0.711-4.362,1.664-6.59,2.372c-4.282,1.361-6.347,0.08-8.455-3.824
			c-0.358-0.664-2.221-0.36-1.95,0.459c2.089,6.314,6.377,8.861,12.819,6.599c3.384-1.188,6.662-3.038,10.36-2.642
			c5.065,0.543,7.59,7.014,8.462,11.2c1.04,4.988-0.136,9.597-3.587,13.276c-2.913,3.104-5.973,1.488-8.084-1.52
			c-2.637-3.755-4.974-13.033,0.773-15.175C39.822,20.412,39.663,20.307,39.565,20.329L39.565,20.329z"/>
	</g>
</g>
</svg>
