<?xml version="1.0" encoding="iso-8859-1"?>
<!-- Generator: Adobe Illustrator 16.0.0, SVG Export Plug-In . SVG Version: 6.00 Build 0)  -->
<!DOCTYPE svg PUBLIC "-//W3C//DTD SVG 1.1//EN" "http://www.w3.org/Graphics/SVG/1.1/DTD/svg11.dtd">
<svg version="1.1" id="Layer_1" xmlns="http://www.w3.org/2000/svg" xmlns:xlink="http://www.w3.org/1999/xlink" x="0px" y="0px"
	 width="71.653px" height="63.976px" viewBox="0 0 71.653 63.976" style="enable-background:new 0 0 71.653 63.976;"
	 xml:space="preserve">
<g>
	<g>
		<path d="M18.511,17.454c-0.82-1.74-1.247-2.495-0.77-4.654c-0.519,0.1-1.036,0.2-1.555,0.3c2.555,3.113,5.926,5.594,8.904,8.296
			c3.791,3.439,7.507,6.961,11.333,10.362c7.37,6.552,15.206,11.999,23.406,17.418c2.582,1.707,6.339-2.82,3.421-3.861
			c-1.257-0.442-2.507-0.899-3.752-1.373c-0.774-0.296-2.881,0.347-2.408,1.518c0.664,1.643,1.387,2.545,2.739,3.716
			c1.14-1.287,2.28-2.574,3.421-3.861c-9.13-3.913-17.16-10.606-24.844-16.793c-6.691-5.388-13.318-12.254-20.945-16.26
			c-0.451-0.237-1.691-0.026-1.376,0.709c0.69,1.613,1.44,3.002,2.352,4.495C18.451,17.488,18.525,17.485,18.511,17.454
			L18.511,17.454z"/>
	</g>
</g>
<g>
	<g>
		<path d="M57.648,16.447c-7.641,3.629-13.883,9.547-20.213,15.052c-4.444,3.864-8.906,6.888-13.834,10.015
			c-2.665,1.691-8.546,4.395-9.783,7.566c-0.896,2.297,0.739,3.243,2.873,2.272c0.717-0.326,1.224-1.36,0.227-1.723
			c-0.089,1.048,0.128,1.257,0.652,0.625c0.541-0.427,1.056-0.91,1.577-1.361c1.381-1.195,2.858-2.281,4.325-3.367
			c2.52-1.865,5.106-3.662,7.778-5.303c4.534-2.785,8.37-7.347,12.218-10.98c4.661-4.402,9.557-8.496,14.648-12.389
			C58.472,16.582,57.908,16.323,57.648,16.447L57.648,16.447z"/>
	</g>
</g>
</svg>
