<?xml version="1.0" encoding="iso-8859-1"?>
<!-- Generator: Adobe Illustrator 16.0.0, SVG Export Plug-In . SVG Version: 6.00 Build 0)  -->
<!DOCTYPE svg PUBLIC "-//W3C//DTD SVG 1.1//EN" "http://www.w3.org/Graphics/SVG/1.1/DTD/svg11.dtd">
<svg version="1.1" id="Layer_1" xmlns="http://www.w3.org/2000/svg" xmlns:xlink="http://www.w3.org/1999/xlink" x="0px" y="0px"
	 width="59.213px" height="55.055px" viewBox="0 0 59.213 55.055" style="enable-background:new 0 0 59.213 55.055;"
	 xml:space="preserve">
<g>
	<g>
		<path d="M19.388,12.677c-0.038,2.156,1.962,4.083,3.188,5.736c2.448,3.302,5.373,6.302,8.141,9.333
			c5.25,5.749,10.461,13.49,17.001,17.768c0.614,0.401,2.711,0.151,2.319-0.979c-2.429-7.009-9.938-12.652-14.998-17.806
			c-2.931-2.985-5.839-5.991-8.623-9.115c-1.626-1.825-3.175-4.575-5.379-5.661C20.456,11.668,19.401,11.917,19.388,12.677
			L19.388,12.677z"/>
	</g>
</g>
<g>
	<g>
		<path d="M41.678,16.658c-7.279,4.402-13.274,10.557-18.358,17.324c-3.907,5.202-10.391,14.294-8.693,21.229
			c0.194,0.794,1.672,0.731,1.997,0.064c1.426-2.926,2.249-6.071,3.402-9.11c1.708-4.5,4.301-8.636,7.066-12.552
			c4.334-6.139,9.784-11.682,16.113-15.752C44.598,16.966,42.68,16.052,41.678,16.658L41.678,16.658z"/>
	</g>
</g>
</svg>
