<?xml version="1.0" encoding="iso-8859-1"?>
<!-- Generator: Adobe Illustrator 16.0.0, SVG Export Plug-In . SVG Version: 6.00 Build 0)  -->
<!DOCTYPE svg PUBLIC "-//W3C//DTD SVG 1.1//EN" "http://www.w3.org/Graphics/SVG/1.1/DTD/svg11.dtd">
<svg version="1.1" id="Layer_1" xmlns="http://www.w3.org/2000/svg" xmlns:xlink="http://www.w3.org/1999/xlink" x="0px" y="0px"
	 width="71.653px" height="56.496px" viewBox="0 0 71.653 56.496" style="enable-background:new 0 0 71.653 56.496;"
	 xml:space="preserve">
<g>
	<g>
		<path d="M13.697,21.112c17.654,3,27.833,20.907,44.882,25.197c3.128,0.787,4.455-4.035,1.329-4.821
			c-16.983-4.273-27.084-22.173-44.882-25.197C11.874,15.755,10.523,20.573,13.697,21.112L13.697,21.112z"/>
	</g>
</g>
<g>
	<g>
		<path d="M49.999,1.691c-8.776,15.83-29.53,22.304-36.472,39.18c-1.227,2.982,3.612,4.268,4.821,1.329
			c3.136-7.623,11.232-13.112,17.357-18.19c6.968-5.778,14.159-11.765,18.611-19.795C55.88,1.393,51.562-1.128,49.999,1.691
			L49.999,1.691z"/>
	</g>
</g>
</svg>
