<?xml version="1.0" encoding="iso-8859-1"?>
<!-- Generator: Adobe Illustrator 16.0.0, SVG Export Plug-In . SVG Version: 6.00 Build 0)  -->
<!DOCTYPE svg PUBLIC "-//W3C//DTD SVG 1.1//EN" "http://www.w3.org/Graphics/SVG/1.1/DTD/svg11.dtd">
<svg version="1.1" id="Layer_1" xmlns="http://www.w3.org/2000/svg" xmlns:xlink="http://www.w3.org/1999/xlink" x="0px" y="0px"
	 width="66.33px" height="57.433px" viewBox="0 0 66.33 57.433" style="enable-background:new 0 0 66.33 57.433;"
	 xml:space="preserve">
<g>
	<g>
		<path d="M37.171,14.152c-11.084,5.244-1.069,20.415,5.691,24.733c9.566,6.11,19.261-4.147,16.909-14.01
			c-2.158-9.049-14.869-12.837-22.914-12.72c-3.461,0.051-8.244,0.968-10.005,4.341c-1.928,3.691,1.769,7.433,4.183,9.806
			c0.452,0.444,1.842,0.059,1.301-0.637c-1.56-2.003-4.441-6.161-2.026-8.596c1.791-1.805,5.289-1.53,7.574-1.428
			c6.358,0.283,14.261,3.236,17.354,9.164c1.752,3.357,0.809,7.199-0.982,10.313c-2.633,4.578-7.44,3.01-10.986,0.559
			c-5.683-3.929-13.775-15.894-6.04-21.49C37.263,14.164,37.191,14.143,37.171,14.152L37.171,14.152z"/>
	</g>
</g>
</svg>
