<?xml version="1.0" encoding="iso-8859-1"?>
<!-- Generator: Adobe Illustrator 16.0.0, SVG Export Plug-In . SVG Version: 6.00 Build 0)  -->
<!DOCTYPE svg PUBLIC "-//W3C//DTD SVG 1.1//EN" "http://www.w3.org/Graphics/SVG/1.1/DTD/svg11.dtd">
<svg version="1.1" id="Layer_1" xmlns="http://www.w3.org/2000/svg" xmlns:xlink="http://www.w3.org/1999/xlink" x="0px" y="0px"
	 width="66.33px" height="55.055px" viewBox="0 0 66.33 55.055" style="enable-background:new 0 0 66.33 55.055;"
	 xml:space="preserve">
<g>
	<g>
		<path d="M29.514,10.75c2.24,0.335,4.809,3.12,6.488,4.482c2.987,2.423,5.86,4.987,8.767,7.504
			c4.872,4.219,9.523,8.966,14.755,12.739c0.129-0.743,0.258-1.486,0.387-2.229c1.015-0.549,0.01-0.647-0.431-0.848
			c-0.459-0.209-2.289,0.169-1.64,0.95c0.4,0.48,0.963,1.017,1.21,1.583c0.743,1.702,4.355,0.223,3.544-1.292
			c-1.209-2.26-4.378-3.871-6.366-5.437c-3.694-2.911-7.369-5.845-11.081-8.734c-3.361-2.615-6.817-5.142-10.376-7.48
			c-1.443-0.949-3.134-2.221-4.917-2.39C28.927,9.509,28.392,10.582,29.514,10.75L29.514,10.75z"/>
	</g>
</g>
<g>
	<g>
		<path d="M50.479,6.299c-7.252,3.251-12.295,10.007-16.46,16.525c-4.141,6.481-8.236,14.306-8.453,22.122
			c-0.025,0.903,1.687,0.528,1.925-0.076C32.49,32.204,38.212,14.24,51.409,7.749C52.832,7.048,51.7,5.752,50.479,6.299
			L50.479,6.299z"/>
	</g>
</g>
</svg>
