<?xml version="1.0" encoding="iso-8859-1"?>
<!-- Generator: Adobe Illustrator 16.0.0, SVG Export Plug-In . SVG Version: 6.00 Build 0)  -->
<!DOCTYPE svg PUBLIC "-//W3C//DTD SVG 1.1//EN" "http://www.w3.org/Graphics/SVG/1.1/DTD/svg11.dtd">
<svg version="1.1" id="Layer_1" xmlns="http://www.w3.org/2000/svg" xmlns:xlink="http://www.w3.org/1999/xlink" x="0px" y="0px"
	 width="73.229px" height="55.055px" viewBox="0 0 73.229 55.055" style="enable-background:new 0 0 73.229 55.055;"
	 xml:space="preserve">
<g>
	<g>
		<path d="M16.745,37.125c6.239-0.173,11.092-5.312,15.223-9.413c6.225-6.178,12.188-14.05,21.496-15.023
			c-0.527-0.266-1.054-0.531-1.581-0.796c0.001,1.6-0.405,3.053-1.22,4.36c-0.492,0.93,1.138,1.063,1.625,0.593
			c2.251-2.172,3.72-3.072,3.745-6.395c0.007-0.891-0.979-1.198-1.687-1.217C47.01,9.041,40.731,14.55,35.848,19.388
			C30.919,24.27,24.661,34.622,17.05,35.191C15.583,35.301,14.92,37.175,16.745,37.125L16.745,37.125z"/>
	</g>
</g>
<g>
	<g>
		<path d="M19.89,13.786c6.368,1.308,12.284,6.433,17.045,10.581c5.029,4.383,10.018,9.648,13.697,15.238
			c0.375,0.568,2.109,0.426,1.879-0.423c-2.008-7.433-8.51-12.801-14.331-17.379c-5.062-3.981-11.316-8.514-17.976-8.94
			C19.46,12.813,18.966,13.596,19.89,13.786L19.89,13.786z"/>
	</g>
</g>
</svg>
