<?xml version="1.0" encoding="iso-8859-1"?>
<!-- Generator: Adobe Illustrator 16.0.0, SVG Export Plug-In . SVG Version: 6.00 Build 0)  -->
<!DOCTYPE svg PUBLIC "-//W3C//DTD SVG 1.1//EN" "http://www.w3.org/Graphics/SVG/1.1/DTD/svg11.dtd">
<svg version="1.1" id="Layer_1" xmlns="http://www.w3.org/2000/svg" xmlns:xlink="http://www.w3.org/1999/xlink" x="0px" y="0px"
	 width="71.653px" height="68.693px" viewBox="0 0 71.653 68.693" style="enable-background:new 0 0 71.653 68.693;"
	 xml:space="preserve">
<g>
	<g>
		<path d="M20.903,25.287c-3.111,0.27,0.202-0.231-1.885,0.648c1.173-0.494,2.346-0.945,3.569-1.302
			c2.148-0.626,4.409-0.718,6.613-0.396c3.188,0.466,6.011,2.286,8.166,4.612c1.901,2.053,6.97,10.871,2.791,13.166
			c-2.188,1.202-5.895-0.933-7.75-1.896c-4.453-2.312-10.972-6.623-12.354-11.824c-2.103-7.917,19.712-7.963,23.521-7.89
			c0.72,0.014,1.633-0.852,0.565-1.174c-5.611-1.698-10.95-1.828-16.685-0.676c-4.257,0.855-10.528,3.104-11.761,7.895
			c-1.703,6.613,6.072,12.053,10.677,15.121c3.812,2.539,8.631,5.134,13.364,4.074c8.031-1.799,5.404-11.448,1.963-16.093
			c-5.749-7.761-16.401-8.657-24.27-3.67c-0.418,0.265,0.177,0.59,0.463,0.514c1.221-0.328,1.735-0.708,3.039-1.062
			C20.974,25.323,20.934,25.285,20.903,25.287L20.903,25.287z"/>
	</g>
</g>
</svg>
