<?xml version="1.0" encoding="iso-8859-1"?>
<!-- Generator: Adobe Illustrator 16.0.0, SVG Export Plug-In . SVG Version: 6.00 Build 0)  -->
<!DOCTYPE svg PUBLIC "-//W3C//DTD SVG 1.1//EN" "http://www.w3.org/Graphics/SVG/1.1/DTD/svg11.dtd">
<svg version="1.1" id="Layer_1" xmlns="http://www.w3.org/2000/svg" xmlns:xlink="http://www.w3.org/1999/xlink" x="0px" y="0px"
	 width="59.213px" height="83.331px" viewBox="0 0 59.213 83.331" style="enable-background:new 0 0 59.213 83.331;"
	 xml:space="preserve">
<g>
	<g>
		<path d="M41.678-38.397c-7.279,4.402-13.274,10.557-18.358,17.324c-3.907,5.202-10.391,14.294-8.693,21.229
			c0.194,0.794,1.672,0.731,1.997,0.064c1.426-2.926,2.249-6.071,3.402-9.11c1.708-4.5,4.301-8.636,7.066-12.552
			c4.334-6.139,9.784-11.682,16.113-15.752C44.598-38.089,42.68-39.003,41.678-38.397L41.678-38.397z"/>
	</g>
</g>
<g>
	<g>
		<path d="M11.676,71.077c1.871-2.83,2.761-6.453,4.521-9.439c2.032-3.448,4.374-6.717,6.618-10.027
			c1.853-2.733,10.289-13.316,7.087-16.669c-0.394-0.413-1.292-0.259-1.659,0.103c-2.049,2.018-2.653,5.444-3.989,7.966
			c-2.036,3.842-4.497,7.474-6.842,11.13c-2.251,3.508-9.531,12.38-7.24,16.945C10.422,71.587,11.396,71.5,11.676,71.077
			L11.676,71.077z"/>
	</g>
</g>
<g>
	<g>
		<path d="M10.269,31.525c-0.581,0.943,2.283,3.985,2.766,4.592c2.782,3.497,5.451,7.085,8.108,10.677
			c5.219,7.055,11.254,14.242,15.148,22.143c1.007,2.043,5.031,0.064,4.584-1.967c-0.383-1.74-0.902-2.483-2.234-3.766
			c-0.637-0.615-2.072-0.108-2.078,0.783c-0.01,1.38-0.217,2.601-0.42,3.967c1.524-0.486,3.049-0.972,4.574-1.458
			c-6.305-8.294-12.735-16.45-19.47-24.404C19.384,39.892,13.815,30.94,10.15,31.36c-0.044,0.005-0.091,0.025-0.1,0.073
			c-0.003,0.018-0.006,0.036-0.009,0.054C10.022,31.588,10.228,31.591,10.269,31.525L10.269,31.525z"/>
	</g>
</g>
</svg>
