<?xml version="1.0" encoding="iso-8859-1"?>
<!-- Generator: Adobe Illustrator 16.0.0, SVG Export Plug-In . SVG Version: 6.00 Build 0)  -->
<!DOCTYPE svg PUBLIC "-//W3C//DTD SVG 1.1//EN" "http://www.w3.org/Graphics/SVG/1.1/DTD/svg11.dtd">
<svg version="1.1" id="Layer_1" xmlns="http://www.w3.org/2000/svg" xmlns:xlink="http://www.w3.org/1999/xlink" x="0px" y="0px"
	 width="46.897px" height="83.331px" viewBox="0 0 46.897 83.331" style="enable-background:new 0 0 46.897 83.331;"
	 xml:space="preserve">
<g>
	<g>
		<path d="M2.993,9.636c8.175,5.231,12.563,15.682,16.506,24.11c4.558,9.745,7.923,20.676,14.059,29.586
			c0.634-1.205,1.269-2.41,1.903-3.615c-1.013,0.524-2.05,0.994-3.111,1.411c-0.592,0.161-1.066,1.08-0.277,1.354
			c0.654,0.374,1.277,0.794,1.869,1.261c1.887,1.389,5.711-1.229,4.341-3.455c-5.85-9.511-10.202-19.752-15.29-29.673
			c-4.299-8.38-9.72-18.145-18.712-22.142C3.515,8.134,1.907,8.941,2.993,9.636L2.993,9.636z"/>
	</g>
</g>
<g>
	<g>
		<path d="M30.53,3.727C23.3,15.029,18.349,27.355,14.038,40.024c-2.439,7.17-4.649,14.417-6.806,21.676
			c-1.456,4.905-5.08,11.618-3.382,16.622c0.437,1.285,2.188,1.588,3.298,1.138c5.695-2.31,5.557-10.611,6.795-15.92
			c1.593-6.832,3.207-13.655,5.021-20.432c3.56-13.296,8.167-26.257,13.097-39.098C32.342,3.28,30.83,3.257,30.53,3.727L30.53,3.727
			z"/>
	</g>
</g>
</svg>
