<?xml version="1.0" encoding="iso-8859-1"?>
<!-- Generator: Adobe Illustrator 16.0.0, SVG Export Plug-In . SVG Version: 6.00 Build 0)  -->
<!DOCTYPE svg PUBLIC "-//W3C//DTD SVG 1.1//EN" "http://www.w3.org/Graphics/SVG/1.1/DTD/svg11.dtd">
<svg version="1.1" id="Layer_1" xmlns="http://www.w3.org/2000/svg" xmlns:xlink="http://www.w3.org/1999/xlink" x="0px" y="0px"
	 width="46.897px" height="55.055px" viewBox="0 0 46.897 55.055" style="enable-background:new 0 0 46.897 55.055;"
	 xml:space="preserve">
<g>
	<g>
		<path d="M16.054,44.242c3.133-3.718,6.553-7.146,10.027-10.541c2.98-2.913,7.563-6.15,9.095-10.091
			c0.303-0.779-1.153-0.774-1.519-0.552c-3.442,2.096-6.056,5.768-8.779,8.712c-3.59,3.882-7.125,7.807-10.287,12.05
			C14.045,44.554,15.634,44.74,16.054,44.242L16.054,44.242z"/>
	</g>
</g>
<g>
	<g>
		<path d="M17.233,18.133c6.316,11.517,16.424,19.655,19.282,33.073c0.143,0.67,1.603,0.673,1.694-0.02
			c1.828-13.771-13.411-22.929-20.074-33.224C17.934,17.649,17.014,17.733,17.233,18.133L17.233,18.133z"/>
	</g>
</g>
</svg>
