<?xml version="1.0" encoding="iso-8859-1"?>
<!-- Generator: Adobe Illustrator 16.0.0, SVG Export Plug-In . SVG Version: 6.00 Build 0)  -->
<!DOCTYPE svg PUBLIC "-//W3C//DTD SVG 1.1//EN" "http://www.w3.org/Graphics/SVG/1.1/DTD/svg11.dtd">
<svg version="1.1" id="Layer_1" xmlns="http://www.w3.org/2000/svg" xmlns:xlink="http://www.w3.org/1999/xlink" x="0px" y="0px"
	 width="71.653px" height="83.331px" viewBox="0 0 71.653 83.331" style="enable-background:new 0 0 71.653 83.331;"
	 xml:space="preserve">
<g>
	<g>
		<path d="M30.004,68.533c3.234,0.891,8.543-8.465,9.973-10.329c5.088-6.63,9.974-13.515,15.698-19.622
			c-1.196,0.042-2.393,0.084-3.59,0.126c0.685,0.961,1.019,2.016,1.003,3.166c0.093,0.924,1.771,0.587,2.001-0.097
			c1.015-3.013,1.012-1.847,1.117-4.478c0.079-1.992-2.959-1.02-3.693-0.29c-4.667,4.64-8.353,10.553-12.19,15.864
			c-2.214,3.065-4.415,6.14-6.657,9.185c-0.861,1.169-1.727,2.332-2.57,3.514c-0.99,1.387-1.636,1.138-0.156,1.329
			C29.849,66.76,28.419,68.096,30.004,68.533L30.004,68.533z"/>
	</g>
</g>
<g>
	<g>
		<path d="M23.693,31.032c2.953-1.135,7.125,4.003,8.816,5.805c3.334,3.552,6.235,7.536,9.09,11.474
			c2.742,3.782,5.366,7.65,7.997,11.51c1.755,2.576,3.5,6.204,6.007,8.108c1.085,0.825,3.987-0.619,3.236-2.101
			c-1.708-3.375-4.938-6.493-7.23-9.505c-3.516-4.62-7.074-9.207-10.825-13.64c-2.994-3.539-11.608-15.522-17.707-12.297
			C22.379,30.754,23.203,31.221,23.693,31.032L23.693,31.032z"/>
	</g>
</g>
</svg>
