<?xml version="1.0" encoding="iso-8859-1"?>
<!-- Generator: Adobe Illustrator 16.0.0, SVG Export Plug-In . SVG Version: 6.00 Build 0)  -->
<!DOCTYPE svg PUBLIC "-//W3C//DTD SVG 1.1//EN" "http://www.w3.org/Graphics/SVG/1.1/DTD/svg11.dtd">
<svg version="1.1" id="Layer_1" xmlns="http://www.w3.org/2000/svg" xmlns:xlink="http://www.w3.org/1999/xlink" x="0px" y="0px"
	 width="46.897px" height="66px" viewBox="0 0 46.897 66" style="enable-background:new 0 0 46.897 66;" xml:space="preserve">
<g>
	<g>
		<path d="M15.23,22.001c-3.773-1.687-6.604,1.021-7.449,4.652c-1.29,5.549,0.405,11.724,2.698,16.762
			c2.559,5.62,7.119,10.465,13.639,10.312c7.159-0.168,13.281-7.861,15.754-13.854c5.221-12.65-4.101-25.424-15.886-29.714
			C10.596,5.285-1.975,17.064,1.368,30.857c0.178,0.393,0.355,0.786,0.532,1.18c1.045,2.318,4.37-0.174,4.761-1.676
			c1.092-4.188,0.635-10.182,4.992-12.565c3.035-1.661,7.158-0.538,10.146,0.63c7.271,2.843,13.605,10.673,11.763,18.747
			c-0.898,3.939-4.248,9.341-8.557,10.071c-3.537,0.601-6.646-2.83-8.504-5.338c-2.403-3.244-9.929-19.506-1.285-19.86
			C15.245,22.044,15.261,22.015,15.23,22.001L15.23,22.001z"/>
	</g>
</g>
</svg>
