<?xml version="1.0" encoding="iso-8859-1"?>
<!-- Generator: Adobe Illustrator 16.0.0, SVG Export Plug-In . SVG Version: 6.00 Build 0)  -->
<!DOCTYPE svg PUBLIC "-//W3C//DTD SVG 1.1//EN" "http://www.w3.org/Graphics/SVG/1.1/DTD/svg11.dtd">
<svg version="1.1" id="Layer_1" xmlns="http://www.w3.org/2000/svg" xmlns:xlink="http://www.w3.org/1999/xlink" x="0px" y="0px"
	 width="71.653px" height="67.717px" viewBox="0 0 71.653 67.717" style="enable-background:new 0 0 71.653 67.717;"
	 xml:space="preserve">
<g>
	<g>
		<path d="M11.597,27.705c9.715,3.639,19.234,7.388,28.473,12.159c9.164,4.732,18.987,10.194,25.83,18.078
			c2.434,2.804,7.914-2.466,5.213-5.037c-7.864-7.484-18.35-12.481-28.109-16.945c-9.302-4.255-19.847-9.042-30.161-9.935
			C12.016,25.954,10.1,27.144,11.597,27.705L11.597,27.705z"/>
	</g>
</g>
<g>
	<g>
		<path d="M39.758,25.353c5.142,0,6.298-9.492,0.326-9.492C34.942,15.86,33.786,25.353,39.758,25.353L39.758,25.353z"/>
	</g>
</g>
<g>
	<g>
		<path d="M38.318,20.768C35.014,34.226,26.403,47.55,27.337,61.781c0.262,3.997,6.847,1.368,6.271-2.035
			c-0.318-1.879-0.539-3.07-1.579-4.617c-0.779-1.16-2.846-0.148-3.269,0.819c-0.746,1.707-1.088,3.213-1.38,5.067
			c2.076-0.423,4.152-0.847,6.228-1.27c-0.127-13.676,5.802-25.99,7.917-39.3C41.791,18.768,38.648,19.423,38.318,20.768
			L38.318,20.768z"/>
	</g>
</g>
<g>
	<g>
		<path d="M31.944,43.522c3.98-11.516,5.649-23.71,6.5-35.823c-1.64,0.206-3.28,0.412-4.92,0.618
			c0.024,3.841,0.382,7.617,0.883,11.424c0.612,4.649,0.538,9.953,1.917,14.395c0.575,1.852,3.821,0.364,4.107-1
			c1.72-8.211-1.746-17.612-1.993-25.971c-0.078-2.658-5.045-0.818-4.909,1.686c0.623,11.507-0.204,23.302-2.955,34.51
			C30.407,44.043,31.751,44.079,31.944,43.522L31.944,43.522z"/>
	</g>
</g>
</svg>
