<?xml version="1.0" encoding="iso-8859-1"?>
<!-- Generator: Adobe Illustrator 16.0.0, SVG Export Plug-In . SVG Version: 6.00 Build 0)  -->
<!DOCTYPE svg PUBLIC "-//W3C//DTD SVG 1.1//EN" "http://www.w3.org/Graphics/SVG/1.1/DTD/svg11.dtd">
<svg version="1.1" id="Layer_1" xmlns="http://www.w3.org/2000/svg" xmlns:xlink="http://www.w3.org/1999/xlink" x="0px" y="0px"
	 width="71.654px" height="55.055px" viewBox="0 0 71.654 55.055" style="enable-background:new 0 0 71.654 55.055;"
	 xml:space="preserve">
<g>
	<g>
		<path d="M41.981,8.834c-7.652,2.84-11.473,9.538-14.346,16.778c-1.539,3.877-2.765,7.873-4.247,11.772
			c-1.2,3.154-4.311,6.502-4.779,9.73c-0.086,0.593,0.686,0.741,1.124,0.598c5.679-1.854,7.47-11.481,9.022-16.369
			c2.595-8.169,5.555-17.737,14.037-21.488C43.763,9.425,42.7,8.567,41.981,8.834L41.981,8.834z"/>
	</g>
</g>
<g>
	<g>
		<path d="M23.379,10.351c7.192,0.372,12.603,12.278,15.784,17.5c3.729,6.122,6.859,13.643,12.648,18.121
			c0.413,0.319,1.947,0.178,1.517-0.603c-4.496-8.164-9.46-16.2-14.981-23.723C35.021,17.115,29.877,9.425,23.32,10
			C23.003,10.027,23.116,10.337,23.379,10.351L23.379,10.351z"/>
	</g>
</g>
</svg>
