<?xml version="1.0" encoding="iso-8859-1"?>
<!-- Generator: Adobe Illustrator 16.0.0, SVG Export Plug-In . SVG Version: 6.00 Build 0)  -->
<!DOCTYPE svg PUBLIC "-//W3C//DTD SVG 1.1//EN" "http://www.w3.org/Graphics/SVG/1.1/DTD/svg11.dtd">
<svg version="1.1" id="Layer_1" xmlns="http://www.w3.org/2000/svg" xmlns:xlink="http://www.w3.org/1999/xlink" x="0px" y="0px"
	 width="73.229px" height="56.496px" viewBox="0 0 73.229 56.496" style="enable-background:new 0 0 73.229 56.496;"
	 xml:space="preserve">
<g>
	<g>
		<path d="M15.74,7.653c-0.653-0.157-1.306-0.314-1.959-0.471c-0.576-1.059-3.136-0.004-2.365,0.992
			c10.677,13.808,23.702,26.103,36.281,38.16c1.124-1.187,2.249-2.374,3.373-3.56c-1.26-0.473-2.52-0.945-3.779-1.417
			c-0.908-0.455-2.771,0.454-2.151,1.59c0.729,1.335,1.468,2.3,2.558,3.387c1.697,1.693,5.817-1.464,3.818-3.296
			C38.634,31.228,26.031,19.289,13.607,7c-0.39,0.532-0.778,1.065-1.168,1.597c1.653-0.102,1.464-0.483,3.326-0.896
			C15.812,7.691,15.77,7.651,15.74,7.653L15.74,7.653z"/>
	</g>
</g>
<g>
	<g>
		<path d="M45.825,7.688c0.299-0.715,0.598-1.431,0.896-2.146c0.559-0.827-1.091-1.019-1.543-0.58
			c-5.743,5.579-12.847,9.574-18.649,15.309C19.69,27.029,13.343,34.389,6.913,41.535c1.196-0.22,2.394-0.44,3.59-0.661
			c-0.031-0.024-0.063-0.048-0.095-0.072c-0.181,0.862-0.362,1.724-0.544,2.585c0.53-0.439,1.126-0.77,1.789-0.99
			c1.052-0.435,1.074-1.728-0.127-1.91C10.693,40.319,9.852,40.28,9,40.37c-1.068,0.003-2.909,1.127-2.631,2.421
			c0.012,0.054,0.023,0.107,0.035,0.161c0.433,2.007,3.018,1.221,4.005,0.159c7.881-8.476,14.603-17.838,22.998-25.898
			c2.833-2.72,5.856-5.193,9.15-7.332c1.723-1.118,3.646-2.408,4.239-4.5c-0.595,0.071-1.188,0.143-1.783,0.214
			c0.167,0.69,0.333,1.381,0.499,2.072C45.501,7.807,45.796,7.82,45.825,7.688L45.825,7.688z"/>
	</g>
</g>
</svg>
