<?xml version="1.0" encoding="iso-8859-1"?>
<!-- Generator: Adobe Illustrator 16.0.0, SVG Export Plug-In . SVG Version: 6.00 Build 0)  -->
<!DOCTYPE svg PUBLIC "-//W3C//DTD SVG 1.1//EN" "http://www.w3.org/Graphics/SVG/1.1/DTD/svg11.dtd">
<svg version="1.1" id="Layer_1" xmlns="http://www.w3.org/2000/svg" xmlns:xlink="http://www.w3.org/1999/xlink" x="0px" y="0px"
	 width="71.653px" height="57.433px" viewBox="0 0 71.653 57.433" style="enable-background:new 0 0 71.653 57.433;"
	 xml:space="preserve">
<g>
	<g>
		<path d="M23.635,25.173c-4.384-1.452-7.895-0.729-7.647,4.546c0.296,6.309,4.956,13.307,9.362,17.543
			c5.76,5.536,15.948,4.042,22.133,0.106c8.145-5.184,8.622-14.071,5.477-22.369C47.635,10.957,33.312,7.203,20.795,14.28
			c-8.851,5.005-16.114,18.617-2.677,22.772c0.773,0.239,3.015-0.588,1.801-1.527c-6.403-4.954-4.203-12.073,1.505-16.428
			c6.914-5.273,16.117-5.246,22.359,0.964c4.304,4.281,7.229,11.743,6.227,17.713c-1.366,8.139-11.045,10.202-17.827,8.975
			c-4.369-0.791-7.665-5.88-9.873-9.325c-1.903-2.97-8.156-14.738,1.3-12.204C23.649,25.229,23.685,25.189,23.635,25.173
			L23.635,25.173z"/>
	</g>
</g>
</svg>
