<?xml version="1.0" encoding="iso-8859-1"?>
<!-- Generator: Adobe Illustrator 16.0.0, SVG Export Plug-In . SVG Version: 6.00 Build 0)  -->
<!DOCTYPE svg PUBLIC "-//W3C//DTD SVG 1.1//EN" "http://www.w3.org/Graphics/SVG/1.1/DTD/svg11.dtd">
<svg version="1.1" id="Layer_1" xmlns="http://www.w3.org/2000/svg" xmlns:xlink="http://www.w3.org/1999/xlink" x="0px" y="0px"
	 width="67.717px" height="66px" viewBox="0 0 67.717 66" style="enable-background:new 0 0 67.717 66;" xml:space="preserve">
<g>
	<g>
		<path d="M23.873,26.72c-11.649-1.245-9.175,13.835-4.515,19.714c8.848,11.161,22.901,1.405,28.217-8.069
			c4.277-7.624,0.535-14.171-7.519-16.23c-7.614-1.947-17.18-0.186-22.978,5.271c-7.848,7.387-0.402,16.717,5.867,21.963
			c0.619,0.518,2.734-0.156,2-0.985c-4.973-5.605-11.462-15.998-2.384-21.084c5.726-3.208,15.573-4.015,20.804,0.643
			c8.092,7.205-7.502,21.638-14.859,20.463c-8.333-1.33-16.599-20.735-4.628-21.634C23.924,26.767,23.911,26.725,23.873,26.72
			L23.873,26.72z"/>
	</g>
</g>
</svg>
