<?xml version="1.0" encoding="iso-8859-1"?>
<!-- Generator: Adobe Illustrator 16.0.0, SVG Export Plug-In . SVG Version: 6.00 Build 0)  -->
<!DOCTYPE svg PUBLIC "-//W3C//DTD SVG 1.1//EN" "http://www.w3.org/Graphics/SVG/1.1/DTD/svg11.dtd">
<svg version="1.1" id="Layer_1" xmlns="http://www.w3.org/2000/svg" xmlns:xlink="http://www.w3.org/1999/xlink" x="0px" y="0px"
	 width="46.897px" height="57.433px" viewBox="0 0 46.897 57.433" style="enable-background:new 0 0 46.897 57.433;"
	 xml:space="preserve">
<g>
	<g>
		<path d="M24.737,16.896c-9.091-3.252-9.822,12.251-9.297,17.466c0.927,9.203,6.071,20.994,17.227,16.883
			c14.758-5.438,9.409-26.803,2.214-36.217C31.193,10.203,23.37,8,18.628,12.688c-5.179,5.119-4.271,13.117-6.314,19.566
			c-0.316,0.997,1.705,0.92,2.064,0.249c2.6-4.849,3.454-10.256,5.555-15.276c3.002-7.174,10.078-1.544,12.797,2.68
			c4.757,7.39,9.625,25.999-2.693,28.876c-7.01,1.637-10.166-9.727-11.035-14.503c-0.651-3.581-2.141-18.412,5.08-16.532
			C24.688,17.906,25.631,17.216,24.737,16.896L24.737,16.896z"/>
	</g>
</g>
</svg>
