<?xml version="1.0" encoding="iso-8859-1"?>
<!-- Generator: Adobe Illustrator 16.0.0, SVG Export Plug-In . SVG Version: 6.00 Build 0)  -->
<!DOCTYPE svg PUBLIC "-//W3C//DTD SVG 1.1//EN" "http://www.w3.org/Graphics/SVG/1.1/DTD/svg11.dtd">
<svg version="1.1" id="Layer_1" xmlns="http://www.w3.org/2000/svg" xmlns:xlink="http://www.w3.org/1999/xlink" x="0px" y="0px"
	 width="66.33px" height="61.307px" viewBox="0 0 66.33 61.307" style="enable-background:new 0 0 66.33 61.307;"
	 xml:space="preserve">
<g>
	<g>
		<path d="M22.218,2.965c-7.859,7.249-9.949,21.533-4.717,30.886c6.239,11.152,19.836,4.511,24.864-4.386
			c5.182-9.168-5.175-16.396-12.787-18.625c-7.13-2.089-20.536,0.632-15.288,10.779c0.472,0.913,2.327,0.315,2.296-0.658
			c-0.245-7.847,5.708-8.222,11.967-6.162c5.617,1.849,13.227,7.071,10.091,13.902c-1.753,3.818-6.314,7.449-10.413,8.217
			c-4.407,0.825-7.612-3.922-9.086-7.309c-3.607-8.285-2.655-19.679,3.604-26.424C22.987,2.932,22.394,2.803,22.218,2.965
			L22.218,2.965z"/>
	</g>
</g>
</svg>
