<?xml version="1.0" encoding="iso-8859-1"?>
<!-- Generator: Adobe Illustrator 16.0.0, SVG Export Plug-In . SVG Version: 6.00 Build 0)  -->
<!DOCTYPE svg PUBLIC "-//W3C//DTD SVG 1.1//EN" "http://www.w3.org/Graphics/SVG/1.1/DTD/svg11.dtd">
<svg version="1.1" id="Layer_1" xmlns="http://www.w3.org/2000/svg" xmlns:xlink="http://www.w3.org/1999/xlink" x="0px" y="0px"
	 width="46.897px" height="67.717px" viewBox="0 0 46.897 67.717" style="enable-background:new 0 0 46.897 67.717;"
	 xml:space="preserve">
<g>
	<g>
		<path d="M1.219,17.103C5.538,26.439,12.5,34.219,20.07,41.08c2.314,2.098,4.692,4.114,7.122,6.077
			c4.386,3.544,9.945,8.848,15.503,10.17c4.029,0.958,6.584-6.585,1.798-6.276c-0.549-0.337-1.107-0.658-1.676-0.961
			c-0.885-0.492-3.203,0.028-2.764,1.43c0.42,1.339,0.709,2.386,0.737,3.789c1.933-1.188,3.865-2.375,5.798-3.563
			c-2.62-2.67-6.427-4.232-9.598-6.211c-4.014-2.504-7.867-5.256-11.612-8.143C17.391,31.234,10.095,23.928,4.67,15.387
			C3.825,14.057,0.509,15.567,1.219,17.103L1.219,17.103z"/>
	</g>
</g>
<g>
	<g>
		<path d="M28.898,19.751c-3.752,6.395-7.227,12.939-11.332,19.126c-1.976,2.976-4.075,5.869-6.153,8.772
			c-2.373,3.314-5.448,6.076-6.219,10.164c-0.322,1.709,1.052,3.228,2.859,2.585c3.298-1.174,4.125-3.061,5.979-5.928
			c2.153-3.329,4.265-6.681,6.295-10.087c4.563-7.657,9.173-15.639,11.017-24.446C31.612,18.658,29.328,19.018,28.898,19.751
			L28.898,19.751z"/>
	</g>
</g>
</svg>
