<?xml version="1.0" encoding="iso-8859-1"?>
<!-- Generator: Adobe Illustrator 16.0.0, SVG Export Plug-In . SVG Version: 6.00 Build 0)  -->
<!DOCTYPE svg PUBLIC "-//W3C//DTD SVG 1.1//EN" "http://www.w3.org/Graphics/SVG/1.1/DTD/svg11.dtd">
<svg version="1.1" id="Layer_1" xmlns="http://www.w3.org/2000/svg" xmlns:xlink="http://www.w3.org/1999/xlink" x="0px" y="0px"
	 width="59.213px" height="67.717px" viewBox="0 0 59.213 67.717" style="enable-background:new 0 0 59.213 67.717;"
	 xml:space="preserve">
<g>
	<g>
		<path d="M33.874,56.276c-1.002-4.493-3.052-8.726-4.876-12.931c-3.011-6.94-6.273-13.761-9.867-20.419
			c-2.894-5.361-6-10.637-10.083-15.184C5.994,4.343,0.399,4.918,0.343,9.79c-0.011,0.915,1.702,0.61,2.069,0.203
			c0.197-0.257,0.428-0.477,0.693-0.662c-0.783-0.044-1.567-0.089-2.35-0.134c1.035,0.989,2.263,1.465,3.425,2.296
			c1.682,1.204,2.932,3.094,4.138,4.741c3.405,4.65,6.243,9.733,9,14.784c4.712,8.636,8.921,17.521,13.218,26.359
			C31.262,58.872,34.243,57.929,33.874,56.276L33.874,56.276z"/>
	</g>
</g>
<g>
	<g>
		<path d="M13.275,60.748c-1.768,1.292-3.697,1.794-5.788,1.505c0.231,0.361,0.462,0.723,0.693,1.084
			c2.099-3.966,3.021-8.703,4.901-12.836c2.083-4.58,4.724-8.873,7.522-13.043c5.064-7.547,12.857-13.192,17.104-21.144
			c0.59-1.104-0.3-2.101-1.532-1.804c-9.496,2.289-15.662,13.757-20.469,21.593c-2.691,4.388-4.992,9.039-6.93,13.805
			c-1.501,3.691-4.081,9.444-3.022,13.478c0.212,0.807,1.505,0.783,2.04,0.354c1.683-1.352,3.845-1.628,5.545-2.96
			C13.372,60.753,13.299,60.73,13.275,60.748L13.275,60.748z"/>
	</g>
</g>
</svg>
