<?xml version="1.0" encoding="iso-8859-1"?>
<!-- Generator: Adobe Illustrator 16.0.0, SVG Export Plug-In . SVG Version: 6.00 Build 0)  -->
<!DOCTYPE svg PUBLIC "-//W3C//DTD SVG 1.1//EN" "http://www.w3.org/Graphics/SVG/1.1/DTD/svg11.dtd">
<svg version="1.1" id="Layer_1" xmlns="http://www.w3.org/2000/svg" xmlns:xlink="http://www.w3.org/1999/xlink" x="0px" y="0px"
	 width="73.229px" height="66px" viewBox="0 0 73.229 66" style="enable-background:new 0 0 73.229 66;" xml:space="preserve">
<g>
	<g>
		<path d="M28.896,5.527c-15.608,7.984-15.854,27.261-6.174,40.161c10.961,14.609,30.844,11.586,39.457-3.832
			c7.999-14.319-6.674-28.318-18.492-33.867C32.126,2.561,11.978,1.886,9.967,18.514c-0.041,0.644-0.067,1.287-0.079,1.931
			c-0.082,3.356,4.652,1.768,5.562-0.158c4.662-9.883,16.945-6.363,24.698-2.539c5.829,2.875,17.648,11.12,14.835,19.207
			c-1.556,4.47-6.55,8.26-11.089,9.15c-5.123,1.005-9.915-1.793-13.631-5.033C19.965,32.093,18.03,14.945,30.146,6.875
			C31.369,6.06,29.875,5.026,28.896,5.527L28.896,5.527z"/>
	</g>
</g>
</svg>
