<?xml version="1.0" encoding="iso-8859-1"?>
<!-- Generator: Adobe Illustrator 16.0.0, SVG Export Plug-In . SVG Version: 6.00 Build 0)  -->
<!DOCTYPE svg PUBLIC "-//W3C//DTD SVG 1.1//EN" "http://www.w3.org/Graphics/SVG/1.1/DTD/svg11.dtd">
<svg version="1.1" id="Layer_1" xmlns="http://www.w3.org/2000/svg" xmlns:xlink="http://www.w3.org/1999/xlink" x="0px" y="0px"
	 width="71.654px" height="57.433px" viewBox="0 0 71.654 57.433" style="enable-background:new 0 0 71.654 57.433;"
	 xml:space="preserve">
<g>
	<g>
		<path d="M21.165,14.657c-9.059,4.471-1.854,16.301,3.256,20.866c7.826,6.992,16.798,0.817,16.383-8.964
			C40.417,17.436,30.34,10.413,21.973,9.485c-3.68-0.408-7.864,0.303-10.267,3.399c-3.148,4.059-0.744,9.234,1.236,13.252
			c0.249,0.506,1.435,0.335,1.266-0.305c-1.649-6.242-1.346-14.419,7.005-13.206c6.334,0.921,12.604,5.463,15.068,11.393
			c1.419,3.415,0.851,7.386-1.129,10.452c-2.101,3.254-6.096,0.932-8.402-0.771c-4.615-3.409-11.956-14.054-4.908-18.494
			C22.372,14.872,21.518,14.482,21.165,14.657L21.165,14.657z"/>
	</g>
</g>
</svg>
