<?xml version="1.0" encoding="iso-8859-1"?>
<!-- Generator: Adobe Illustrator 16.0.0, SVG Export Plug-In . SVG Version: 6.00 Build 0)  -->
<!DOCTYPE svg PUBLIC "-//W3C//DTD SVG 1.1//EN" "http://www.w3.org/Graphics/SVG/1.1/DTD/svg11.dtd">
<svg version="1.1" id="Layer_1" xmlns="http://www.w3.org/2000/svg" xmlns:xlink="http://www.w3.org/1999/xlink" x="0px" y="0px"
	 width="59.213px" height="57.433px" viewBox="0 0 59.213 57.433" style="enable-background:new 0 0 59.213 57.433;"
	 xml:space="preserve">
<path d="M37.89,18.97c-0.441-5.217-2.891-11.938-8.922-12.714c-5.388-0.694-11.049,1.597-13.813,6.395
	c-0.013,0.022-0.009,0.038-0.02,0.061c-1.377,0.905-2.679,1.938-3.884,3.075C5.77,20.952,4.417,28.388,6.618,35.397
	c1.746,5.561,6.218,13.217,12.709,13.714C35.861,50.378,38.984,31.908,37.89,18.97z M29.47,9.004
	c-0.669-0.052-1.315-0.071-1.88-0.087c-2.125-0.056-4.188,0.249-6.164,0.833C23.995,8.353,26.843,7.8,29.47,9.004z M32.459,37.205
	c-1.831,6.251-7.399,8.222-13.316,6.361c-3.077-0.968-5.813-6.226-7.244-8.854c-2.464-4.529-2.499-9.795-0.193-14.344
	c2.395-4.727,7.239-7.638,12.091-9.236c1.749-0.576,5.053-1.258,7.646-0.828c0.176,0.156,0.355,0.298,0.527,0.474
	c2.458,2.501,3.047,7.526,3.156,10.849C35.296,26.833,33.905,32.268,32.459,37.205z"/>
</svg>
