<?xml version="1.0" encoding="iso-8859-1"?>
<!-- Generator: Adobe Illustrator 16.0.0, SVG Export Plug-In . SVG Version: 6.00 Build 0)  -->
<!DOCTYPE svg PUBLIC "-//W3C//DTD SVG 1.1//EN" "http://www.w3.org/Graphics/SVG/1.1/DTD/svg11.dtd">
<svg version="1.1" id="Layer_1" xmlns="http://www.w3.org/2000/svg" xmlns:xlink="http://www.w3.org/1999/xlink" x="0px" y="0px"
	 width="67.717px" height="56.496px" viewBox="0 0 67.717 56.496" style="enable-background:new 0 0 67.717 56.496;"
	 xml:space="preserve">
<g>
	<g>
		<path d="M5.434,6.096c0.099,2.401,2.09,4.111,3.53,5.899c3.965,4.918,8.452,9.489,12.672,14.188
			c8.58,9.554,18.366,18.663,25.73,29.13c2.093,2.974,8.385-2.616,4.606-5.249c-9.389-6.542-17.274-16.638-25.422-24.798
			c-4.399-4.406-8.797-8.815-13.191-13.226C11.01,9.682,8.7,7.214,5.555,6.062C5.526,6.052,5.432,6.041,5.434,6.096L5.434,6.096z"/>
	</g>
</g>
<g>
	<g>
		<path d="M13.503,49.418c0.454-3.053,4.413-6.702,6.437-8.783c4.043-4.157,8.392-7.957,12.863-11.645
			c4.319-3.563,8.747-6.988,13.186-10.401c3.216-2.473,8.259-5.127,9.763-9.062c0.387-1.011-0.016-2.247-1.274-2.296
			c-4.896-0.19-11.702,8.081-15.024,10.954c-4.779,4.134-9.48,8.351-14.068,12.696c-3.967,3.756-14.7,12.182-12.112,18.539
			C13.304,49.5,13.487,49.519,13.503,49.418L13.503,49.418z"/>
	</g>
</g>
</svg>
