<?xml version="1.0" encoding="iso-8859-1"?>
<!-- Generator: Adobe Illustrator 16.0.0, SVG Export Plug-In . SVG Version: 6.00 Build 0)  -->
<!DOCTYPE svg PUBLIC "-//W3C//DTD SVG 1.1//EN" "http://www.w3.org/Graphics/SVG/1.1/DTD/svg11.dtd">
<svg version="1.1" id="Layer_1" xmlns="http://www.w3.org/2000/svg" xmlns:xlink="http://www.w3.org/1999/xlink" x="0px" y="0px"
	 width="71.654px" height="62.992px" viewBox="0 0 71.654 62.992" style="enable-background:new 0 0 71.654 62.992;"
	 xml:space="preserve">
<g>
	<g>
		<path d="M57.493,24.386c-5.65-1.779-11.778-2.134-17.662-1.885c-5.478,0.232-11.94,1.033-15.575,5.624
			c-4.104,5.183,0.85,11.841,4.93,15.123c5.271,4.24,11.495,7.091,18.35,6.452c11.059-1.032,14.654-11.354,11.99-20.912
			c-2.651-9.51-14.467-20.091-20.713-7.044c-0.951,1.987,1.564,2.698,2.973,1.887c9.057-5.215,21.528,20.232,5.59,22.459
			c-8.108,1.133-22.979-6.388-21.769-15.912c0.91-7.162,12.602-7.615,17.846-7.628c4.673-0.013,9.542,0.5,14.015,1.883
			C57.507,24.444,57.542,24.402,57.493,24.386L57.493,24.386z"/>
	</g>
</g>
</svg>
