<?xml version="1.0" encoding="iso-8859-1"?>
<!-- Generator: Adobe Illustrator 16.0.0, SVG Export Plug-In . SVG Version: 6.00 Build 0)  -->
<!DOCTYPE svg PUBLIC "-//W3C//DTD SVG 1.1//EN" "http://www.w3.org/Graphics/SVG/1.1/DTD/svg11.dtd">
<svg version="1.1" id="Layer_1" xmlns="http://www.w3.org/2000/svg" xmlns:xlink="http://www.w3.org/1999/xlink" x="0px" y="0px"
	 width="66.33px" height="83.331px" viewBox="0 0 66.33 83.331" style="enable-background:new 0 0 66.33 83.331;"
	 xml:space="preserve">
<g>
	<g>
		<path d="M45.167,24.69c-4.058,1.376-6.55,7.32-8.416,10.698c-3.204,5.799-5.794,14.169-10.768,18.711
			c-2.391,2.184,1.131,6.448,4.624,1.684c0.911-1.244,1.535-2.801,2.215-4.189c1.662-3.393,3.028-6.938,4.476-10.425
			c1.343-3.232,2.737-6.447,4.284-9.588c0.94-1.91,2.212-5.042,4.308-5.95C46.784,25.244,45.823,24.468,45.167,24.69L45.167,24.69z"
			/>
	</g>
</g>
<g>
	<g>
		<path d="M19.351,20.692c3.715,0.708,6.588,6.211,8.442,9.043c3.567,5.448,6.407,11.39,9.213,17.253
			c2.778,5.807,5.462,11.661,8.157,17.506c1.899,4.119,5.456,9.095,6.21,13.586c1.025,6.1,11.787-2.596,5.354-5.303
			c-0.928-0.391-2.381-3.996-2.877-4.893c-1.865-3.378-3.639-6.809-5.438-10.223c-3.182-6.041-6.462-12.019-9.987-17.868
			C34.9,33.941,28.021,19.676,19.453,20.243C19.127,20.265,18.936,20.613,19.351,20.692L19.351,20.692z"/>
	</g>
</g>
</svg>
