<?xml version="1.0" encoding="iso-8859-1"?>
<!-- Generator: Adobe Illustrator 16.0.0, SVG Export Plug-In . SVG Version: 6.00 Build 0)  -->
<!DOCTYPE svg PUBLIC "-//W3C//DTD SVG 1.1//EN" "http://www.w3.org/Graphics/SVG/1.1/DTD/svg11.dtd">
<svg version="1.1" id="Layer_1" xmlns="http://www.w3.org/2000/svg" xmlns:xlink="http://www.w3.org/1999/xlink" x="0px" y="0px"
	 width="71.653px" height="66px" viewBox="0 0 71.653 66" style="enable-background:new 0 0 71.653 66;" xml:space="preserve">
<g>
	<g>
		<path d="M37.459,15.698c-3.837-1.013-7.751-0.399-9.591,3.481c-1.883,3.974-0.139,8.917,2.032,12.39
			c6.948,11.11,21.165,5.527,26.968-3.637c5.327-8.411-0.271-18.115-8.539-21.75c-8.999-3.957-18.88,0.859-20.425,10.727
			c-0.354,2.263,0.094,4.661,0.551,6.876c0.192,0.934,2.116,0.72,2.228-0.17C31.605,16.265,33.76,7.149,42.963,8.97
			c6.361,1.258,12.558,7.468,11.613,14.267c-1.322,9.505-13.519,15.25-20.617,8.147c-5.134-5.139-6.894-16.932,3.485-15.637
			C37.482,15.751,37.502,15.71,37.459,15.698L37.459,15.698z"/>
	</g>
</g>
</svg>
