<?xml version="1.0" encoding="iso-8859-1"?>
<!-- Generator: Adobe Illustrator 16.0.0, SVG Export Plug-In . SVG Version: 6.00 Build 0)  -->
<!DOCTYPE svg PUBLIC "-//W3C//DTD SVG 1.1//EN" "http://www.w3.org/Graphics/SVG/1.1/DTD/svg11.dtd">
<svg version="1.1" id="Layer_1" xmlns="http://www.w3.org/2000/svg" xmlns:xlink="http://www.w3.org/1999/xlink" x="0px" y="0px"
	 width="71.654px" height="68.693px" viewBox="0 0 71.654 68.693" style="enable-background:new 0 0 71.654 68.693;"
	 xml:space="preserve">
<g>
	<g>
		<path d="M16.767,29.032c-6.088,9.058,6.652,20.013,14.356,22.534c10.999,3.6,16.93-9.242,13.255-18.136
			c-3.408-8.247-14.426-10.405-22.159-8.466C10.33,27.947,7.499,40.354,10.907,50.716c0.337,1.024,2.389,0.684,2.307-0.414
			c-0.568-7.579,0.148-17.852,8.377-21.049c5.719-2.223,13.229-0.26,17.03,4.565c2.05,2.601,2.615,5.799,2.082,9.004
			c-0.834,5.002-3.678,6.762-8.442,5.404c-6.884-1.962-16.563-10.956-13.81-18.914C18.738,28.481,17.098,28.539,16.767,29.032
			L16.767,29.032z"/>
	</g>
</g>
</svg>
