<?xml version="1.0" encoding="iso-8859-1"?>
<!-- Generator: Adobe Illustrator 16.0.0, SVG Export Plug-In . SVG Version: 6.00 Build 0)  -->
<!DOCTYPE svg PUBLIC "-//W3C//DTD SVG 1.1//EN" "http://www.w3.org/Graphics/SVG/1.1/DTD/svg11.dtd">
<svg version="1.1" id="Layer_1" xmlns="http://www.w3.org/2000/svg" xmlns:xlink="http://www.w3.org/1999/xlink" x="0px" y="0px"
	 width="67.717px" height="68.693px" viewBox="0 0 67.717 68.693" style="enable-background:new 0 0 67.717 68.693;"
	 xml:space="preserve">
<g>
	<g>
		<path d="M30.344,25.346c-4.921-0.593-10.042,0.34-12.683,4.939c-2.571,4.479-0.936,10.568,1.229,14.828
			c2.44,4.801,6.781,8.779,12.195,9.717c6.68,1.155,12.479-3.353,16.384-8.261c18.409-23.133-27.055-38.151-32.052-14.5
			c-0.668,3.163,0.263,6.473,1.539,9.34c0.548,1.231,2.949,0.68,2.805-0.697c-0.475-4.539-0.717-9.961,2.445-13.64
			c2.384-2.773,6.828-3.256,10.228-3.051c7.658,0.464,16.772,5.871,15.036,14.656c-1.035,5.237-5.737,10.66-10.604,12.658
			c-4.591,1.885-9.224-1.126-12.218-4.393c-6.681-7.286-8.017-21.091,5.348-20.09C31.2,26.943,31.764,25.518,30.344,25.346
			L30.344,25.346z"/>
	</g>
</g>
</svg>
