<?xml version="1.0" encoding="iso-8859-1"?>
<!-- Generator: Adobe Illustrator 16.0.0, SVG Export Plug-In . SVG Version: 6.00 Build 0)  -->
<!DOCTYPE svg PUBLIC "-//W3C//DTD SVG 1.1//EN" "http://www.w3.org/Graphics/SVG/1.1/DTD/svg11.dtd">
<svg version="1.1" id="Layer_1" xmlns="http://www.w3.org/2000/svg" xmlns:xlink="http://www.w3.org/1999/xlink" x="0px" y="0px"
	 width="59.213px" height="66px" viewBox="0 0 59.213 66" style="enable-background:new 0 0 59.213 66;" xml:space="preserve">
<g>
	<g>
		<path d="M33.649,23.572c-6.135,1.918-10.897,5.92-12.009,12.455c-1.023,6.011,1.861,12.35,6.292,16.308
			c10,8.933,24.308-3.356,23.344-14.772c-0.875-10.35-13.63-15.368-22.565-15.505c-4.835-0.074-9.693,1.209-13.061,4.86
			c-3.21,3.479-4.812,11.928-0.664,15.388c2.166,1.808,5.808-0.336,5.626-3.119c0.125,1.915-0.169-1.635-0.264-2.109
			c-0.195-0.978-0.495-1.922-0.674-2.903c-0.201-1.1-0.101-2.234,0.453-3.207c0.983-1.726,4.309-2.176,6.292-2.349
			c6.336-0.551,15.311,2.21,18.376,8.254c1.834,3.616,0.353,7.361-1.783,10.464c-2.902,4.219-7.258,4.869-11.334,1.926
			c-9.361-6.759-7.849-20.505,2.013-25.646C33.733,23.595,33.675,23.564,33.649,23.572L33.649,23.572z"/>
	</g>
</g>
</svg>
