<?xml version="1.0" encoding="iso-8859-1"?>
<!-- Generator: Adobe Illustrator 16.0.0, SVG Export Plug-In . SVG Version: 6.00 Build 0)  -->
<!DOCTYPE svg PUBLIC "-//W3C//DTD SVG 1.1//EN" "http://www.w3.org/Graphics/SVG/1.1/DTD/svg11.dtd">
<svg version="1.1" id="Layer_1" xmlns="http://www.w3.org/2000/svg" xmlns:xlink="http://www.w3.org/1999/xlink" x="0px" y="0px"
	 width="73.229px" height="62.992px" viewBox="0 0 73.229 62.992" style="enable-background:new 0 0 73.229 62.992;"
	 xml:space="preserve">
<g>
	<g>
		<path d="M33.857,20.19c-15.299-0.638-13.575,33.278,2.035,32.262c10.373-0.675,13.587-10.823,11.025-19.439
			c-2.681-9.019-10.449-18.191-20.21-19.217c-1.45-0.152-3.318,1.386-3.558,2.792c-0.484,2.847-0.348,4.689,0.678,7.359
			c0.474,1.233,2.414,0.648,2.747-0.39c0.756-2.356,1.448-4.731,2.241-7.076c-1.186,0.931-2.372,1.862-3.558,2.792
			c10.516,0.859,26.655,25.052,11.521,29.291c-10.262,2.874-15.028-26.196-2.808-27.822C34.473,20.677,34.265,20.207,33.857,20.19
			L33.857,20.19z"/>
	</g>
</g>
</svg>
