<?xml version="1.0" encoding="iso-8859-1"?>
<!-- Generator: Adobe Illustrator 16.0.0, SVG Export Plug-In . SVG Version: 6.00 Build 0)  -->
<!DOCTYPE svg PUBLIC "-//W3C//DTD SVG 1.1//EN" "http://www.w3.org/Graphics/SVG/1.1/DTD/svg11.dtd">
<svg version="1.1" id="Layer_1" xmlns="http://www.w3.org/2000/svg" xmlns:xlink="http://www.w3.org/1999/xlink" x="0px" y="0px"
	 width="71.654px" height="55.055px" viewBox="0 0 71.654 55.055" style="enable-background:new 0 0 71.654 55.055;"
	 xml:space="preserve">
<g>
	<g>
		<path d="M23.58,15.974c5.347,3.227,10.906,6.098,16.126,9.53c5.933,3.902,9.199,8.58,13.392,14.041
			c0.314,0.409,1.562,0.544,1.648-0.169c0.712-5.879-5.352-10.213-9.628-13.208c-6.42-4.497-13.699-7.417-20.729-10.77
			C23.983,15.204,22.943,15.59,23.58,15.974L23.58,15.974z"/>
	</g>
</g>
<g>
	<g>
		<path d="M49.114,7.211c-5.899,0.809-9.844,12.04-11.993,16.433c-2.354,4.81-4.493,9.728-6.524,14.682
			c-1.322,3.224-3.563,7.215-3.762,10.745c-0.117,2.086,3.381,1.025,3.962-0.103c1.261-2.45,1.823-5.461,2.748-8.062
			c1.452-4.086,3.042-8.123,4.701-12.128c1.696-4.095,3.519-8.14,5.542-12.084c1.145-2.23,3.201-7.444,5.696-8.33
			C50.431,8.027,50.025,7.086,49.114,7.211L49.114,7.211z"/>
	</g>
</g>
</svg>
