<?xml version="1.0" encoding="iso-8859-1"?>
<!-- Generator: Adobe Illustrator 16.0.0, SVG Export Plug-In . SVG Version: 6.00 Build 0)  -->
<!DOCTYPE svg PUBLIC "-//W3C//DTD SVG 1.1//EN" "http://www.w3.org/Graphics/SVG/1.1/DTD/svg11.dtd">
<svg version="1.1" id="Layer_1" xmlns="http://www.w3.org/2000/svg" xmlns:xlink="http://www.w3.org/1999/xlink" x="0px" y="0px"
	 width="73.229px" height="83.331px" viewBox="0 0 73.229 83.331" style="enable-background:new 0 0 73.229 83.331;"
	 xml:space="preserve">
<g>
	<g>
		<path d="M11.748,21.919c11.009,3.129,19.232,11.298,26.486,19.795c7.12,8.34,13.491,17.256,19.109,26.672
			c2.457,4.119,9.031-2.082,6.427-5.873c-6.408-9.327-13.741-18.093-21.993-25.838c-7.724-7.249-18.307-15.761-29.43-16.11
			C11.502,20.54,10.56,21.582,11.748,21.919L11.748,21.919z"/>
	</g>
</g>
<g>
	<g>
		<path d="M58.381,16.839C47.54,20.62,38.833,31.11,32.341,40.071c-8.339,11.513-15.395,24.922-20.643,38.133
			c-1.692,4.259,4.191,4.372,5.674,1.071c0.703-1.565,1.075-3.05,1.346-4.756c0.25-1.576-2.487-1.143-3.1-0.472
			c-0.953,0.905-1.905,1.811-2.858,2.716c1.537,0.837,3.075,1.675,4.612,2.512c5.635-11.483,10.498-23.114,17.161-34.091
			c3.439-5.667,7.41-10.994,11.753-15.998c3.873-4.461,8.524-7.704,12.925-11.542C59.82,17.113,58.877,16.666,58.381,16.839
			L58.381,16.839z"/>
	</g>
</g>
</svg>
