<?xml version="1.0" encoding="utf-8"?>
<!-- Generator: Adobe Illustrator 16.0.0, SVG Export Plug-In . SVG Version: 6.00 Build 0)  -->
<!DOCTYPE svg PUBLIC "-//W3C//DTD SVG 1.1//EN" "http://www.w3.org/Graphics/SVG/1.1/DTD/svg11.dtd">
<svg version="1.1" id="Layer_2" xmlns="http://www.w3.org/2000/svg" xmlns:xlink="http://www.w3.org/1999/xlink" x="0px" y="0px"
	 width="56.88px" height="201.858px" viewBox="0 0 56.88 201.858" enable-background="new 0 0 56.88 201.858" xml:space="preserve">
<g>
	<g>
		<path d="M38.481,4.956c-5.618,8.635-5.538,20.062-5.438,29.996c0.119,11.963,0.92,23.831,0.637,35.808
			c-0.368,15.591-1.419,31.159-2.276,46.728c-0.417,7.568-0.911,15.127-1.365,22.692c-0.264,4.398-0.453,8.779-0.953,13.16
			c-0.39,3.422-1.795,6.629-2.031,10.092c-0.222,3.265,4.958,1.708,5.223-0.863c0.275-2.674-0.097-5.135-0.463-7.798
			c-0.588-4.275-0.171-8.688,0.036-12.975c0.394-8.176,0.973-16.347,1.388-24.525c0.758-14.909,1.675-29.808,2.079-44.732
			c0.315-11.651-0.321-23.114-0.84-34.739c-0.485-10.858-0.684-22.823,4.375-32.753C38.94,4.873,38.564,4.827,38.481,4.956
			L38.481,4.956z"/>
	</g>
</g>
</svg>
