<?xml version="1.0" encoding="utf-8"?>
<!-- Generator: Adobe Illustrator 16.0.0, SVG Export Plug-In . SVG Version: 6.00 Build 0)  -->
<!DOCTYPE svg PUBLIC "-//W3C//DTD SVG 1.1//EN" "http://www.w3.org/Graphics/SVG/1.1/DTD/svg11.dtd">
<svg version="1.1" id="Layer_2" xmlns="http://www.w3.org/2000/svg" xmlns:xlink="http://www.w3.org/1999/xlink" x="0px" y="0px"
	 width="56.126px" height="238px" viewBox="0 0 56.126 238" enable-background="new 0 0 56.126 238" xml:space="preserve">
<g>
	<g>
		<path d="M43.749-186.936c0.959,4.437,2.303,8.693,2.604,13.345c0.445,6.854-0.198,13.773-0.868,20.59
			c-1.326,13.505-3.812,26.852-5.259,40.336c-1.003,9.354-0.873,18.908-1.254,28.306c-0.491,12.148-1.014,24.295-1.67,36.436
			c-0.558,10.29-1.825,20.614-1.182,30.914c0.297,4.75,0.691,9.484,0.767,14.244c0.073,4.65-1.637,9.374-1.328,13.908
			c0.099,1.439,2.202,1.175,2.874,0.303c4.656-6.051,3.197-16.414,2.74-23.539c-0.738-11.528-0.093-22.704,0.539-34.232
			c0.646-11.791,1.164-23.59,1.602-35.391c0.393-10.589,0.18-21.36,1.254-31.903c1.413-13.873,4.053-27.593,5.139-41.508
			c0.539-6.911,0.728-13.938-0.083-20.833c-0.503-4.278-1.227-9.146-5.299-11.257C44.12-187.325,43.686-187.228,43.749-186.936
			L43.749-186.936z"/>
	</g>
</g>
<g>
	<g>
		<path d="M26.165,234.004c4.93-19.438,4.027-40.086,5.536-59.959c1.784-23.492,4.971-46.859,8.814-70.096
			c1.814-10.972,3.57-21.955,6.017-32.806c2.588-11.473,5.581-22.84,7.634-34.428c1.407-7.945,2.092-16.047,2.38-24.11
			c0.07-1.976-0.701-8.047-4.132-4.969c-0.627,0.562,0.219,1.08,0.788,0.99c-0.489,0.077-0.77,13.405-0.828,14.855
			c-0.423,10.601-3.012,21.271-5.381,31.568c-4.48,19.481-8.233,38.93-11.26,58.696c-3.164,20.676-5.581,41.471-7.041,62.337
			c-1.343,19.203,0.612,38.885-2.605,57.912C26.081,234.03,26.156,234.036,26.165,234.004L26.165,234.004z"/>
	</g>
</g>
</svg>
