<?xml version="1.0" encoding="utf-8"?>
<!-- Generator: Adobe Illustrator 16.0.0, SVG Export Plug-In . SVG Version: 6.00 Build 0)  -->
<!DOCTYPE svg PUBLIC "-//W3C//DTD SVG 1.1//EN" "http://www.w3.org/Graphics/SVG/1.1/DTD/svg11.dtd">
<svg version="1.1" id="Layer_2" xmlns="http://www.w3.org/2000/svg" xmlns:xlink="http://www.w3.org/1999/xlink" x="0px" y="0px"
	 width="66.33px" height="188.142px" viewBox="0 0 66.33 188.142" enable-background="new 0 0 66.33 188.142" xml:space="preserve">
<g>
	<g>
		<path d="M36.441,20.138c-1.099,16.817-1.824,33.8-2.968,50.68c-0.94,13.872-1.517,27.673-0.487,41.549
			c0.937,12.632,2.263,25.23,2.568,37.902c0.15,6.224-0.02,12.46-0.748,18.646c-0.628,5.336-2.76,9.997-3.894,15.146
			c-0.12,0.543,0.831,0.593,1.081,0.259c2.692-3.584,3.324-8.511,4.088-12.818c1.005-5.67,1.25-11.479,1.336-17.226
			c0.191-12.797-1.009-25.59-1.929-38.34c-1.087-15.068-0.777-29.987,0.168-45.068c1.056-16.855,3.076-33.958,0.863-50.727
			C36.514,20.11,36.443,20.107,36.441,20.138L36.441,20.138z"/>
	</g>
</g>
</svg>
