<?xml version="1.0" encoding="utf-8"?>
<!-- Generator: Adobe Illustrator 16.0.0, SVG Export Plug-In . SVG Version: 6.00 Build 0)  -->
<!DOCTYPE svg PUBLIC "-//W3C//DTD SVG 1.1//EN" "http://www.w3.org/Graphics/SVG/1.1/DTD/svg11.dtd">
<svg version="1.1" id="Layer_2" xmlns="http://www.w3.org/2000/svg" xmlns:xlink="http://www.w3.org/1999/xlink" x="0px" y="0px"
	 width="71.653px" height="188.142px" viewBox="0 0 71.653 188.142" enable-background="new 0 0 71.653 188.142"
	 xml:space="preserve">
<g>
	<g>
		<path d="M17.42,7.149c0.677,2.25,2.095,4.06,3.117,6.179c1.442,2.989,2.289,6.246,2.982,9.478
			c1.73,8.057,1.921,16.443,1.869,24.65c-0.107,17.164-1.612,34.234-2.481,51.366c-0.757,14.898,0.413,29.795,1.256,44.672
			c0.501,8.845,1.153,17.687,2.233,26.481c0.778,6.343,1.106,15.408,5.42,20.509c0.337,0.398,1.572,0.232,1.496-0.418
			c-0.815-6.977-3.066-13.848-3.974-20.881c-1.283-9.954-1.883-19.997-2.419-30.014c-0.788-14.732-1.662-29.292-0.845-44.039
			c0.95-17.148,2.776-34.353,2.174-51.545c-0.271-7.751-0.988-15.547-2.98-23.062c-1.259-4.748-3.174-10.959-7.729-13.423
			C17.506,7.084,17.401,7.088,17.42,7.149L17.42,7.149z"/>
	</g>
</g>
</svg>
