<?xml version="1.0" encoding="utf-8"?>
<!-- Generator: Adobe Illustrator 16.0.0, SVG Export Plug-In . SVG Version: 6.00 Build 0)  -->
<!DOCTYPE svg PUBLIC "-//W3C//DTD SVG 1.1//EN" "http://www.w3.org/Graphics/SVG/1.1/DTD/svg11.dtd">
<svg version="1.1" id="Layer_1" xmlns="http://www.w3.org/2000/svg" xmlns:xlink="http://www.w3.org/1999/xlink" x="0px" y="0px"
	  viewBox="0 0 300 300" enable-background="new 0 0 612 792" xml:space="preserve">
<g>
	<g>
		<path d="M339.978,248.564c-9.633-30.547-30.213-55.083-48.284-80.912c-0.13,1.01-0.261,2.02-0.391,3.029
			c7.35-5.774,14.699-11.549,22.048-17.323c-1.393-0.811-2.785-1.622-4.179-2.432c-8.695,25.731-24.547,52.778-20.472,80.857
			c0.359,2.474,4.328,2.314,4.821,0c10.27-48.172,20.541-96.345,30.81-144.518c0.754-3.534,1.507-7.067,2.261-10.601
			c-1.523,0.199-3.047,0.398-4.57,0.597c8.751,12.38,21.184,21.493,29.922,33.858c0.72-1.254,1.439-2.508,2.159-3.762
			c-5.774,0.262-11.549,0.525-17.323,0.787c0.804,1.055,1.607,2.11,2.411,3.165c5.562-15.977,3.222-33.189,6.3-49.606
			c0.319-1.707-1.131-3.777-3.076-3.075c-42.758,15.433-85.517,30.865-128.275,46.298c-36.507,13.176-73.014,26.353-109.52,39.529
			c-1.626,0.587-2.192,2.129-1.494,3.672c5.008,11.078,11.358,21.486,17.14,32.165c6.019,11.115,12.106,23.08,13.228,35.865
			c1.055-0.804,2.11-1.607,3.165-2.411c-12.074-3.149-24.147-6.299-36.221-9.449c0.498,1.224,0.996,2.448,1.494,3.672
			c13.336-26.31,33.26-48.073,53.94-68.785c-1.178,0-2.357,0-3.535,0c12.861,9.974,25.722,19.947,38.583,29.921
			c0.995,0.772,2.586,1.14,3.535,0c5.138-6.172,12.474-12.935,21.208-11.468c6.478,1.088,11.035,6.775,13.221,12.611
			c6.374,17.013-6.426,32.793-23.142,35.724c-17.213,3.017-15.368-19.285-12.29-29.644c2.029-6.829,5.47-13.608,10.689-18.544
			c2.184-2.065,0.878-5.612,0.556-8.284c-3.17-26.337-6.34-52.675-9.511-79.012c-0.332-2.76-3.941-3.456-4.911-0.665
			c-4.942,14.23-9.999,44.252,11.206,47.789c9.042,1.508,19.041-4.953,21.332-13.79c2.164-8.345-3.282-16.87-8.537-22.802
			c-5.792-6.537-14.216-12.343-22.997-13.632c-3.641-0.535-7.421-0.708-11.092-1.172c-14.842-1.878-29.684-3.757-44.525-5.636
			c-2.98-0.377-5.96-0.755-8.941-1.132c-3.949-0.5-8.538,4.958-11.191,7.413C103.569,77.93,96.95,93.254,91.849,108.406
			c-0.674,2.002,1.349,3.328,3.075,3.075c10.761-1.575,21.522-3.149,32.284-4.724c2.079-0.304,2.112-2.903,1.103-4.178
			c-12.154-15.358-24.832-30.302-36.617-45.951c-1.914-2.542-6.259-0.055-4.317,2.523c12.042,15.991,24.98,31.27,37.399,46.963
			c0.368-1.393,0.735-2.786,1.103-4.178c-10.761,1.575-21.522,3.149-32.284,4.724c1.025,1.025,2.05,2.05,3.075,3.075
			c4.087-12.142,9.081-24.009,17.317-33.965c1.893-2.289,4.006-4.382,6.183-6.397c0.903-0.836,5.245-5.089,5.667-5.036
			c1.36,0.172,2.721,0.344,4.081,0.517c14.45,1.829,28.9,3.658,43.35,5.487c4.731,0.599,9.462,1.198,14.193,1.797
			c8.236,1.042,14.52,4.132,20.727,9.827c7.129,6.542,14.412,17.899,6.288,26.412c-4.439,4.651-11.591,5.713-17.069,2.481
			c-4.854-2.863-5.972-9.441-6.309-14.542c-0.558-8.44,1.239-17.218,3.998-25.163c-1.637-0.222-3.274-0.443-4.911-0.665
			c2.972,24.693,5.945,49.386,8.917,74.078c0.43,3.574,0.86,7.147,1.291,10.721c-0.038-0.311,0.644-1.501-0.865,0.01
			c-1.073,1.075-2.042,2.276-2.945,3.496c-2.228,3.011-4.02,6.256-5.528,9.681c-4.864,11.043-8.393,27.674,0.197,37.852
			c7.41,8.78,21.716,4.077,29.753-0.961c9.783-6.132,15.245-17.15,14.368-28.609c-0.714-9.328-5.967-19.207-14.95-22.877
			c-11.501-4.698-22.399,3.155-29.504,11.692c1.178,0,2.357,0,3.535,0c-12.861-9.974-25.722-19.947-38.583-29.921
			c-1.075-0.834-2.482-1.055-3.535,0c-20.961,20.994-41.205,43.131-54.722,69.797c-0.716,1.413-0.142,3.246,1.494,3.672
			c12.074,3.149,24.147,6.299,36.221,9.449c1.464,0.382,3.31-0.752,3.165-2.411c-2.274-25.932-20.648-47.544-31.05-70.553
			c-0.498,1.224-0.996,2.448-1.494,3.672c42.759-15.433,85.518-30.865,128.276-46.298c36.507-13.176,73.014-26.353,109.521-39.529
			c-1.025-1.025-2.051-2.05-3.076-3.075c-3.074,16.398-0.753,33.678-6.3,49.606c-0.522,1.502,0.854,3.235,2.411,3.165
			c5.774-0.262,11.549-0.525,17.323-0.787c1.739-0.079,3.318-2.121,2.159-3.762c-8.75-12.38-21.183-21.493-29.922-33.858
			c-1.148-1.624-4.08-1.703-4.57,0.597c-10.27,48.172-20.54,96.345-30.81,144.518c-0.753,3.534-1.506,7.067-2.26,10.601
			c1.607,0,3.214,0,4.821,0c-1.979-13.639,2.006-27.461,6.327-40.271c4.313-12.791,9.825-25.14,14.146-37.927
			c0.888-2.629-2.408-3.823-4.179-2.432c-7.35,5.774-14.699,11.549-22.048,17.323c-0.821,0.645-0.974,2.196-0.391,3.029
			c17.792,25.429,38.294,49.639,47.779,79.718C336.122,252.957,340.949,251.647,339.978,248.564L339.978,248.564z"/>
	</g>
</g>
<g>
	<g>
		<path d="M6.858,315.508c130.725,4.783,261.049-10.851,391.724-10.765c33.936,0.022,67.875,1.2,101.697,4.009
			c32.204,2.675,64.693,11.887,97.13,7.543c3.147-0.421,3.188-5.427,0-5c-31.23,4.182-62.249-4.451-93.225-7.208
			c-32.505-2.893-65.145-4.09-97.771-4.315c-65.396-0.452-130.729,3.354-196.012,6.714c-67.78,3.489-135.672,6.505-203.543,4.021
			C3.633,310.39,3.644,315.39,6.858,315.508L6.858,315.508z"/>
	</g>
</g>
<line fill="none" stroke="#000000" stroke-miterlimit="10" x1="17.882" y1="347.654" x2="586.386" y2="347.654"/>
<line fill="none" stroke="#000000" stroke-miterlimit="10" x1="17.882" y1="377.575" x2="586.386" y2="377.575"/>
<line fill="none" stroke="#000000" stroke-miterlimit="10" x1="17.882" y1="405.135" x2="586.386" y2="405.135"/>
<line fill="none" stroke="#000000" stroke-miterlimit="10" x1="17.882" y1="435.056" x2="586.386" y2="435.056"/>
<line fill="none" stroke="#000000" stroke-miterlimit="10" x1="17.882" y1="462.613" x2="586.386" y2="462.613"/>
<line fill="none" stroke="#000000" stroke-miterlimit="10" x1="17.882" y1="492.535" x2="586.386" y2="492.535"/>
<line fill="none" stroke="#000000" stroke-miterlimit="10" x1="17.882" y1="520.095" x2="586.386" y2="520.095"/>
<line fill="none" stroke="#000000" stroke-miterlimit="10" x1="17.882" y1="550.016" x2="586.386" y2="550.016"/>
<line fill="none" stroke="#000000" stroke-miterlimit="10" x1="17.882" y1="577.574" x2="586.386" y2="577.574"/>
<line fill="none" stroke="#000000" stroke-miterlimit="10" x1="17.882" y1="607.496" x2="586.386" y2="607.496"/>
<line fill="none" stroke="#000000" stroke-miterlimit="10" x1="17.882" y1="635.056" x2="586.386" y2="635.056"/>
<line fill="none" stroke="#000000" stroke-miterlimit="10" x1="17.882" y1="664.977" x2="586.386" y2="664.977"/>
<line fill="none" stroke="#000000" stroke-miterlimit="10" x1="17.882" y1="693.322" x2="586.386" y2="693.322"/>
<line fill="none" stroke="#000000" stroke-miterlimit="10" x1="17.882" y1="723.244" x2="586.386" y2="723.244"/>
<line fill="none" stroke="#000000" stroke-miterlimit="10" x1="17.882" y1="750.804" x2="586.386" y2="750.804"/>
<line fill="none" stroke="#000000" stroke-miterlimit="10" x1="17.882" y1="780.725" x2="586.386" y2="780.725"/>
</svg>
