<?xml version="1.0" encoding="utf-8"?>
<!-- Generator: Adobe Illustrator 16.0.0, SVG Export Plug-In . SVG Version: 6.00 Build 0)  -->
<!DOCTYPE svg PUBLIC "-//W3C//DTD SVG 1.1//EN" "http://www.w3.org/Graphics/SVG/1.1/DTD/svg11.dtd">
<svg version="1.1" id="Layer_1" xmlns="http://www.w3.org/2000/svg" xmlns:xlink="http://www.w3.org/1999/xlink" x="0px" y="0px"
	 width="612px" height="792px" viewBox="0 0 612 792" enable-background="new 0 0 612 792" xml:space="preserve">
<g>
	<g>
		<path d="M87.376,59.151c12.042,15.991,24.98,31.27,37.399,46.963c2,2.528,5.513-1.036,3.535-3.535
			c-12.154-15.358-24.832-30.302-36.617-45.951C89.78,54.086,85.435,56.573,87.376,59.151L87.376,59.151z"/>
	</g>
</g>
<g>
	<g>
		<path d="M124.494,59.668c-17.068,11.921-26.148,29.438-32.645,48.738c-1.032,3.064,3.798,4.368,4.821,1.329
			c6.051-17.974,14.416-34.622,30.347-45.75C129.64,62.154,127.145,57.816,124.494,59.668L124.494,59.668z"/>
	</g>
</g>
<g>
	<g>
		<path d="M190.274,69.824c-3.873,11.152-6.332,24.916-2.351,36.349c4.105,11.79,18.525,14.943,28.078,7.437
			c20.859-16.391-8.625-46.86-28.041-46.409c-3.219,0.075-3.226,5.075,0,5c14.151-0.329,39.873,22.181,26.515,36.176
			c-4.035,4.227-10.651,5.629-15.93,3.154c-4.863-2.281-6.614-7.852-7.25-12.766c-1.184-9.155,0.8-18.975,3.799-27.612
			C196.156,68.099,191.325,66.798,190.274,69.824L190.274,69.824z"/>
	</g>
</g>
<g>
	<g>
		<path d="M103.125,148.128c5.008,11.078,11.358,21.486,17.14,32.165c6.019,11.115,12.106,23.08,13.228,35.865
			c0.279,3.186,5.282,3.213,5,0c-2.274-25.932-20.648-47.544-31.05-70.553C106.115,142.67,101.807,145.214,103.125,148.128
			L103.125,148.128z"/>
	</g>
</g>
<g>
	<g>
		<path d="M101.93,207.97c13.336-26.31,33.26-48.073,53.94-68.785c2.28-2.283-1.255-5.819-3.535-3.535
			c-20.961,20.994-41.205,43.131-54.722,69.797C96.159,208.315,100.472,210.847,101.93,207.97L101.93,207.97z"/>
	</g>
</g>
<g>
	<g>
		<path d="M201.154,153.76c-10.185,9.073-15.379,24.801-14.906,38.185c0.203,5.737,1.904,11.842,6.385,15.708
			c5.12,4.417,12.275,3.936,18.373,2.241c15.466-4.298,26.336-18.595,24.169-34.785c-1.624-12.132-11.333-24.482-24.741-22.438
			c-8.055,1.228-14.472,6.838-19.516,12.899c-2.047,2.459,1.471,6.016,3.535,3.535c4.803-5.771,10.989-11.538,18.94-11.666
			c5.722-0.092,10.458,3.834,13.369,8.431c7.594,11.99,3.095,27.529-8.282,35.176c-5.402,3.631-14.234,7.048-20.646,4.081
			c-4.921-2.278-6.299-8.279-6.586-13.183c-0.706-12.042,4.335-26.538,13.441-34.65C207.102,155.146,203.552,151.623,201.154,153.76
			L201.154,153.76z"/>
	</g>
</g>
<g>
	<g>
		<path d="M287.376,170.175c17.792,25.429,38.294,49.639,47.779,79.718c0.967,3.064,5.794,1.754,4.822-1.329
			c-9.633-30.547-30.213-55.083-48.284-80.912C289.86,165.031,285.523,167.526,287.376,170.175L287.376,170.175z"/>
	</g>
</g>
<g>
	<g>
		<path d="M293.521,230.454c-1.979-13.639,2.006-27.461,6.327-40.271c4.313-12.791,9.825-25.14,14.146-37.927
			c1.035-3.063-3.795-4.367-4.822-1.329c-8.695,25.731-24.547,52.778-20.472,80.857
			C289.161,234.964,293.979,233.606,293.521,230.454L293.521,230.454z"/>
	</g>
</g>
<g>
	<g>
		<path d="M322.021,77.262c8.751,12.38,21.184,21.493,29.922,33.858c1.846,2.61,6.184,0.116,4.318-2.523
			c-8.75-12.38-21.183-21.493-29.922-33.858C324.494,72.128,320.156,74.622,322.021,77.262L322.021,77.262z"/>
	</g>
</g>
<g>
	<g>
		<path d="M339.19,111.31c5.562-15.977,3.222-33.189,6.3-49.606c0.59-3.151-4.229-4.496-4.822-1.329
			c-3.074,16.398-0.753,33.678-6.3,49.606C333.306,113.034,338.137,114.335,339.19,111.31L339.19,111.31z"/>
	</g>
</g>
</svg>
